<svg width="18" height="19" viewBox="0 0 18 19" fill="none"
    xmlns="http://www.w3.org/2000/svg">
    <path d="M8.94118 9.5C7.58612 9.5 6.28657 8.99956 5.3284 8.10876C4.37023 7.21796 3.83193 6.00978 3.83193 4.75C3.83193 3.49022 4.37023 2.28204 5.3284 1.39124C6.28657 0.500445 7.58612 0 8.94118 0C10.2962 0 11.5958 0.500445 12.554 1.39124C13.5121 2.28204 14.0504 3.49022 14.0504 4.75C14.0504 6.00978 13.5121 7.21796 12.554 8.10876C11.5958 8.99956 10.2962 9.5 8.94118 9.5ZM8.34643 13.3297L7.60399 12.1793C7.34853 11.7822 7.65588 11.2812 8.15084 11.2812H8.94118H9.72752C10.2225 11.2812 10.5298 11.7859 10.2744 12.1793L9.53193 13.3297L10.8651 17.9275L12.3021 12.4762C12.3819 12.1756 12.6933 11.9789 13.0166 12.0568C15.8147 12.71 17.8824 15.0627 17.8824 17.8607C17.8824 18.4916 17.3315 19 16.6569 19H11.396C11.3122 19 11.2363 18.9852 11.1645 18.9592L11.1765 19H6.70588L6.71786 18.9592C6.64601 18.9852 6.56618 19 6.48635 19H1.22542C0.55084 19 0 18.4879 0 17.8607C0 15.059 2.07164 12.7062 4.86576 12.0568C5.18908 11.9826 5.50042 12.1793 5.58025 12.4762L7.01723 17.9275L8.35042 13.3297H8.34643Z" fill="#F86C1D"/>
</svg>
