<svg width="22" height="20" viewBox="0 0 22 20" fill="none"
    xmlns="http://www.w3.org/2000/svg">
    <path d="M20.5306 10.858C21.1724 10.858 21.7387 10.3295 21.7387 9.64612C21.7765 9.30634 21.6254 9.00431 21.3234 8.74003L19.33 6.98447V2.41625C19.33 1.74801 18.7901 1.20812 18.1219 1.20812H16.9137C16.2455 1.20812 15.7056 1.74801 15.7056 2.41625V3.80182L11.6848 0.264277C11.4583 0.0755078 11.1563 0 10.892 0C10.6277 0 10.3257 0.0377539 10.0614 0.302031L0.377539 8.74003C0.113262 9.00431 0 9.30634 0 9.64612C0 10.3257 0.528555 10.858 1.20812 10.858H2.41625V13.4895C2.41247 13.5234 2.41247 13.5574 2.41247 13.5952V17.8198C2.41247 18.6542 3.08827 19.33 3.92263 19.33H4.52669C4.572 19.33 4.6173 19.3262 4.66261 19.3224C4.71924 19.3262 4.77587 19.33 4.8325 19.33H6.04062H6.94672C7.78108 19.33 8.45687 18.6542 8.45687 17.8198V16.9137V14.4975C8.45687 13.8293 8.99675 13.2894 9.665 13.2894H12.0812C12.7495 13.2894 13.2894 13.8293 13.2894 14.4975V16.9137V17.8198C13.2894 18.6542 13.9652 19.33 14.7995 19.33H15.7056H16.9326C16.9855 19.33 17.0383 19.33 17.0912 19.3262C17.1327 19.33 17.1742 19.33 17.2158 19.33H17.8198C18.6542 19.33 19.33 18.6542 19.33 17.8198V17.2082C19.3413 17.1101 19.3489 17.0081 19.3489 16.9024L19.3224 10.8542H20.5306V10.858Z" fill="#F86C1D"/>
</svg>
