<svg width="24" height="19" viewBox="0 0 24 19" fill="none"
    xmlns="http://www.w3.org/2000/svg">
    <path d="M14.8438 3.5625C15.3162 3.5625 15.7692 3.37483 16.1033 3.04078C16.4373 2.70673 16.625 2.25367 16.625 1.78125C16.625 1.30883 16.4373 0.855765 16.1033 0.521716C15.7692 0.187667 15.3162 0 14.8438 0C14.3713 0 13.9183 0.187667 13.5842 0.521716C13.2502 0.855765 13.0625 1.30883 13.0625 1.78125C13.0625 2.25367 13.2502 2.70673 13.5842 3.04078C13.9183 3.37483 14.3713 3.5625 14.8438 3.5625ZM15.8531 5.9375L13.5598 4.12656C12.9178 3.62187 12.0123 3.61445 11.3666 4.11543L8.28281 6.49785C7.14355 7.38105 7.2252 9.1252 8.44238 9.89707L10.6875 11.3221V15.4375C10.6875 16.0943 11.2182 16.625 11.875 16.625C12.5318 16.625 13.0625 16.0943 13.0625 15.4375V10.6875C13.0625 10.2904 12.8658 9.91934 12.5355 9.70039L10.9473 8.64277L13.185 6.84297L14.6953 8.05273C14.9068 8.21973 15.1666 8.3125 15.4375 8.3125H17.8125C18.4693 8.3125 19 7.78184 19 7.125C19 6.46816 18.4693 5.9375 17.8125 5.9375H15.8531ZM2.07812 14.25C2.07813 13.5414 2.35963 12.8618 2.8607 12.3607C3.36177 11.8596 4.04137 11.5781 4.75 11.5781C5.45863 11.5781 6.13823 11.8596 6.6393 12.3607C7.14037 12.8618 7.42188 13.5414 7.42188 14.25C7.42187 14.9586 7.14037 15.6382 6.6393 16.1393C6.13823 16.6404 5.45863 16.9219 4.75 16.9219C4.04137 16.9219 3.36177 16.6404 2.8607 16.1393C2.35963 15.6382 2.07813 14.9586 2.07812 14.25ZM9.5 14.25C9.5 12.9902 8.99956 11.782 8.10876 10.8912C7.21796 10.0004 6.00978 9.5 4.75 9.5C3.49022 9.5 2.28204 10.0004 1.39124 10.8912C0.500445 11.782 0 12.9902 0 14.25C0 15.5098 0.500445 16.718 1.39124 17.6088C2.28204 18.4996 3.49022 19 4.75 19C6.00978 19 7.21796 18.4996 8.10876 17.6088C8.99956 16.718 9.5 15.5098 9.5 14.25ZM16.3281 14.25C16.3281 13.5414 16.6096 12.8618 17.1107 12.3607C17.6118 11.8596 18.2914 11.5781 19 11.5781C19.7086 11.5781 20.3882 11.8596 20.8893 12.3607C21.3904 12.8618 21.6719 13.5414 21.6719 14.25C21.6719 14.9586 21.3904 15.6382 20.8893 16.1393C20.3882 16.6404 19.7086 16.9219 19 16.9219C18.2914 16.9219 17.6118 16.6404 17.1107 16.1393C16.6096 15.6382 16.3281 14.9586 16.3281 14.25ZM23.75 14.25C23.75 12.9902 23.2496 11.782 22.3588 10.8912C21.468 10.0004 20.2598 9.5 19 9.5C17.7402 9.5 16.532 10.0004 15.6412 10.8912C14.7504 11.782 14.25 12.9902 14.25 14.25C14.25 15.5098 14.7504 16.718 15.6412 17.6088C16.532 18.4996 17.7402 19 19 19C20.2598 19 21.468 18.4996 22.3588 17.6088C23.2496 16.718 23.75 15.5098 23.75 14.25Z" fill="#F86C1D"/>
</svg>
