<svg width="92" height="13" viewBox="0 0 92 13" fill="none"
    xmlns="http://www.w3.org/2000/svg">
    <path d="M18.407 10V9.252L21.542 6.227C21.8207 5.963 22.026 5.732 22.158 5.534C22.2973 5.32867 22.389 5.14167 22.433 4.973C22.4843 4.797 22.51 4.62833 22.51 4.467C22.51 4.071 22.3707 3.75933 22.092 3.532C21.8133 3.30467 21.4063 3.191 20.871 3.191C20.4603 3.191 20.09 3.26067 19.76 3.4C19.43 3.532 19.144 3.741 18.902 4.027L18.154 3.378C18.4473 3.004 18.8397 2.718 19.331 2.52C19.8297 2.31467 20.376 2.212 20.97 2.212C21.5053 2.212 21.971 2.3 22.367 2.476C22.763 2.64467 23.0673 2.89033 23.28 3.213C23.5 3.53567 23.61 3.917 23.61 4.357C23.61 4.60633 23.577 4.852 23.511 5.094C23.445 5.336 23.3203 5.59267 23.137 5.864C22.9537 6.13533 22.6897 6.43967 22.345 6.777L19.551 9.472L19.287 9.043H23.94V10H18.407ZM27.9797 10.088C27.3783 10.088 26.8393 9.934 26.3627 9.626C25.8933 9.318 25.5193 8.87067 25.2407 8.284C24.9693 7.69733 24.8337 6.986 24.8337 6.15C24.8337 5.314 24.9693 4.60267 25.2407 4.016C25.5193 3.42933 25.8933 2.982 26.3627 2.674C26.8393 2.366 27.3783 2.212 27.9797 2.212C28.5737 2.212 29.109 2.366 29.5857 2.674C30.0623 2.982 30.4363 3.42933 30.7077 4.016C30.979 4.60267 31.1147 5.314 31.1147 6.15C31.1147 6.986 30.979 7.69733 30.7077 8.284C30.4363 8.87067 30.0623 9.318 29.5857 9.626C29.109 9.934 28.5737 10.088 27.9797 10.088ZM27.9797 9.109C28.383 9.109 28.735 8.999 29.0357 8.779C29.3437 8.559 29.582 8.229 29.7507 7.789C29.9267 7.349 30.0147 6.80267 30.0147 6.15C30.0147 5.49733 29.9267 4.951 29.7507 4.511C29.582 4.071 29.3437 3.741 29.0357 3.521C28.735 3.301 28.383 3.191 27.9797 3.191C27.5763 3.191 27.2207 3.301 26.9127 3.521C26.6047 3.741 26.3627 4.071 26.1867 4.511C26.018 4.951 25.9337 5.49733 25.9337 6.15C25.9337 6.80267 26.018 7.349 26.1867 7.789C26.3627 8.229 26.6047 8.559 26.9127 8.779C27.2207 8.999 27.5763 9.109 27.9797 9.109ZM32.0496 10V9.252L35.1846 6.227C35.4632 5.963 35.6686 5.732 35.8006 5.534C35.9399 5.32867 36.0316 5.14167 36.0756 4.973C36.1269 4.797 36.1526 4.62833 36.1526 4.467C36.1526 4.071 36.0132 3.75933 35.7346 3.532C35.4559 3.30467 35.0489 3.191 34.5136 3.191C34.1029 3.191 33.7326 3.26067 33.4026 3.4C33.0726 3.532 32.7866 3.741 32.5446 4.027L31.7966 3.378C32.0899 3.004 32.4822 2.718 32.9736 2.52C33.4722 2.31467 34.0186 2.212 34.6126 2.212C35.1479 2.212 35.6136 2.3 36.0096 2.476C36.4056 2.64467 36.7099 2.89033 36.9226 3.213C37.1426 3.53567 37.2526 3.917 37.2526 4.357C37.2526 4.60633 37.2196 4.852 37.1536 5.094C37.0876 5.336 36.9629 5.59267 36.7796 5.864C36.5962 6.13533 36.3322 6.43967 35.9876 6.777L33.1936 9.472L32.9296 9.043H37.5826V10H32.0496ZM40.841 10.088C40.2983 10.088 39.7703 10.0037 39.257 9.835C38.751 9.66633 38.3367 9.439 38.014 9.153L38.52 8.284C38.7767 8.526 39.1103 8.724 39.521 8.878C39.9317 9.032 40.3717 9.109 40.841 9.109C41.413 9.109 41.8567 8.988 42.172 8.746C42.4947 8.49667 42.656 8.163 42.656 7.745C42.656 7.34167 42.502 7.019 42.194 6.777C41.8933 6.52767 41.413 6.403 40.753 6.403H40.137V5.633L42.425 2.817L42.579 3.257H38.366V2.3H43.448V3.048L41.171 5.853L40.599 5.512H40.962C41.8933 5.512 42.59 5.721 43.052 6.139C43.5213 6.557 43.756 7.08867 43.756 7.734C43.756 8.16667 43.6497 8.56267 43.437 8.922C43.2243 9.28133 42.9017 9.56733 42.469 9.78C42.0437 9.98533 41.501 10.088 40.841 10.088ZM47.835 7.437V6.524H50.794V7.437H47.835Z" fill="black"/>
    <path d="M56.496 8.141L56.441 6.799L60.808 2.3H62.062L58.685 5.864L58.069 6.546L56.496 8.141ZM55.528 10V2.3H56.628V10H55.528ZM60.984 10L57.827 6.326L58.564 5.512L62.271 10H60.984ZM66.7596 10V8.768L66.7046 8.537V6.436C66.7046 5.98867 66.5726 5.644 66.3086 5.402C66.052 5.15267 65.6633 5.028 65.1426 5.028C64.798 5.028 64.4606 5.08667 64.1306 5.204C63.8006 5.314 63.522 5.46433 63.2946 5.655L62.8546 4.863C63.1553 4.621 63.5146 4.43767 63.9326 4.313C64.358 4.181 64.8016 4.115 65.2636 4.115C66.063 4.115 66.679 4.30933 67.1116 4.698C67.5443 5.08667 67.7606 5.68067 67.7606 6.48V10H66.7596ZM64.8456 10.066C64.413 10.066 64.0316 9.99267 63.7016 9.846C63.379 9.69933 63.1296 9.49767 62.9536 9.241C62.7776 8.977 62.6896 8.68 62.6896 8.35C62.6896 8.03467 62.763 7.74867 62.9096 7.492C63.0636 7.23533 63.3093 7.03 63.6466 6.876C63.9913 6.722 64.4533 6.645 65.0326 6.645H66.8806V7.404H65.0766C64.5486 7.404 64.193 7.492 64.0096 7.668C63.8263 7.844 63.7346 8.05667 63.7346 8.306C63.7346 8.592 63.8483 8.823 64.0756 8.999C64.303 9.16767 64.6183 9.252 65.0216 9.252C65.4176 9.252 65.7623 9.164 66.0556 8.988C66.3563 8.812 66.5726 8.55533 66.7046 8.218L66.9136 8.944C66.7743 9.28867 66.5286 9.56367 66.1766 9.769C65.8246 9.967 65.381 10.066 64.8456 10.066ZM72.8059 10.066C72.3072 10.066 71.8562 9.956 71.4529 9.736C71.0569 9.50867 70.7415 9.175 70.5069 8.735C70.2795 8.295 70.1659 7.745 70.1659 7.085C70.1659 6.425 70.2832 5.875 70.5179 5.435C70.7599 4.995 71.0789 4.665 71.4749 4.445C71.8782 4.225 72.3219 4.115 72.8059 4.115C73.3779 4.115 73.8839 4.23967 74.3239 4.489C74.7639 4.73833 75.1122 5.08667 75.3689 5.534C75.6255 5.974 75.7539 6.491 75.7539 7.085C75.7539 7.679 75.6255 8.19967 75.3689 8.647C75.1122 9.09433 74.7639 9.44267 74.3239 9.692C73.8839 9.94133 73.3779 10.066 72.8059 10.066ZM69.7149 10V1.838H70.7709V5.721L70.6609 7.074L70.7269 8.427V10H69.7149ZM72.7179 9.142C73.0919 9.142 73.4255 9.05767 73.7189 8.889C74.0195 8.72033 74.2542 8.482 74.4229 8.174C74.5989 7.85867 74.6869 7.49567 74.6869 7.085C74.6869 6.667 74.5989 6.30767 74.4229 6.007C74.2542 5.699 74.0195 5.46067 73.7189 5.292C73.4255 5.12333 73.0919 5.039 72.7179 5.039C72.3512 5.039 72.0175 5.12333 71.7169 5.292C71.4235 5.46067 71.1889 5.699 71.0129 6.007C70.8442 6.30767 70.7599 6.667 70.7599 7.085C70.7599 7.49567 70.8442 7.85867 71.0129 8.174C71.1889 8.482 71.4235 8.72033 71.7169 8.889C72.0175 9.05767 72.3512 9.142 72.7179 9.142ZM80.8429 10.088C80.2489 10.088 79.7026 9.99267 79.2039 9.802C78.7052 9.604 78.2726 9.329 77.9059 8.977C77.5392 8.61767 77.2532 8.19967 77.0479 7.723C76.8426 7.24633 76.7399 6.722 76.7399 6.15C76.7399 5.578 76.8426 5.05367 77.0479 4.577C77.2532 4.10033 77.5392 3.686 77.9059 3.334C78.2799 2.97467 78.7162 2.69967 79.2149 2.509C79.7136 2.311 80.2636 2.212 80.8649 2.212C81.4736 2.212 82.0309 2.311 82.5369 2.509C83.0429 2.707 83.4719 3.004 83.8239 3.4L83.1419 4.082C82.8266 3.774 82.4819 3.55033 82.1079 3.411C81.7412 3.26433 81.3416 3.191 80.9089 3.191C80.4689 3.191 80.0582 3.26433 79.6769 3.411C79.3029 3.55767 78.9766 3.763 78.6979 4.027C78.4266 4.291 78.2139 4.60633 78.0599 4.973C77.9132 5.33233 77.8399 5.72467 77.8399 6.15C77.8399 6.568 77.9132 6.96033 78.0599 7.327C78.2139 7.68633 78.4266 8.00167 78.6979 8.273C78.9766 8.537 79.3029 8.74233 79.6769 8.889C80.0509 9.03567 80.4579 9.109 80.8979 9.109C81.3086 9.109 81.7009 9.04667 82.0749 8.922C82.4562 8.79 82.8082 8.57367 83.1309 8.273L83.7579 9.109C83.3766 9.43167 82.9292 9.67733 82.4159 9.846C81.9099 10.0073 81.3856 10.088 80.8429 10.088ZM82.7019 8.966V6.106H83.7579V9.109L82.7019 8.966ZM88.207 10.066C87.6203 10.066 87.0997 9.93767 86.645 9.681C86.1903 9.42433 85.831 9.07233 85.567 8.625C85.303 8.17033 85.171 7.657 85.171 7.085C85.171 6.50567 85.303 5.99233 85.567 5.545C85.831 5.09767 86.1903 4.74933 86.645 4.5C87.0997 4.24333 87.6203 4.115 88.207 4.115C88.7863 4.115 89.3033 4.24333 89.758 4.5C90.22 4.74933 90.5793 5.09767 90.836 5.545C91.1 5.985 91.232 6.49833 91.232 7.085C91.232 7.66433 91.1 8.17767 90.836 8.625C90.5793 9.07233 90.22 9.42433 89.758 9.681C89.3033 9.93767 88.7863 10.066 88.207 10.066ZM88.207 9.142C88.581 9.142 88.9147 9.05767 89.208 8.889C89.5087 8.72033 89.7433 8.482 89.912 8.174C90.0807 7.85867 90.165 7.49567 90.165 7.085C90.165 6.667 90.0807 6.30767 89.912 6.007C89.7433 5.699 89.5087 5.46067 89.208 5.292C88.9147 5.12333 88.581 5.039 88.207 5.039C87.833 5.039 87.4993 5.12333 87.206 5.292C86.9127 5.46067 86.678 5.699 86.502 6.007C86.326 6.30767 86.238 6.667 86.238 7.085C86.238 7.49567 86.326 7.85867 86.502 8.174C86.678 8.482 86.9127 8.72033 87.206 8.889C87.4993 9.05767 87.833 9.142 88.207 9.142Z" fill="#F86C1D"/>
    <g clip-path="url(#clip0_362_1849)">
        <path d="M6.5 1.21875C7.90067 1.21875 9.24398 1.77517 10.2344 2.76559C11.2248 3.75602 11.7812 5.09933 11.7812 6.5C11.7812 7.90067 11.2248 9.24398 10.2344 10.2344C9.24398 11.2248 7.90067 11.7812 6.5 11.7812C5.09933 11.7812 3.75602 11.2248 2.76559 10.2344C1.77517 9.24398 1.21875 7.90067 1.21875 6.5C1.21875 5.09933 1.77517 3.75602 2.76559 2.76559C3.75602 1.77517 5.09933 1.21875 6.5 1.21875ZM6.5 13C8.22391 13 9.87721 12.3152 11.0962 11.0962C12.3152 9.87721 13 8.22391 13 6.5C13 4.77609 12.3152 3.12279 11.0962 1.90381C9.87721 0.68482 8.22391 0 6.5 0C4.77609 0 3.12279 0.68482 1.90381 1.90381C0.68482 3.12279 0 4.77609 0 6.5C0 8.22391 0.68482 9.87721 1.90381 11.0962C3.12279 12.3152 4.77609 13 6.5 13ZM5.06289 7.93711C4.2707 7.14492 4.2707 5.85762 5.06289 5.06543C5.85508 4.27324 7.14238 4.27324 7.93457 5.06543C8.17324 5.3041 8.55918 5.3041 8.79531 5.06543C9.03145 4.82676 9.03398 4.44082 8.79531 4.20469C7.52578 2.93516 5.46914 2.93516 4.19961 4.20469C2.93008 5.47422 2.93008 7.53086 4.19961 8.80039C5.46914 10.0699 7.52578 10.0699 8.79531 8.80039C9.03398 8.56172 9.03398 8.17578 8.79531 7.93965C8.55664 7.70352 8.1707 7.70098 7.93457 7.93965C7.14238 8.73184 5.85508 8.73184 5.06289 7.93965V7.93711Z" fill="black"/>
    </g>
    <defs>
        <clipPath id="clip0_362_1849">
            <rect width="13" height="13" fill="white"/>
        </clipPath>
    </defs>
</svg>
