<svg width="15" height="19" viewBox="0 0 15 19" fill="none"
    xmlns="http://www.w3.org/2000/svg">
    <path d="M2.5 0C1.12109 0 0 1.06504 0 2.375V16.625C0 17.935 1.12109 19 2.5 19H12.5C13.8789 19 15 17.935 15 16.625V5.9375H10C9.30859 5.9375 8.75 5.40684 8.75 4.75V0H2.5ZM10 0V4.75H15L10 0ZM4.375 9.5H10.625C10.9688 9.5 11.25 9.76719 11.25 10.0938C11.25 10.4203 10.9688 10.6875 10.625 10.6875H4.375C4.03125 10.6875 3.75 10.4203 3.75 10.0938C3.75 9.76719 4.03125 9.5 4.375 9.5ZM4.375 11.875H10.625C10.9688 11.875 11.25 12.1422 11.25 12.4688C11.25 12.7953 10.9688 13.0625 10.625 13.0625H4.375C4.03125 13.0625 3.75 12.7953 3.75 12.4688C3.75 12.1422 4.03125 11.875 4.375 11.875ZM4.375 14.25H10.625C10.9688 14.25 11.25 14.5172 11.25 14.8438C11.25 15.1703 10.9688 15.4375 10.625 15.4375H4.375C4.03125 15.4375 3.75 15.1703 3.75 14.8438C3.75 14.5172 4.03125 14.25 4.375 14.25Z" fill="#F86C1D"/>
</svg>
