<svg width="178" height="66" viewBox="0 0 178 66" fill="none"
    xmlns="http://www.w3.org/2000/svg">
    <path d="M67.03 47L71.83 36.5H72.925L77.725 47H76.555L72.145 37.145H72.595L68.185 47H67.03ZM68.92 44.195L69.25 43.295H75.355L75.685 44.195H68.92ZM82.2987 47.075C81.5487 47.075 80.8737 46.905 80.2737 46.565C79.6837 46.225 79.2187 45.755 78.8787 45.155C78.5387 44.545 78.3687 43.845 78.3687 43.055C78.3687 42.255 78.5387 41.555 78.8787 40.955C79.2187 40.355 79.6837 39.89 80.2737 39.56C80.8737 39.22 81.5487 39.05 82.2987 39.05C82.9887 39.05 83.6037 39.205 84.1437 39.515C84.6937 39.825 85.1287 40.28 85.4487 40.88C85.7787 41.47 85.9437 42.195 85.9437 43.055C85.9437 43.905 85.7837 44.63 85.4637 45.23C85.1437 45.83 84.7087 46.29 84.1587 46.61C83.6187 46.92 82.9987 47.075 82.2987 47.075ZM82.3737 46.13C82.9337 46.13 83.4337 46.005 83.8737 45.755C84.3237 45.495 84.6737 45.135 84.9237 44.675C85.1837 44.205 85.3137 43.665 85.3137 43.055C85.3137 42.435 85.1837 41.895 84.9237 41.435C84.6737 40.975 84.3237 40.62 83.8737 40.37C83.4337 40.11 82.9337 39.98 82.3737 39.98C81.8237 39.98 81.3287 40.11 80.8887 40.37C80.4487 40.62 80.0987 40.975 79.8387 41.435C79.5787 41.895 79.4487 42.435 79.4487 43.055C79.4487 43.665 79.5787 44.205 79.8387 44.675C80.0987 45.135 80.4487 45.495 80.8887 45.755C81.3287 46.005 81.8237 46.13 82.3737 46.13ZM85.3437 47V44.63L85.4487 43.04L85.2987 41.45V35.87H86.3637V47H85.3437ZM99.1697 39.05C99.8097 39.05 100.365 39.175 100.835 39.425C101.315 39.665 101.685 40.035 101.945 40.535C102.215 41.035 102.35 41.665 102.35 42.425V47H101.285V42.53C101.285 41.7 101.085 41.075 100.685 40.655C100.295 40.225 99.7397 40.01 99.0197 40.01C98.4797 40.01 98.0097 40.125 97.6097 40.355C97.2197 40.575 96.9147 40.9 96.6947 41.33C96.4847 41.75 96.3797 42.26 96.3797 42.86V47H95.3147V42.53C95.3147 41.7 95.1147 41.075 94.7147 40.655C94.3147 40.225 93.7547 40.01 93.0347 40.01C92.5047 40.01 92.0397 40.125 91.6397 40.355C91.2397 40.575 90.9297 40.9 90.7097 41.33C90.4997 41.75 90.3947 42.26 90.3947 42.86V47H89.3297V39.125H90.3497V41.255L90.1847 40.88C90.4247 40.31 90.8097 39.865 91.3397 39.545C91.8797 39.215 92.5147 39.05 93.2447 39.05C94.0147 39.05 94.6697 39.245 95.2097 39.635C95.7497 40.015 96.0997 40.59 96.2597 41.36L95.8397 41.195C96.0697 40.555 96.4747 40.04 97.0547 39.65C97.6447 39.25 98.3497 39.05 99.1697 39.05ZM105.238 47V39.125H106.303V47H105.238ZM105.778 37.385C105.558 37.385 105.373 37.31 105.223 37.16C105.073 37.01 104.998 36.83 104.998 36.62C104.998 36.41 105.073 36.235 105.223 36.095C105.373 35.945 105.558 35.87 105.778 35.87C105.998 35.87 106.183 35.94 106.333 36.08C106.483 36.22 106.558 36.395 106.558 36.605C106.558 36.825 106.483 37.01 106.333 37.16C106.193 37.31 106.008 37.385 105.778 37.385ZM113.286 39.05C113.926 39.05 114.486 39.175 114.966 39.425C115.456 39.665 115.836 40.035 116.106 40.535C116.386 41.035 116.526 41.665 116.526 42.425V47H115.461V42.53C115.461 41.7 115.251 41.075 114.831 40.655C114.421 40.225 113.841 40.01 113.091 40.01C112.531 40.01 112.041 40.125 111.621 40.355C111.211 40.575 110.891 40.9 110.661 41.33C110.441 41.75 110.331 42.26 110.331 42.86V47H109.266V39.125H110.286V41.285L110.121 40.88C110.371 40.31 110.771 39.865 111.321 39.545C111.871 39.215 112.526 39.05 113.286 39.05ZM119.403 47V39.125H120.468V47H119.403ZM119.943 37.385C119.723 37.385 119.538 37.31 119.388 37.16C119.238 37.01 119.163 36.83 119.163 36.62C119.163 36.41 119.238 36.235 119.388 36.095C119.538 35.945 119.723 35.87 119.943 35.87C120.163 35.87 120.348 35.94 120.498 36.08C120.648 36.22 120.723 36.395 120.723 36.605C120.723 36.825 120.648 37.01 120.498 37.16C120.358 37.31 120.173 37.385 119.943 37.385ZM125.546 47.075C124.896 47.075 124.281 46.985 123.701 46.805C123.121 46.615 122.666 46.38 122.336 46.1L122.816 45.26C123.136 45.5 123.546 45.71 124.046 45.89C124.546 46.06 125.071 46.145 125.621 46.145C126.371 46.145 126.911 46.03 127.241 45.8C127.571 45.56 127.736 45.245 127.736 44.855C127.736 44.565 127.641 44.34 127.451 44.18C127.271 44.01 127.031 43.885 126.731 43.805C126.431 43.715 126.096 43.64 125.726 43.58C125.356 43.52 124.986 43.45 124.616 43.37C124.256 43.29 123.926 43.175 123.626 43.025C123.326 42.865 123.081 42.65 122.891 42.38C122.711 42.11 122.621 41.75 122.621 41.3C122.621 40.87 122.741 40.485 122.981 40.145C123.221 39.805 123.571 39.54 124.031 39.35C124.501 39.15 125.071 39.05 125.741 39.05C126.251 39.05 126.761 39.12 127.271 39.26C127.781 39.39 128.201 39.565 128.531 39.785L128.066 40.64C127.716 40.4 127.341 40.23 126.941 40.13C126.541 40.02 126.141 39.965 125.741 39.965C125.031 39.965 124.506 40.09 124.166 40.34C123.836 40.58 123.671 40.89 123.671 41.27C123.671 41.57 123.761 41.805 123.941 41.975C124.131 42.145 124.376 42.28 124.676 42.38C124.986 42.47 125.321 42.545 125.681 42.605C126.051 42.665 126.416 42.74 126.776 42.83C127.146 42.91 127.481 43.025 127.781 43.175C128.091 43.315 128.336 43.52 128.516 43.79C128.706 44.05 128.801 44.395 128.801 44.825C128.801 45.285 128.671 45.685 128.411 46.025C128.161 46.355 127.791 46.615 127.301 46.805C126.821 46.985 126.236 47.075 125.546 47.075ZM133.246 47.075C132.506 47.075 131.936 46.875 131.536 46.475C131.136 46.075 130.936 45.51 130.936 44.78V37.385H132.001V44.72C132.001 45.18 132.116 45.535 132.346 45.785C132.586 46.035 132.926 46.16 133.366 46.16C133.836 46.16 134.226 46.025 134.536 45.755L134.911 46.52C134.701 46.71 134.446 46.85 134.146 46.94C133.856 47.03 133.556 47.075 133.246 47.075ZM129.526 40.01V39.125H134.401V40.01H129.526ZM136.849 47V39.125H137.869V41.27L137.764 40.895C137.984 40.295 138.354 39.84 138.874 39.53C139.394 39.21 140.039 39.05 140.809 39.05V40.085C140.769 40.085 140.729 40.085 140.689 40.085C140.649 40.075 140.609 40.07 140.569 40.07C139.739 40.07 139.089 40.325 138.619 40.835C138.149 41.335 137.914 42.05 137.914 42.98V47H136.849ZM147.102 47V45.26L147.057 44.975V42.065C147.057 41.395 146.867 40.88 146.487 40.52C146.117 40.16 145.562 39.98 144.822 39.98C144.312 39.98 143.827 40.065 143.367 40.235C142.907 40.405 142.517 40.63 142.197 40.91L141.717 40.115C142.117 39.775 142.597 39.515 143.157 39.335C143.717 39.145 144.307 39.05 144.927 39.05C145.947 39.05 146.732 39.305 147.282 39.815C147.842 40.315 148.122 41.08 148.122 42.11V47H147.102ZM144.387 47.075C143.797 47.075 143.282 46.98 142.842 46.79C142.412 46.59 142.082 46.32 141.852 45.98C141.622 45.63 141.507 45.23 141.507 44.78C141.507 44.37 141.602 44 141.792 43.67C141.992 43.33 142.312 43.06 142.752 42.86C143.202 42.65 143.802 42.545 144.552 42.545H147.267V43.34H144.582C143.822 43.34 143.292 43.475 142.992 43.745C142.702 44.015 142.557 44.35 142.557 44.75C142.557 45.2 142.732 45.56 143.082 45.83C143.432 46.1 143.922 46.235 144.552 46.235C145.152 46.235 145.667 46.1 146.097 45.83C146.537 45.55 146.857 45.15 147.057 44.63L147.297 45.365C147.097 45.885 146.747 46.3 146.247 46.61C145.757 46.92 145.137 47.075 144.387 47.075ZM153.504 47.075C152.764 47.075 152.194 46.875 151.794 46.475C151.394 46.075 151.194 45.51 151.194 44.78V37.385H152.259V44.72C152.259 45.18 152.374 45.535 152.604 45.785C152.844 46.035 153.184 46.16 153.624 46.16C154.094 46.16 154.484 46.025 154.794 45.755L155.169 46.52C154.959 46.71 154.704 46.85 154.404 46.94C154.114 47.03 153.814 47.075 153.504 47.075ZM149.784 40.01V39.125H154.659V40.01H149.784ZM157.108 47V39.125H158.173V47H157.108ZM157.648 37.385C157.428 37.385 157.243 37.31 157.093 37.16C156.943 37.01 156.868 36.83 156.868 36.62C156.868 36.41 156.943 36.235 157.093 36.095C157.243 35.945 157.428 35.87 157.648 35.87C157.868 35.87 158.053 35.94 158.203 36.08C158.353 36.22 158.428 36.395 158.428 36.605C158.428 36.825 158.353 37.01 158.203 37.16C158.063 37.31 157.878 37.385 157.648 37.385ZM164.346 47.075C163.586 47.075 162.901 46.905 162.291 46.565C161.691 46.215 161.216 45.74 160.866 45.14C160.516 44.53 160.341 43.835 160.341 43.055C160.341 42.265 160.516 41.57 160.866 40.97C161.216 40.37 161.691 39.9 162.291 39.56C162.891 39.22 163.576 39.05 164.346 39.05C165.126 39.05 165.816 39.22 166.416 39.56C167.026 39.9 167.501 40.37 167.841 40.97C168.191 41.57 168.366 42.265 168.366 43.055C168.366 43.835 168.191 44.53 167.841 45.14C167.501 45.74 167.026 46.215 166.416 46.565C165.806 46.905 165.116 47.075 164.346 47.075ZM164.346 46.13C164.916 46.13 165.421 46.005 165.861 45.755C166.301 45.495 166.646 45.135 166.896 44.675C167.156 44.205 167.286 43.665 167.286 43.055C167.286 42.435 167.156 41.895 166.896 41.435C166.646 40.975 166.301 40.62 165.861 40.37C165.421 40.11 164.921 39.98 164.361 39.98C163.801 39.98 163.301 40.11 162.861 40.37C162.421 40.62 162.071 40.975 161.811 41.435C161.551 41.895 161.421 42.435 161.421 43.055C161.421 43.665 161.551 44.205 161.811 44.675C162.071 45.135 162.421 45.495 162.861 45.755C163.301 46.005 163.796 46.13 164.346 46.13ZM174.561 39.05C175.201 39.05 175.761 39.175 176.241 39.425C176.731 39.665 177.111 40.035 177.381 40.535C177.661 41.035 177.801 41.665 177.801 42.425V47H176.736V42.53C176.736 41.7 176.526 41.075 176.106 40.655C175.696 40.225 175.116 40.01 174.366 40.01C173.806 40.01 173.316 40.125 172.896 40.355C172.486 40.575 172.166 40.9 171.936 41.33C171.716 41.75 171.606 42.26 171.606 42.86V47H170.541V39.125H171.561V41.285L171.396 40.88C171.646 40.31 172.046 39.865 172.596 39.545C173.146 39.215 173.801 39.05 174.561 39.05Z" fill="#F86C1D"/>
    <path fill-rule="evenodd" clip-rule="evenodd" d="M0 0H8.55789C11.3193 0 13.5579 2.23858 13.5579 5V21.5194C16.8923 12.0479 25.9185 5.25913 36.5303 5.25913H44.8C44.8 10.7429 42.9871 15.8032 39.928 19.8735C38.2245 18.7617 36.185 18.1148 33.993 18.1148C28.0244 18.1148 23.186 22.9112 23.186 28.8278C23.186 34.7445 28.0244 39.5409 33.993 39.5409C39.9615 39.5409 44.8 34.7445 44.8 28.8278C44.8 28.2308 44.7507 27.6452 44.656 27.0748H52.986C54.6506 27.0748 56 28.4242 56 30.0888C56 41.9787 46.1729 51.6174 34.283 51.6174C24.8526 51.6174 16.6973 45.6591 13.5579 37.3018V41.76C13.5579 48.3874 8.18531 53.76 1.55789 53.76H0V0ZM41.4596 27.2696V27.5942C41.4596 31.7179 38.1167 35.0609 33.993 35.0609C29.8693 35.0609 26.5263 31.7179 26.5263 27.5942V27.2696H41.4596Z" fill="#F86C1D"/>
    <path d="M71.472 23.16L71.256 18.672L79.296 10.2H83.616L76.368 18L74.208 20.304L71.472 23.16ZM67.992 27V10.2H71.856V27H67.992ZM79.488 27L73.512 19.68L76.056 16.92L84.024 27H79.488ZM93.1324 27V24.48L92.8924 23.928V19.416C92.8924 18.616 92.6444 17.992 92.1484 17.544C91.6684 17.096 90.9244 16.872 89.9164 16.872C89.2284 16.872 88.5484 16.984 87.8764 17.208C87.2204 17.416 86.6604 17.704 86.1964 18.072L84.8524 15.456C85.5564 14.96 86.4044 14.576 87.3964 14.304C88.3884 14.032 89.3964 13.896 90.4204 13.896C92.3884 13.896 93.9164 14.36 95.0044 15.288C96.0924 16.216 96.6364 17.664 96.6364 19.632V27H93.1324ZM89.1964 27.192C88.1884 27.192 87.3244 27.024 86.6044 26.688C85.8844 26.336 85.3324 25.864 84.9484 25.272C84.5644 24.68 84.3724 24.016 84.3724 23.28C84.3724 22.512 84.5564 21.84 84.9244 21.264C85.3084 20.688 85.9084 20.24 86.7244 19.92C87.5404 19.584 88.6044 19.416 89.9164 19.416H93.3484V21.6H90.3244C89.4444 21.6 88.8364 21.744 88.5004 22.032C88.1804 22.32 88.0204 22.68 88.0204 23.112C88.0204 23.592 88.2044 23.976 88.5724 24.264C88.9564 24.536 89.4764 24.672 90.1324 24.672C90.7564 24.672 91.3164 24.528 91.8124 24.24C92.3084 23.936 92.6684 23.496 92.8924 22.92L93.4684 24.648C93.1964 25.48 92.7004 26.112 91.9804 26.544C91.2604 26.976 90.3324 27.192 89.1964 27.192ZM107.657 27.192C106.521 27.192 105.545 26.952 104.729 26.472C103.913 25.992 103.289 25.264 102.857 24.288C102.425 23.296 102.209 22.048 102.209 20.544C102.209 19.024 102.433 17.776 102.881 16.8C103.345 15.824 103.985 15.096 104.801 14.616C105.617 14.136 106.569 13.896 107.657 13.896C108.873 13.896 109.961 14.168 110.921 14.712C111.897 15.256 112.665 16.024 113.225 17.016C113.801 18.008 114.089 19.184 114.089 20.544C114.089 21.888 113.801 23.056 113.225 24.048C112.665 25.04 111.897 25.816 110.921 26.376C109.961 26.92 108.873 27.192 107.657 27.192ZM100.025 27V9.192H103.769V16.704L103.529 20.52L103.601 24.36V27H100.025ZM107.009 24.12C107.633 24.12 108.185 23.976 108.665 23.688C109.161 23.4 109.553 22.992 109.841 22.464C110.145 21.92 110.297 21.28 110.297 20.544C110.297 19.792 110.145 19.152 109.841 18.624C109.553 18.096 109.161 17.688 108.665 17.4C108.185 17.112 107.633 16.968 107.009 16.968C106.385 16.968 105.825 17.112 105.329 17.4C104.833 17.688 104.441 18.096 104.153 18.624C103.865 19.152 103.721 19.792 103.721 20.544C103.721 21.28 103.865 21.92 104.153 22.464C104.441 22.992 104.833 23.4 105.329 23.688C105.825 23.976 106.385 24.12 107.009 24.12ZM124.971 27.288C123.643 27.288 122.419 27.08 121.299 26.664C120.195 26.232 119.227 25.624 118.395 24.84C117.579 24.056 116.939 23.136 116.475 22.08C116.027 21.024 115.803 19.864 115.803 18.6C115.803 17.336 116.027 16.176 116.475 15.12C116.939 14.064 117.587 13.144 118.419 12.36C119.251 11.576 120.227 10.976 121.347 10.56C122.467 10.128 123.699 9.912 125.043 9.912C126.531 9.912 127.867 10.16 129.051 10.656C130.251 11.152 131.259 11.872 132.075 12.816L129.579 15.12C128.971 14.48 128.307 14.008 127.587 13.704C126.867 13.384 126.083 13.224 125.235 13.224C124.419 13.224 123.675 13.352 123.003 13.608C122.331 13.864 121.747 14.232 121.251 14.712C120.771 15.192 120.395 15.76 120.123 16.416C119.867 17.072 119.739 17.8 119.739 18.6C119.739 19.384 119.867 20.104 120.123 20.76C120.395 21.416 120.771 21.992 121.251 22.488C121.747 22.968 122.323 23.336 122.979 23.592C123.651 23.848 124.387 23.976 125.187 23.976C125.955 23.976 126.699 23.856 127.419 23.616C128.155 23.36 128.867 22.936 129.555 22.344L131.763 25.152C130.851 25.84 129.787 26.368 128.571 26.736C127.371 27.104 126.171 27.288 124.971 27.288ZM128.211 24.648V18.336H131.763V25.152L128.211 24.648ZM141.255 27.192C139.879 27.192 138.655 26.904 137.583 26.328C136.527 25.752 135.687 24.968 135.063 23.976C134.455 22.968 134.151 21.824 134.151 20.544C134.151 19.248 134.455 18.104 135.063 17.112C135.687 16.104 136.527 15.32 137.583 14.76C138.655 14.184 139.879 13.896 141.255 13.896C142.615 13.896 143.831 14.184 144.903 14.76C145.975 15.32 146.815 16.096 147.423 17.088C148.031 18.08 148.335 19.232 148.335 20.544C148.335 21.824 148.031 22.968 147.423 23.976C146.815 24.968 145.975 25.752 144.903 26.328C143.831 26.904 142.615 27.192 141.255 27.192ZM141.255 24.12C141.879 24.12 142.439 23.976 142.935 23.688C143.431 23.4 143.823 22.992 144.111 22.464C144.399 21.92 144.543 21.28 144.543 20.544C144.543 19.792 144.399 19.152 144.111 18.624C143.823 18.096 143.431 17.688 142.935 17.4C142.439 17.112 141.879 16.968 141.255 16.968C140.631 16.968 140.071 17.112 139.575 17.4C139.079 17.688 138.679 18.096 138.375 18.624C138.087 19.152 137.943 19.792 137.943 20.544C137.943 21.28 138.087 21.92 138.375 22.464C138.679 22.992 139.079 23.4 139.575 23.688C140.071 23.976 140.631 24.12 141.255 24.12Z" fill="#F86C1D"/>
</svg>
