<svg width="20" height="17" viewBox="0 0 20 17" fill="none"
    xmlns="http://www.w3.org/2000/svg">
    <g clip-path="url(#clip0_362_1835)">
        <path d="M18.7797 1.20196C18.9955 1.35137 19.125 1.59708 19.125 1.85938V13.0156C19.125 13.3477 18.9191 13.6432 18.6104 13.7594L13.0322 15.8844C12.8596 15.9508 12.6703 15.9541 12.4977 15.8943L6.3916 13.8623L1.0791 15.8877C0.833398 15.9807 0.557813 15.9475 0.341992 15.7981C0.126172 15.6486 0 15.4029 0 15.1406V3.98438C0 3.65235 0.202539 3.35684 0.514648 3.24063L6.09277 1.11563C6.26543 1.04923 6.45469 1.04591 6.62734 1.10567L12.7334 3.1377L18.0459 1.11231C18.2916 1.01934 18.5672 1.05255 18.783 1.20196H18.7797ZM1.59375 4.53223V13.9852L5.57812 12.4678V3.01485L1.59375 4.53223ZM11.9531 14.035V4.5588L7.17188 2.96505V12.4412L11.9531 14.035ZM13.5469 13.9852L17.5312 12.4678V3.01485L13.5469 4.53223V13.9852Z" fill="#545454"/>
    </g>
    <defs>
        <clipPath id="clip0_362_1835">
            <rect width="19.125" height="17" fill="white"/>
        </clipPath>
    </defs>
</svg>
