<svg width="20" height="15" viewBox="0 0 20 15" fill="none"
    xmlns="http://www.w3.org/2000/svg">
    <path d="M18.7797 0.20196C18.9955 0.351374 19.125 0.597077 19.125 0.859382V12.0156C19.125 12.3477 18.9191 12.6432 18.6104 12.7594L13.0322 14.8844C12.8596 14.9508 12.6703 14.9541 12.4977 14.8943L6.3916 12.8623L1.0791 14.8877C0.833398 14.9807 0.557813 14.9475 0.341992 14.7981C0.126172 14.6486 0 14.4029 0 14.1406V2.98438C0 2.65235 0.202539 2.35684 0.514648 2.24063L6.09277 0.115632C6.26543 0.0492256 6.45469 0.0459053 6.62734 0.105671L12.7334 2.1377L18.0459 0.112312C18.2916 0.0193428 18.5672 0.052546 18.783 0.20196H18.7797ZM1.59375 3.53223V12.9852L5.57812 11.4678V2.01485L1.59375 3.53223ZM11.9531 13.035V3.5588L7.17188 1.96505V11.4412L11.9531 13.035ZM13.5469 12.9852L17.5312 11.4678V2.01485L13.5469 3.53223V12.9852Z" fill="#F86C1D"/>
</svg>
