<svg width="19" height="19" viewBox="0 0 19 19" fill="none"
    xmlns="http://www.w3.org/2000/svg">
    <path fill-rule="evenodd" clip-rule="evenodd" d="M1.5 -0.0512066C0.671573 -0.0512066 0 0.620367 0 1.44879V6.76129C0 7.58972 0.671573 8.26129 1.5 8.26129H6.8125C7.64093 8.26129 8.3125 7.58972 8.3125 6.76129V1.44879C8.3125 0.620366 7.64093 -0.0512066 6.8125 -0.0512066H1.5ZM11.8219 -0.0512066C10.9935 -0.0512066 10.3219 0.620367 10.3219 1.44879V6.76129C10.3219 7.58972 10.9935 8.26129 11.8219 8.26129H17.1344C17.9628 8.26129 18.6344 7.58972 18.6344 6.76129V1.44879C18.6344 0.620366 17.9628 -0.0512066 17.1344 -0.0512066H11.8219ZM12.3766 12.0637L11.9178 13.375H17.0822L16.6234 12.0637C16.5443 11.8387 16.3316 11.6875 16.0926 11.6875H12.9074C12.6684 11.6875 12.4557 11.8387 12.3766 12.0637ZM10.6961 13.4594L11.3148 11.6928C11.5521 11.016 12.1902 10.5625 12.9074 10.5625H16.0926C16.8098 10.5625 17.4479 11.016 17.6852 11.6928L18.3039 13.4594C18.7117 13.6281 19 14.0307 19 14.5V17.0313V17.875C19 18.1861 18.7486 18.4375 18.4375 18.4375H17.875C17.5639 18.4375 17.3125 18.1861 17.3125 17.875V17.0313H11.6875V17.875C11.6875 18.1861 11.4361 18.4375 11.125 18.4375H10.5625C10.2514 18.4375 10 18.1861 10 17.875V17.0313V14.5C10 14.0307 10.2883 13.6281 10.6961 13.4594ZM12.25 15.0625C12.25 14.9133 12.1907 14.7702 12.0852 14.6648C11.9798 14.5593 11.8367 14.5 11.6875 14.5C11.5383 14.5 11.3952 14.5593 11.2898 14.6648C11.1843 14.7702 11.125 14.9133 11.125 15.0625C11.125 15.2117 11.1843 15.3548 11.2898 15.4602C11.3952 15.5657 11.5383 15.625 11.6875 15.625C11.8367 15.625 11.9798 15.5657 12.0852 15.4602C12.1907 15.3548 12.25 15.2117 12.25 15.0625ZM17.3125 15.625C17.4617 15.625 17.6048 15.5657 17.7102 15.4602C17.8157 15.3548 17.875 15.2117 17.875 15.0625C17.875 14.9133 17.8157 14.7702 17.7102 14.6648C17.6048 14.5593 17.4617 14.5 17.3125 14.5C17.1633 14.5 17.0202 14.5593 16.9148 14.6648C16.8093 14.7702 16.75 14.9133 16.75 15.0625C16.75 15.2117 16.8093 15.3548 16.9148 15.4602C17.0202 15.5657 17.1633 15.625 17.3125 15.625ZM1.5 10.326C0.671573 10.326 0 10.9976 0 11.826V17.1385C0 17.967 0.671573 18.6385 1.5 18.6385H6.8125C7.64093 18.6385 8.3125 17.967 8.3125 17.1385V11.826C8.3125 10.9976 7.64093 10.326 6.8125 10.326H1.5Z" fill="#545454"/>
</svg>
