<svg width="19" height="19" viewBox="0 0 19 19" fill="none"
    xmlns="http://www.w3.org/2000/svg">
    <g clip-path="url(#clip0_362_1815)">
        <path d="M10.0472 18.81H8.9699C8.5025 18.81 8.0636 18.6048 7.7349 18.2305C7.4955 17.9569 7.3131 17.594 7.2238 17.2064L6.96919 16.1918C6.82289 16.1367 6.67659 16.0759 6.53409 16.0094L5.62399 16.5889C5.28769 16.8169 4.86019 16.948 4.44599 16.948C3.96149 16.948 3.51689 16.7713 3.19959 16.4521L2.43769 15.6902C1.76699 15.0195 1.90379 14.0182 2.33699 13.3209L2.93359 12.3253C2.89939 12.2455 2.86519 12.1657 2.83479 12.0859L1.79549 11.8256C1.40789 11.7344 1.04499 11.5539 0.771395 11.3145C0.397094 10.9858 0.191895 10.5469 0.191895 10.0795V9.0022C0.191895 8.5424 0.387595 8.0997 0.740995 7.7539C1.03549 7.4651 1.41549 7.2675 1.81069 7.1915L2.81009 6.9692C2.84809 6.8704 2.88989 6.7716 2.93359 6.6709L2.33509 5.681C2.12419 5.3428 1.99689 4.9571 1.97219 4.5942C1.93989 4.0983 2.10329 3.6423 2.43389 3.3117L3.19769 2.5498C3.51689 2.2306 3.95959 2.0558 4.44409 2.0558C4.85829 2.0558 5.28769 2.1869 5.62209 2.4149L6.5303 2.9925C6.6728 2.9279 6.81529 2.8671 6.95969 2.812L7.2143 1.7936C7.3055 1.406 7.486 1.0431 7.7273 0.769502C8.056 0.395202 8.4949 0.190002 8.9604 0.190002H10.0377C10.4975 0.190002 10.9402 0.385702 11.286 0.739103C11.5729 1.0336 11.7724 1.4136 11.8484 1.8088L12.0726 2.8272C12.1904 2.8728 12.3082 2.9222 12.4241 2.9754L13.3038 2.4149C13.6401 2.1869 14.0676 2.0558 14.4837 2.0558C14.9701 2.0558 15.4128 2.2325 15.7301 2.5517L16.492 3.3136C17.1646 3.9862 17.0259 4.9875 16.5927 5.6848L16.0379 6.6082C16.093 6.7317 16.1443 6.8552 16.1918 6.9768L17.1874 7.1972C17.5845 7.2713 17.9645 7.4708 18.259 7.7596C18.6124 8.1054 18.8081 8.5481 18.8081 9.0079V10.0871C18.8081 10.5545 18.6029 10.9934 18.2286 11.3221C17.955 11.5615 17.5921 11.7439 17.2045 11.8332L16.1652 12.0935C16.1253 12.1961 16.0816 12.2987 16.036 12.4013L16.5927 13.3285C17.0278 14.0258 17.1646 15.0271 16.492 15.6978L15.7301 16.454C15.4109 16.7732 14.9682 16.948 14.4837 16.948C14.0695 16.948 13.642 16.8169 13.3057 16.5889L12.4222 16.0265C12.3101 16.0778 12.1961 16.1253 12.0821 16.169L11.856 17.1912C11.7819 17.5864 11.5824 17.9664 11.2955 18.2609C10.9497 18.6143 10.507 18.81 10.0472 18.81ZM6.45809 14.4267L6.81149 14.6129C7.11549 14.7744 7.4328 14.9074 7.7539 15.01L8.11869 15.1259L8.55949 16.891C8.61079 17.1171 8.77229 17.4344 8.96799 17.4344H10.0453C10.2543 17.4344 10.4633 17.1646 10.5051 16.9328L10.5108 16.9043L10.9079 15.1183L11.2822 14.9967C11.5729 14.9036 11.8655 14.7801 12.1543 14.6319L12.5058 14.4514L14.0771 15.4527C14.1873 15.5287 14.3431 15.5762 14.4837 15.5762C14.5673 15.5762 14.6813 15.561 14.7573 15.485L15.5211 14.7231C15.6598 14.5844 15.5477 14.2481 15.4242 14.0524L15.4166 14.041L14.4723 12.4659L14.6452 12.1277C14.7839 11.8541 14.8998 11.5767 14.991 11.3012L15.1088 10.9421L16.8891 10.4975C17.1152 10.4462 17.4325 10.2847 17.4325 10.0909V9.006C17.4325 8.797 17.1608 8.5861 16.9271 8.5443L16.9005 8.5386L15.1316 8.1453L15.0119 7.7672C14.9207 7.4765 14.801 7.1877 14.6433 6.8818L14.4685 6.5417L15.4204 4.9552C15.5439 4.7595 15.6541 4.4213 15.5154 4.2826L14.7535 3.5207C14.6775 3.4447 14.5635 3.4276 14.4799 3.4276C14.3374 3.4276 14.1816 3.4751 14.0714 3.5511L14.0486 3.5663L12.502 4.5524L12.1505 4.37C11.8636 4.2199 11.5672 4.0964 11.2689 3.9995L10.8946 3.8779L10.4956 2.0672C10.4538 1.8335 10.2429 1.5618 10.0358 1.5618H8.95849C8.76279 1.5618 8.60319 1.881 8.54999 2.1071L8.54619 2.1185L8.11109 3.876L7.7463 3.9919C7.4271 4.0926 7.11169 4.2256 6.80769 4.3871L6.4543 4.5733L4.85259 3.553C4.74429 3.477 4.58849 3.4314 4.44599 3.4314C4.36239 3.4314 4.24649 3.4466 4.17049 3.5245L3.40859 4.2864C3.27179 4.4251 3.38199 4.7633 3.50549 4.9609L3.51309 4.9723L4.49349 6.6063L4.32629 6.9426C4.17999 7.2371 4.06979 7.5088 3.98619 7.771L3.86649 8.1491L2.06909 8.5462C1.83539 8.588 1.56559 8.7989 1.56559 9.006V10.0833C1.56559 10.279 1.88289 10.4386 2.10899 10.4918L2.12229 10.4956L3.89119 10.9383L4.00899 11.2993C4.09069 11.5501 4.19519 11.8009 4.32629 12.065L4.49349 12.4013L3.50549 14.0486C3.38199 14.2443 3.27179 14.5825 3.40859 14.7212L4.17049 15.485C4.24649 15.561 4.36239 15.5762 4.44599 15.5762C4.58849 15.5762 4.74429 15.5287 4.85449 15.4527L4.87539 15.4375L6.45809 14.4267Z" fill="#F86C1D"/>
        <path d="M9.49999 6.1978C7.67599 6.1978 6.19019 7.6798 6.19019 9.5C6.19019 11.3202 7.67409 12.8022 9.49999 12.8022C11.324 12.8022 12.8079 11.3202 12.8079 9.5C12.8079 7.6798 11.3259 6.1978 9.49999 6.1978ZM9.49999 11.4893C8.40369 11.4893 7.51069 10.5963 7.51069 9.5C7.51069 8.4037 8.40369 7.5107 9.49999 7.5107C10.5963 7.5107 11.4874 8.4037 11.4874 9.5C11.4893 10.5963 10.5963 11.4893 9.49999 11.4893Z" fill="#F86C1D"/>
    </g>
    <defs>
        <clipPath id="clip0_362_1815">
            <rect width="19" height="19" fill="white"/>
        </clipPath>
    </defs>
</svg>
