<svg width="19" height="19" viewBox="0 0 19 19" fill="none"
    xmlns="http://www.w3.org/2000/svg">
    <g clip-path="url(#clip0_362_1839)">
        <path d="M16.625 9.5C16.625 5.56641 13.4336 2.375 9.5 2.375V16.625C13.4336 16.625 16.625 13.4336 16.625 9.5ZM0 9.5C0 6.98044 1.00089 4.56408 2.78249 2.78249C4.56408 1.00089 6.98044 0 9.5 0C12.0196 0 14.4359 1.00089 16.2175 2.78249C17.9991 4.56408 19 6.98044 19 9.5C19 12.0196 17.9991 14.4359 16.2175 16.2175C14.4359 17.9991 12.0196 19 9.5 19C6.98044 19 4.56408 17.9991 2.78249 16.2175C1.00089 14.4359 0 12.0196 0 9.5Z" fill="#545454"/>
    </g>
    <defs>
        <clipPath id="clip0_362_1839">
            <rect width="19" height="19" fill="white"/>
        </clipPath>
    </defs>
</svg>
