<svg width="30" height="29" viewBox="0 0 20 19" fill="none"
    xmlns="http://www.w3.org/2000/svg">
    <path d="M15.0313 3.5625C15.5037 3.5625 15.9568 3.37483 16.2908 3.04078C16.6248 2.70673 16.8125 2.25367 16.8125 1.78125C16.8125 1.30883 16.6248 0.855765 16.2908 0.521716C15.9568 0.187667 15.5037 0 15.0313 0C14.5588 0 14.1058 0.187667 13.7717 0.521716C13.4377 0.855765 13.25 1.30883 13.25 1.78125C13.25 2.25367 13.4377 2.70673 13.7717 3.04078C14.1058 3.37483 14.5588 3.5625 15.0313 3.5625ZM11.9029 7.44043C11.9401 7.42559 11.9735 7.41074 12.0106 7.3959L11.3834 9.75234C11.1756 10.5354 11.3797 11.3703 11.9289 11.9678L14.5526 14.8289L15.369 18.0982C15.5285 18.7328 16.1742 19.1225 16.8088 18.9629C17.4434 18.8033 17.833 18.1576 17.6735 17.523L16.8199 14.1053C16.7494 13.8158 16.6047 13.5523 16.4043 13.3334L14.5674 11.3295L15.2836 8.89883L15.6399 9.75234C15.8031 10.1457 16.1037 10.4686 16.486 10.6615L17.4768 11.1551C18.0631 11.4482 18.7756 11.2107 19.0688 10.6244C19.3619 10.0381 19.1244 9.32559 18.5381 9.03242L17.7402 8.63535L17.1725 7.26973C16.5342 5.74453 15.0424 4.75 13.3873 4.75C12.5412 4.75 11.7063 4.92812 10.9344 5.26953L10.6375 5.39941C9.41662 5.94121 8.48146 6.97285 8.06212 8.23828L7.96564 8.52773C7.75783 9.15117 8.09552 9.82285 8.71525 10.0307C9.33498 10.2385 10.0104 9.90078 10.2182 9.28105L10.3147 8.9916C10.5262 8.35703 10.9938 7.84492 11.6024 7.57402L11.8992 7.44414L11.9029 7.44043ZM10.7897 12.4539L9.86193 14.7695L7.65763 16.9738C7.19377 17.4377 7.19377 18.191 7.65763 18.6549C8.1215 19.1187 8.87482 19.1187 9.33869 18.6549L11.6283 16.3652C11.799 16.1945 11.9326 15.9904 12.0217 15.7678L12.5598 14.4244L11.0494 12.7768C10.9567 12.6766 10.8713 12.5689 10.7897 12.4576V12.4539ZM8.50002 10.1717C8.21427 10.0084 7.85431 10.1049 7.68732 10.3906L6.49982 12.4465L4.48107 11.2812C3.9133 10.9547 3.18595 11.1477 2.85939 11.7154L0.48439 15.8309C0.157828 16.3986 0.350796 17.126 0.91857 17.4525L2.97443 18.64C3.5422 18.9666 4.26955 18.7736 4.59611 18.2059L6.97111 14.0904C7.02677 13.9939 7.06759 13.8975 7.09357 13.7936L8.71896 10.9844C8.88224 10.6986 8.78576 10.3387 8.50002 10.1717Z" fill="#545454"/>
</svg>
