<svg width="35" height="35" viewBox="0 0 35 35" fill="none"
    xmlns="http://www.w3.org/2000/svg">
    <g clip-path="url(#clip0_455_2046)">
        <rect x="0.554413" y="0.322784" width="33.8912" height="34.17" rx="5" fill="#F5F5F5"/>
        <path d="M10.7027 17.2116C10.2547 17.6717 10.2547 18.4188 10.7027 18.8789L16.4365 24.768C16.8844 25.2281 17.6119 25.2281 18.0599 24.768C18.5078 24.3079 18.5078 23.5607 18.0599 23.1006L14.2791 19.2212H25.2737C25.908 19.2212 26.4204 18.6949 26.4204 18.0434C26.4204 17.3919 25.908 16.8656 25.2737 16.8656H14.2827L18.0563 12.9862C18.5042 12.5261 18.5042 11.7789 18.0563 11.3188C17.6083 10.8587 16.8809 10.8587 16.4329 11.3188L10.6991 17.2079L10.7027 17.2116Z" fill="#515151"/>
    </g>
    <defs>
        <clipPath id="clip0_455_2046">
            <rect width="35" height="35" fill="white"/>
        </clipPath>
    </defs>
</svg>
