<svg width="35" height="35" viewBox="0 0 35 35" fill="none"
    xmlns="http://www.w3.org/2000/svg">
    <g clip-path="url(#clip0_455_2043)">
        <rect x="0.554413" y="0.322784" width="33.8912" height="34.17" rx="5" fill="#F5F5F5"/>
        <path d="M24.2893 16.3758H24.5833C25.0435 16.3758 25.4136 16.0122 25.4136 15.5601V11.2098C25.4136 10.8801 25.213 10.5811 24.9016 10.4553C24.5902 10.3295 24.2339 10.3975 23.9952 10.632L22.556 12.0459C19.5253 9.10602 14.6437 9.11622 11.6303 12.0799C8.60312 15.0537 8.60312 19.8731 11.6303 22.8469C14.6575 25.8208 19.5633 25.8208 22.5906 22.8469C23.023 22.4221 23.023 21.7321 22.5906 21.3073C22.1581 20.8825 21.4558 20.8825 21.0233 21.3073C18.861 23.4315 15.3564 23.4315 13.1941 21.3073C11.0318 19.1831 11.0318 15.7403 13.1941 13.6161C15.346 11.5021 18.823 11.4919 20.9887 13.5821L19.5668 14.9824C19.3281 15.2169 19.2589 15.5669 19.3869 15.8728C19.5149 16.1787 19.8194 16.3758 20.1549 16.3758H24.2893Z" fill="#515151"/>
    </g>
    <defs>
        <clipPath id="clip0_455_2043">
            <rect width="35" height="35" fill="white"/>
        </clipPath>
    </defs>
</svg>
