<svg height="1em" viewBox="0 0 60 48" fill="none" xmlns="http://www.w3.org/2000/svg">
<path d="M13.9474 0.239166C15.9002 0.239166 17.773 1.0157 19.1538 2.39793C20.5347 3.78017 21.3104 5.65488 21.3104 7.60966C21.3104 9.56444 20.5347 11.4392 19.1538 12.8214C17.773 14.2036 15.9002 14.9802 13.9474 14.9802C11.9947 14.9802 10.1219 14.2036 8.74103 12.8214C7.36021 11.4392 6.58447 9.56444 6.58447 7.60966C6.58447 5.65488 7.36021 3.78017 8.74103 2.39793C10.1219 1.0157 11.9947 0.239166 13.9474 0.239166ZM47.8171 0.239166C49.7699 0.239166 51.6427 1.0157 53.0235 2.39793C54.4043 3.78017 55.1801 5.65488 55.1801 7.60966C55.1801 9.56444 54.4043 11.4392 53.0235 12.8214C51.6427 14.2036 49.7699 14.9802 47.8171 14.9802C45.8643 14.9802 43.9915 14.2036 42.6107 12.8214C41.2299 11.4392 40.4541 9.56444 40.4541 7.60966C40.4541 5.65488 41.2299 3.78017 42.6107 2.39793C43.9915 1.0157 45.8643 0.239166 47.8171 0.239166ZM0.694092 27.7588C0.694092 22.3322 5.09347 17.9284 10.5145 17.9284H14.4444C15.9078 17.9284 17.2976 18.2508 18.5493 18.822C18.4296 19.4854 18.3744 20.1764 18.3744 20.8766C18.3744 24.396 19.9206 27.5561 22.3596 29.7211C22.3412 29.7211 22.3228 29.7211 22.2952 29.7211H2.65448C1.57765 29.7211 0.694092 28.8367 0.694092 27.7588ZM37.9967 29.7211C37.9783 29.7211 37.9599 29.7211 37.9323 29.7211C40.3805 27.5561 41.9175 24.396 41.9175 20.8766C41.9175 20.1764 41.8531 19.4946 41.7427 18.822C42.9944 18.2416 44.3841 17.9284 45.8475 17.9284H49.7775C55.1985 17.9284 59.5979 22.3322 59.5979 27.7588C59.5979 28.8459 58.7143 29.7211 57.6375 29.7211H37.9967ZM21.3104 20.8766C21.3104 18.5308 22.2413 16.2812 23.8983 14.6225C25.5553 12.9638 27.8026 12.032 30.146 12.032C32.4893 12.032 34.7367 12.9638 36.3937 14.6225C38.0507 16.2812 38.9815 18.5308 38.9815 20.8766C38.9815 23.2223 38.0507 25.4719 36.3937 27.1306C34.7367 28.7893 32.4893 29.7211 30.146 29.7211C27.8026 29.7211 25.5553 28.7893 23.8983 27.1306C22.2413 25.4719 21.3104 23.2223 21.3104 20.8766ZM12.4748 44.9504C12.4748 38.1696 17.9695 32.6693 24.7434 32.6693H35.5486C42.3225 32.6693 47.8171 38.1696 47.8171 44.9504C47.8171 46.3048 46.7219 47.4103 45.3597 47.4103H14.9322C13.5793 47.4103 12.4748 46.314 12.4748 44.9504Z" fill="white"/>
</svg>
