<svg width="22" height="37" viewBox="0 0 22 37" fill="none" xmlns="http://www.w3.org/2000/svg">
<circle cx="11" cy="30" r="6.5" fill="white" stroke="#FF2F2F"/>
<path d="M12.3578 29.3259C15.2969 25.5544 22 16.4136 22 11.2792C22 5.05214 17.0729 0 11 0C4.92708 0 0 5.05214 0 11.2792C0 16.4136 6.70313 25.5544 9.64219 29.3259C10.3469 30.2247 11.6531 30.2247 12.3578 29.3259ZM11 7.51946C11.9725 7.51946 12.9051 7.91557 13.5927 8.62066C14.2804 9.32574 14.6667 10.282 14.6667 11.2792C14.6667 12.2763 14.2804 13.2326 13.5927 13.9377C12.9051 14.6428 11.9725 15.0389 11 15.0389C10.0275 15.0389 9.09491 14.6428 8.40728 13.9377C7.71964 13.2326 7.33333 12.2763 7.33333 11.2792C7.33333 10.282 7.71964 9.32574 8.40728 8.62066C9.09491 7.91557 10.0275 7.51946 11 7.51946Z" fill="#FF2F2F"/>
</svg>
