<svg height="1em" viewBox="0 0 27 27" fill="none" xmlns="http://www.w3.org/2000/svg">
<path d="M25.7336 24.3187L19.4752 18.0616C21.2892 15.8838 22.1937 13.0906 22.0006 10.2629C21.8076 7.43529 20.5318 4.79092 18.4387 2.87993C16.3456 0.968932 13.5964 -0.06155 10.7629 0.0028461C7.92938 0.0672422 5.22978 1.22156 3.22567 3.22567C1.22156 5.22978 0.0672422 7.92938 0.0028461 10.7629C-0.06155 13.5964 0.968932 16.3456 2.87993 18.4387C4.79092 20.5318 7.43529 21.8076 10.2629 22.0006C13.0906 22.1937 15.8838 21.2892 18.0616 19.4752L24.3187 25.7336C24.4116 25.8265 24.5219 25.9002 24.6433 25.9505C24.7647 26.0008 24.8948 26.0267 25.0262 26.0267C25.1576 26.0267 25.2877 26.0008 25.409 25.9505C25.5304 25.9002 25.6407 25.8265 25.7336 25.7336C25.8265 25.6407 25.9002 25.5304 25.9505 25.409C26.0008 25.2877 26.0267 25.1576 26.0267 25.0262C26.0267 24.8948 26.0008 24.7647 25.9505 24.6433C25.9002 24.5219 25.8265 24.4116 25.7336 24.3187ZM2.02751 11.027C2.02751 9.24706 2.55532 7.5071 3.5442 6.02714C4.53307 4.54719 5.9386 3.3937 7.58303 2.71255C9.22747 2.03141 11.037 1.85319 12.7827 2.20043C14.5284 2.54768 16.132 3.4048 17.3906 4.6634C18.6492 5.92199 19.5063 7.52555 19.8535 9.27127C20.2008 11.017 20.0226 12.8265 19.3414 14.4709C18.6603 16.1154 17.5068 17.5209 16.0268 18.5098C14.5469 19.4986 12.8069 20.0265 11.027 20.0265C8.64099 20.0238 6.35347 19.0748 4.66632 17.3877C2.97916 15.7005 2.03016 13.413 2.02751 11.027Z" fill="#5F5E5E"/>
</svg>
