<svg height="1em" viewBox="0 0 14 19" fill="none" xmlns="http://www.w3.org/2000/svg">
<path d="M6.79297 4.29688C6.29852 4.29687 5.81517 4.4435 5.40404 4.7182C4.99292 4.9929 4.67249 5.38335 4.48327 5.84017C4.29405 6.29698 4.24454 6.79965 4.34101 7.2846C4.43747 7.76955 4.67557 8.21501 5.0252 8.56464C5.37483 8.91427 5.82029 9.15238 6.30524 9.24884C6.7902 9.3453 7.29286 9.29579 7.74968 9.10657C8.20649 8.91735 8.59694 8.59692 8.87164 8.1858C9.14635 7.77468 9.29297 7.29133 9.29297 6.79687C9.29222 6.13407 9.02858 5.49862 8.5599 5.02994C8.09123 4.56126 7.45578 4.29763 6.79297 4.29688ZM6.79297 8.04687C6.54574 8.04687 6.30407 7.97356 6.09851 7.83621C5.89295 7.69886 5.73273 7.50364 5.63812 7.27523C5.54351 7.04682 5.51876 6.79549 5.56699 6.55301C5.61522 6.31054 5.73427 6.08781 5.90909 5.91299C6.0839 5.73818 6.30663 5.61912 6.54911 5.57089C6.79158 5.52266 7.04292 5.54742 7.27132 5.64203C7.49973 5.73664 7.69496 5.89685 7.83231 6.10241C7.96966 6.30797 8.04297 6.54965 8.04297 6.79687C8.04259 7.12828 7.91077 7.446 7.67643 7.68034C7.44209 7.91467 7.12437 8.04649 6.79297 8.04687Z" fill="#F86C1D"/>
<path d="M11.5972 1.98926C10.4094 0.80178 8.82386 0.0963664 7.14656 0.00916858C5.46926 -0.0780293 3.81911 0.45917 2.51459 1.51709C1.21008 2.575 0.343672 4.07864 0.0825974 5.73779C-0.178477 7.39694 0.184285 9.094 1.10087 10.5014L5.8238 17.7519C5.9289 17.9133 6.07261 18.0458 6.24189 18.1376C6.41118 18.2293 6.60068 18.2774 6.79323 18.2774C6.98579 18.2774 7.17529 18.2293 7.34458 18.1376C7.51386 18.0458 7.65757 17.9133 7.76267 17.7519L12.4858 10.5014C13.3362 9.19583 13.7121 7.63758 13.5503 6.08783C13.3886 4.53809 12.699 3.09105 11.5972 1.98926ZM11.4384 9.81911L6.79325 16.95L2.14806 9.81911C0.726184 7.63633 1.03114 4.71524 2.87318 2.87313C3.38796 2.35833 3.99911 1.94997 4.67172 1.67136C5.34433 1.39275 6.06523 1.24935 6.79325 1.24935C7.52128 1.24935 8.24218 1.39275 8.91479 1.67136C9.5874 1.94997 10.1985 2.35833 10.7133 2.87313C12.5554 4.71524 12.8603 7.63633 11.4384 9.81911Z" fill="#F86C1D"/>
</svg>
