<svg width="149" height="54" viewBox="0 0 149 54" fill="none" xmlns="http://www.w3.org/2000/svg">
<path fill-rule="evenodd" clip-rule="evenodd" d="M0 0H8.55789C11.3193 0 13.5579 2.23858 13.5579 5V21.5194C16.8923 12.0479 25.9185 5.25913 36.5303 5.25913H44.8C44.8 10.7429 42.9871 15.8032 39.928 19.8735C38.2245 18.7617 36.185 18.1148 33.993 18.1148C28.0244 18.1148 23.186 22.9112 23.186 28.8278C23.186 34.7445 28.0244 39.5409 33.993 39.5409C39.9615 39.5409 44.8 34.7445 44.8 28.8278C44.8 28.2308 44.7507 27.6452 44.656 27.0748H52.986C54.6506 27.0748 56 28.4242 56 30.0888C56 41.9787 46.1729 51.6174 34.283 51.6174C24.8526 51.6174 16.6973 45.6591 13.5579 37.3018V41.76C13.5579 48.3874 8.18531 53.76 1.55789 53.76H0V0ZM41.4596 27.2696V27.5942C41.4596 31.7179 38.1167 35.0609 33.993 35.0609C29.8693 35.0609 26.5263 31.7179 26.5263 27.5942V27.2696H41.4596Z" fill="#F86C1D"/>
<path d="M71.472 23.16L71.256 18.672L79.296 10.2H83.616L76.368 18L74.208 20.304L71.472 23.16ZM67.992 27V10.2H71.856V27H67.992ZM79.488 27L73.512 19.68L76.056 16.92L84.024 27H79.488ZM93.1324 27V24.48L92.8924 23.928V19.416C92.8924 18.616 92.6444 17.992 92.1484 17.544C91.6684 17.096 90.9244 16.872 89.9164 16.872C89.2284 16.872 88.5484 16.984 87.8764 17.208C87.2204 17.416 86.6604 17.704 86.1964 18.072L84.8524 15.456C85.5564 14.96 86.4044 14.576 87.3964 14.304C88.3884 14.032 89.3964 13.896 90.4204 13.896C92.3884 13.896 93.9164 14.36 95.0044 15.288C96.0924 16.216 96.6364 17.664 96.6364 19.632V27H93.1324ZM89.1964 27.192C88.1884 27.192 87.3244 27.024 86.6044 26.688C85.8844 26.336 85.3324 25.864 84.9484 25.272C84.5644 24.68 84.3724 24.016 84.3724 23.28C84.3724 22.512 84.5564 21.84 84.9244 21.264C85.3084 20.688 85.9084 20.24 86.7244 19.92C87.5404 19.584 88.6044 19.416 89.9164 19.416H93.3484V21.6H90.3244C89.4444 21.6 88.8364 21.744 88.5004 22.032C88.1804 22.32 88.0204 22.68 88.0204 23.112C88.0204 23.592 88.2044 23.976 88.5724 24.264C88.9564 24.536 89.4764 24.672 90.1324 24.672C90.7564 24.672 91.3164 24.528 91.8124 24.24C92.3084 23.936 92.6684 23.496 92.8924 22.92L93.4684 24.648C93.1964 25.48 92.7004 26.112 91.9804 26.544C91.2604 26.976 90.3324 27.192 89.1964 27.192ZM107.657 27.192C106.521 27.192 105.545 26.952 104.729 26.472C103.913 25.992 103.289 25.264 102.857 24.288C102.425 23.296 102.209 22.048 102.209 20.544C102.209 19.024 102.433 17.776 102.881 16.8C103.345 15.824 103.985 15.096 104.801 14.616C105.617 14.136 106.569 13.896 107.657 13.896C108.873 13.896 109.961 14.168 110.921 14.712C111.897 15.256 112.665 16.024 113.225 17.016C113.801 18.008 114.089 19.184 114.089 20.544C114.089 21.888 113.801 23.056 113.225 24.048C112.665 25.04 111.897 25.816 110.921 26.376C109.961 26.92 108.873 27.192 107.657 27.192ZM100.025 27V9.192H103.769V16.704L103.529 20.52L103.601 24.36V27H100.025ZM107.009 24.12C107.633 24.12 108.185 23.976 108.665 23.688C109.161 23.4 109.553 22.992 109.841 22.464C110.145 21.92 110.297 21.28 110.297 20.544C110.297 19.792 110.145 19.152 109.841 18.624C109.553 18.096 109.161 17.688 108.665 17.4C108.185 17.112 107.633 16.968 107.009 16.968C106.385 16.968 105.825 17.112 105.329 17.4C104.833 17.688 104.441 18.096 104.153 18.624C103.865 19.152 103.721 19.792 103.721 20.544C103.721 21.28 103.865 21.92 104.153 22.464C104.441 22.992 104.833 23.4 105.329 23.688C105.825 23.976 106.385 24.12 107.009 24.12ZM124.971 27.288C123.643 27.288 122.419 27.08 121.299 26.664C120.195 26.232 119.227 25.624 118.395 24.84C117.579 24.056 116.939 23.136 116.475 22.08C116.027 21.024 115.803 19.864 115.803 18.6C115.803 17.336 116.027 16.176 116.475 15.12C116.939 14.064 117.587 13.144 118.419 12.36C119.251 11.576 120.227 10.976 121.347 10.56C122.467 10.128 123.699 9.912 125.043 9.912C126.531 9.912 127.867 10.16 129.051 10.656C130.251 11.152 131.259 11.872 132.075 12.816L129.579 15.12C128.971 14.48 128.307 14.008 127.587 13.704C126.867 13.384 126.083 13.224 125.235 13.224C124.419 13.224 123.675 13.352 123.003 13.608C122.331 13.864 121.747 14.232 121.251 14.712C120.771 15.192 120.395 15.76 120.123 16.416C119.867 17.072 119.739 17.8 119.739 18.6C119.739 19.384 119.867 20.104 120.123 20.76C120.395 21.416 120.771 21.992 121.251 22.488C121.747 22.968 122.323 23.336 122.979 23.592C123.651 23.848 124.387 23.976 125.187 23.976C125.955 23.976 126.699 23.856 127.419 23.616C128.155 23.36 128.867 22.936 129.555 22.344L131.763 25.152C130.851 25.84 129.787 26.368 128.571 26.736C127.371 27.104 126.171 27.288 124.971 27.288ZM128.211 24.648V18.336H131.763V25.152L128.211 24.648ZM141.255 27.192C139.879 27.192 138.655 26.904 137.583 26.328C136.527 25.752 135.687 24.968 135.063 23.976C134.455 22.968 134.151 21.824 134.151 20.544C134.151 19.248 134.455 18.104 135.063 17.112C135.687 16.104 136.527 15.32 137.583 14.76C138.655 14.184 139.879 13.896 141.255 13.896C142.615 13.896 143.831 14.184 144.903 14.76C145.975 15.32 146.815 16.096 147.423 17.088C148.031 18.08 148.335 19.232 148.335 20.544C148.335 21.824 148.031 22.968 147.423 23.976C146.815 24.968 145.975 25.752 144.903 26.328C143.831 26.904 142.615 27.192 141.255 27.192ZM141.255 24.12C141.879 24.12 142.439 23.976 142.935 23.688C143.431 23.4 143.823 22.992 144.111 22.464C144.399 21.92 144.543 21.28 144.543 20.544C144.543 19.792 144.399 19.152 144.111 18.624C143.823 18.096 143.431 17.688 142.935 17.4C142.439 17.112 141.879 16.968 141.255 16.968C140.631 16.968 140.071 17.112 139.575 17.4C139.079 17.688 138.679 18.096 138.375 18.624C138.087 19.152 137.943 19.792 137.943 20.544C137.943 21.28 138.087 21.92 138.375 22.464C138.679 22.992 139.079 23.4 139.575 23.688C140.071 23.976 140.631 24.12 141.255 24.12Z" fill="#F86C1D"/>
<path d="M73.27 45.09C72.48 45.09 71.75 44.96 71.08 44.7C70.41 44.43 69.83 44.055 69.34 43.575C68.85 43.095 68.465 42.53 68.185 41.88C67.915 41.23 67.78 40.52 67.78 39.75C67.78 38.98 67.915 38.27 68.185 37.62C68.465 36.97 68.85 36.405 69.34 35.925C69.84 35.445 70.425 35.075 71.095 34.815C71.765 34.545 72.495 34.41 73.285 34.41C74.045 34.41 74.76 34.54 75.43 34.8C76.1 35.05 76.665 35.43 77.125 35.94L76.42 36.645C75.99 36.205 75.515 35.89 74.995 35.7C74.475 35.5 73.915 35.4 73.315 35.4C72.685 35.4 72.1 35.51 71.56 35.73C71.02 35.94 70.55 36.245 70.15 36.645C69.75 37.035 69.435 37.495 69.205 38.025C68.985 38.545 68.875 39.12 68.875 39.75C68.875 40.38 68.985 40.96 69.205 41.49C69.435 42.01 69.75 42.47 70.15 42.87C70.55 43.26 71.02 43.565 71.56 43.785C72.1 43.995 72.685 44.1 73.315 44.1C73.915 44.1 74.475 44 74.995 43.8C75.515 43.6 75.99 43.28 76.42 42.84L77.125 43.545C76.665 44.055 76.1 44.44 75.43 44.7C74.76 44.96 74.04 45.09 73.27 45.09ZM84.0841 45V43.26L84.0391 42.975V40.065C84.0391 39.395 83.8491 38.88 83.4691 38.52C83.0991 38.16 82.5441 37.98 81.8041 37.98C81.2941 37.98 80.8091 38.065 80.3491 38.235C79.8891 38.405 79.4991 38.63 79.1791 38.91L78.6991 38.115C79.0991 37.775 79.5791 37.515 80.1391 37.335C80.6991 37.145 81.2891 37.05 81.9091 37.05C82.9291 37.05 83.7141 37.305 84.2641 37.815C84.8241 38.315 85.1041 39.08 85.1041 40.11V45H84.0841ZM81.3691 45.075C80.7791 45.075 80.2641 44.98 79.8241 44.79C79.3941 44.59 79.0641 44.32 78.8341 43.98C78.6041 43.63 78.4891 43.23 78.4891 42.78C78.4891 42.37 78.5841 42 78.7741 41.67C78.9741 41.33 79.2941 41.06 79.7341 40.86C80.1841 40.65 80.7841 40.545 81.5341 40.545H84.2491V41.34H81.5641C80.8041 41.34 80.2741 41.475 79.9741 41.745C79.6841 42.015 79.5391 42.35 79.5391 42.75C79.5391 43.2 79.7141 43.56 80.0641 43.83C80.4141 44.1 80.9041 44.235 81.5341 44.235C82.1341 44.235 82.6491 44.1 83.0791 43.83C83.5191 43.55 83.8391 43.15 84.0391 42.63L84.2791 43.365C84.0791 43.885 83.7291 44.3 83.2291 44.61C82.7391 44.92 82.1191 45.075 81.3691 45.075ZM87.9967 45V33.87H89.0617V45H87.9967ZM92.025 45V33.87H93.09V45H92.025ZM104.764 45.09C103.974 45.09 103.244 44.96 102.574 44.7C101.904 44.43 101.324 44.055 100.834 43.575C100.344 43.095 99.9591 42.53 99.6791 41.88C99.4091 41.23 99.2741 40.52 99.2741 39.75C99.2741 38.98 99.4091 38.27 99.6791 37.62C99.9591 36.97 100.344 36.405 100.834 35.925C101.334 35.445 101.919 35.075 102.589 34.815C103.259 34.545 103.989 34.41 104.779 34.41C105.539 34.41 106.254 34.54 106.924 34.8C107.594 35.05 108.159 35.43 108.619 35.94L107.914 36.645C107.484 36.205 107.009 35.89 106.489 35.7C105.969 35.5 105.409 35.4 104.809 35.4C104.179 35.4 103.594 35.51 103.054 35.73C102.514 35.94 102.044 36.245 101.644 36.645C101.244 37.035 100.929 37.495 100.699 38.025C100.479 38.545 100.369 39.12 100.369 39.75C100.369 40.38 100.479 40.96 100.699 41.49C100.929 42.01 101.244 42.47 101.644 42.87C102.044 43.26 102.514 43.565 103.054 43.785C103.594 43.995 104.179 44.1 104.809 44.1C105.409 44.1 105.969 44 106.489 43.8C107.009 43.6 107.484 43.28 107.914 42.84L108.619 43.545C108.159 44.055 107.594 44.44 106.924 44.7C106.254 44.96 105.534 45.09 104.764 45.09ZM113.754 45.075C112.934 45.075 112.214 44.905 111.594 44.565C110.974 44.215 110.489 43.74 110.139 43.14C109.789 42.53 109.614 41.835 109.614 41.055C109.614 40.275 109.779 39.585 110.109 38.985C110.449 38.385 110.909 37.915 111.489 37.575C112.079 37.225 112.739 37.05 113.469 37.05C114.209 37.05 114.864 37.22 115.434 37.56C116.014 37.89 116.469 38.36 116.799 38.97C117.129 39.57 117.294 40.265 117.294 41.055C117.294 41.105 117.289 41.16 117.279 41.22C117.279 41.27 117.279 41.325 117.279 41.385H110.424V40.59H116.709L116.289 40.905C116.289 40.335 116.164 39.83 115.914 39.39C115.674 38.94 115.344 38.59 114.924 38.34C114.504 38.09 114.019 37.965 113.469 37.965C112.929 37.965 112.444 38.09 112.014 38.34C111.584 38.59 111.249 38.94 111.009 39.39C110.769 39.84 110.649 40.355 110.649 40.935V41.1C110.649 41.7 110.779 42.23 111.039 42.69C111.309 43.14 111.679 43.495 112.149 43.755C112.629 44.005 113.174 44.13 113.784 44.13C114.264 44.13 114.709 44.045 115.119 43.875C115.539 43.705 115.899 43.445 116.199 43.095L116.799 43.785C116.449 44.205 116.009 44.525 115.479 44.745C114.959 44.965 114.384 45.075 113.754 45.075ZM123.482 37.05C124.122 37.05 124.682 37.175 125.162 37.425C125.652 37.665 126.032 38.035 126.302 38.535C126.582 39.035 126.722 39.665 126.722 40.425V45H125.657V40.53C125.657 39.7 125.447 39.075 125.027 38.655C124.617 38.225 124.037 38.01 123.287 38.01C122.727 38.01 122.237 38.125 121.817 38.355C121.407 38.575 121.087 38.9 120.857 39.33C120.637 39.75 120.527 40.26 120.527 40.86V45H119.462V37.125H120.482V39.285L120.317 38.88C120.567 38.31 120.967 37.865 121.517 37.545C122.067 37.215 122.722 37.05 123.482 37.05ZM132.088 45.075C131.348 45.075 130.778 44.875 130.378 44.475C129.978 44.075 129.778 43.51 129.778 42.78V35.385H130.843V42.72C130.843 43.18 130.958 43.535 131.188 43.785C131.428 44.035 131.768 44.16 132.208 44.16C132.678 44.16 133.068 44.025 133.378 43.755L133.753 44.52C133.543 44.71 133.288 44.85 132.988 44.94C132.698 45.03 132.398 45.075 132.088 45.075ZM128.368 38.01V37.125H133.243V38.01H128.368ZM138.759 45.075C137.939 45.075 137.219 44.905 136.599 44.565C135.979 44.215 135.494 43.74 135.144 43.14C134.794 42.53 134.619 41.835 134.619 41.055C134.619 40.275 134.784 39.585 135.114 38.985C135.454 38.385 135.914 37.915 136.494 37.575C137.084 37.225 137.744 37.05 138.474 37.05C139.214 37.05 139.869 37.22 140.439 37.56C141.019 37.89 141.474 38.36 141.804 38.97C142.134 39.57 142.299 40.265 142.299 41.055C142.299 41.105 142.294 41.16 142.284 41.22C142.284 41.27 142.284 41.325 142.284 41.385H135.429V40.59H141.714L141.294 40.905C141.294 40.335 141.169 39.83 140.919 39.39C140.679 38.94 140.349 38.59 139.929 38.34C139.509 38.09 139.024 37.965 138.474 37.965C137.934 37.965 137.449 38.09 137.019 38.34C136.589 38.59 136.254 38.94 136.014 39.39C135.774 39.84 135.654 40.355 135.654 40.935V41.1C135.654 41.7 135.784 42.23 136.044 42.69C136.314 43.14 136.684 43.495 137.154 43.755C137.634 44.005 138.179 44.13 138.789 44.13C139.269 44.13 139.714 44.045 140.124 43.875C140.544 43.705 140.904 43.445 141.204 43.095L141.804 43.785C141.454 44.205 141.014 44.525 140.484 44.745C139.964 44.965 139.389 45.075 138.759 45.075ZM144.466 45V37.125H145.486V39.27L145.381 38.895C145.601 38.295 145.971 37.84 146.491 37.53C147.011 37.21 147.656 37.05 148.426 37.05V38.085C148.386 38.085 148.346 38.085 148.306 38.085C148.266 38.075 148.226 38.07 148.186 38.07C147.356 38.07 146.706 38.325 146.236 38.835C145.766 39.335 145.531 40.05 145.531 40.98V45H144.466Z" fill="#F86C1D"/>
</svg>
