<svg height="1em" viewBox="0 0 20 20" fill="none" xmlns="http://www.w3.org/2000/svg">
<path d="M10.2833 1.27468C10.4091 1.14868 10.5683 1.06118 10.7421 1.02243C10.9159 0.983687 11.0971 0.995308 11.2646 1.05593C12.6491 1.55751 13.8846 2.40036 14.8568 3.50641C15.829 4.61246 16.5064 5.94595 16.8262 7.38338C17.146 8.82081 17.0979 10.3157 16.6863 11.7296C16.2748 13.1435 15.5131 14.4307 14.4718 15.472C13.4306 16.5132 12.1434 17.2749 10.7295 17.6864C9.31558 18.098 7.82069 18.1461 6.38326 17.8263C4.94583 17.5065 3.61234 16.8291 2.50629 15.8569C1.40024 14.8848 0.557393 13.6492 0.0558136 12.2647C-0.00474753 12.0971 -0.0163011 11.9158 0.0225064 11.7418C0.0613139 11.5679 0.148875 11.4087 0.274933 11.2828C0.40099 11.1569 0.560323 11.0695 0.734265 11.0308C0.908207 10.9922 1.08956 11.0039 1.25706 11.0647C2.48615 11.5106 3.81691 11.5968 5.09325 11.3131C6.36958 11.0295 7.53857 10.3877 8.4631 9.46322C9.38762 8.53869 10.0293 7.3697 10.313 6.09337C10.5967 4.81703 10.5105 3.48627 10.0646 2.25718C10.0038 2.08957 9.99216 1.90811 10.0309 1.73409C10.0696 1.56007 10.1572 1.4007 10.2833 1.27468ZM12.3033 3.70593C12.436 4.99898 12.2789 6.30535 11.8435 7.5301C11.4081 8.75485 10.7053 9.8672 9.78621 10.7863C8.86708 11.7055 7.75473 12.4083 6.52998 12.8437C5.30523 13.2791 3.99886 13.4361 2.70581 13.3034C3.2887 14.1099 4.03973 14.7802 4.907 15.2679C5.77427 15.7557 6.7371 16.0494 7.72898 16.1287C8.72086 16.208 9.71812 16.071 10.6519 15.7272C11.5856 15.3834 12.4336 14.8409 13.1372 14.1373C13.8408 13.4337 14.3832 12.5857 14.7271 11.652C15.0709 10.7182 15.2079 9.72098 15.1286 8.7291C15.0493 7.73722 14.7556 6.77439 14.2678 5.90712C13.78 5.03985 13.1098 4.28882 12.3033 3.70593Z" fill="white"/>
</svg>
