<svg height="1em" viewBox="0 0 18 18" fill="none" xmlns="http://www.w3.org/2000/svg">
<path d="M8.75029 0.000287224C9.55107 0.000287224 10.3226 0.104454 11.0647 0.312787C11.8069 0.521121 12.5035 0.814089 13.1546 1.19169C13.8056 1.5693 14.3981 2.02828 14.9319 2.56865C15.4658 3.10901 15.9215 3.6982 16.2991 4.33622C16.6767 4.97425 16.9729 5.67086 17.1878 6.42607C17.4026 7.18128 17.5068 7.95602 17.5003 8.75029C17.5003 9.55107 17.3961 10.3226 17.1878 11.0647C16.9795 11.8069 16.6865 12.5035 16.3089 13.1546C15.9313 13.8056 15.4723 14.3981 14.9319 14.9319C14.3916 15.4658 13.8024 15.9215 13.1643 16.2991C12.5263 16.6767 11.8297 16.9729 11.0745 17.1878C10.3193 17.4026 9.54456 17.5068 8.75029 17.5003C7.94951 17.5003 7.17802 17.3961 6.43583 17.1878C5.69365 16.9795 4.99703 16.6865 4.34599 16.3089C3.69495 15.9313 3.1025 15.4723 2.56865 14.9319C2.03479 14.3916 1.57906 13.8024 1.20146 13.1643C0.823855 12.5263 0.527631 11.8297 0.312787 11.0745C0.0979435 10.3193 -0.00622319 9.54456 0.000287224 8.75029C0.000287224 7.94951 0.104454 7.17802 0.312787 6.43583C0.521121 5.69365 0.814089 4.99703 1.19169 4.34599C1.5693 3.69495 2.02828 3.1025 2.56865 2.56865C3.10901 2.03479 3.6982 1.57906 4.33622 1.20146C4.97425 0.823855 5.67086 0.527631 6.42607 0.312787C7.18128 0.0979435 7.95602 -0.00622319 8.75029 0.000287224ZM8.75029 16.2503C9.44039 16.2503 10.1045 16.1624 10.7425 15.9866C11.3805 15.8108 11.9762 15.5569 12.5296 15.2249C13.083 14.8929 13.5908 14.5022 14.053 14.053C14.5153 13.6038 14.9059 13.0992 15.2249 12.5393C15.5439 11.9795 15.7946 11.3805 15.9768 10.7425C16.1591 10.1045 16.2503 9.44039 16.2503 8.75029C16.2503 8.06018 16.1624 7.39612 15.9866 6.7581C15.8108 6.12008 15.5569 5.52438 15.2249 4.97099C14.8929 4.4176 14.5022 3.90979 14.053 3.44755C13.6038 2.98531 13.0992 2.59469 12.5393 2.27568C11.9795 1.95667 11.3805 1.70602 10.7425 1.52372C10.1045 1.34143 9.44039 1.25029 8.75029 1.25029C8.06018 1.25029 7.39612 1.33818 6.7581 1.51396C6.12008 1.68974 5.52438 1.94365 4.97099 2.27568C4.4176 2.60771 3.90979 2.99833 3.44755 3.44755C2.98531 3.89677 2.59469 4.40133 2.27568 4.96122C1.95667 5.52112 1.70602 6.12008 1.52372 6.7581C1.34143 7.39612 1.25029 8.06018 1.25029 8.75029C1.25029 9.44039 1.33818 10.1045 1.51396 10.7425C1.68974 11.3805 1.94365 11.9762 2.27568 12.5296C2.60771 13.083 2.99833 13.5908 3.44755 14.053C3.89677 14.5153 4.40133 14.9059 4.96122 15.2249C5.52112 15.5439 6.12008 15.7946 6.7581 15.9768C7.39612 16.1591 8.06018 16.2503 8.75029 16.2503ZM8.75029 5.00029C9.26461 5.00029 9.74964 5.09794 10.2054 5.29326C10.6611 5.48857 11.0582 5.75875 11.3968 6.1038C11.7353 6.44885 12.0022 6.84599 12.1976 7.29521C12.3929 7.74443 12.4938 8.22945 12.5003 8.75029C12.5003 9.26461 12.4026 9.74964 12.2073 10.2054C12.012 10.6611 11.7418 11.0582 11.3968 11.3968C11.0517 11.7353 10.6546 12.0022 10.2054 12.1976C9.75615 12.3929 9.27112 12.4938 8.75029 12.5003C8.23596 12.5003 7.75094 12.4026 7.29521 12.2073C6.83948 12.012 6.44234 11.7418 6.1038 11.3968C5.76526 11.0517 5.49833 10.6546 5.30302 10.2054C5.10771 9.75615 5.0068 9.27112 5.00029 8.75029C5.00029 8.23596 5.09794 7.75094 5.29326 7.29521C5.48857 6.83948 5.75875 6.44234 6.1038 6.1038C6.44885 5.76526 6.84599 5.49833 7.29521 5.30302C7.74443 5.10771 8.22945 5.0068 8.75029 5.00029Z" fill="#F86C1D"/>
</svg>
