<svg width="241" height="241" viewBox="0 0 241 241" fill="none"
    xmlns="http://www.w3.org/2000/svg">
    <path d="M52.8179 181.179L52.5752 180.909L52.7561 180.595C63.2444 162.371 82.9405 150.125 105.438 150.125H135.562C158.059 150.125 177.756 162.371 188.244 180.595L188.425 180.909L188.183 181.178C171.523 199.731 147.384 211.375 120.5 211.375C93.6158 211.375 69.477 199.684 52.8179 181.179ZM240.5 120.5C240.5 88.674 227.857 58.1516 205.353 35.6472C182.848 13.1428 152.326 0.5 120.5 0.5C88.674 0.5 58.1515 13.1428 35.6472 35.6472C13.1428 58.1516 0.5 88.674 0.5 120.5C0.5 152.326 13.1428 182.848 35.6472 205.353C58.1515 227.857 88.674 240.5 120.5 240.5C152.326 240.5 182.848 227.857 205.353 205.353C227.857 182.848 240.5 152.326 240.5 120.5ZM120.5 128.531C111.379 128.531 102.632 124.908 96.1822 118.458C89.7327 112.009 86.1094 103.262 86.1094 94.1406C86.1094 85.0197 89.7327 76.2723 96.1822 69.8228C102.632 63.3733 111.379 59.75 120.5 59.75C129.621 59.75 138.368 63.3733 144.818 69.8228C151.267 76.2723 154.891 85.0197 154.891 94.1406C154.891 103.262 151.267 112.009 144.818 118.458C138.368 124.908 129.621 128.531 120.5 128.531Z" fill="#F4F4F4" stroke="#EFEFEF"/>
</svg>
