<svg width="16" height="16" viewBox="0 0 16 16" fill="none"
    xmlns="http://www.w3.org/2000/svg">
    <path d="M9.14284 1.8125C9.14284 1.19023 8.63212 0.6875 7.99998 0.6875C7.36784 0.6875 6.85713 1.19023 6.85713 1.8125V6.875H1.71427C1.08213 6.875 0.571411 7.37773 0.571411 8C0.571411 8.62227 1.08213 9.125 1.71427 9.125H6.85713V14.1875C6.85713 14.8098 7.36784 15.3125 7.99998 15.3125C8.63212 15.3125 9.14284 14.8098 9.14284 14.1875V9.125H14.2857C14.9178 9.125 15.4286 8.62227 15.4286 8C15.4286 7.37773 14.9178 6.875 14.2857 6.875H9.14284V1.8125Z" fill="white"/>
</svg>
