<svg width="12" height="13" viewBox="0 0 12 13" fill="none"
    xmlns="http://www.w3.org/2000/svg">
    <path d="M11.4906 2.76515C11.9464 2.28663 11.9464 1.50952 11.4906 1.03101C11.0349 0.55249 10.2948 0.55249 9.83907 1.03101L6.00001 5.06585L2.1573 1.03483C1.70157 0.556318 0.961466 0.556318 0.505737 1.03483C0.0500081 1.51335 0.0500081 2.29046 0.505737 2.76897L4.34845 6.79999L0.509383 10.8348C0.0536541 11.3133 0.0536541 12.0905 0.509383 12.569C0.965112 13.0475 1.70522 13.0475 2.16095 12.569L6.00001 8.53413L9.84272 12.5651C10.2984 13.0437 11.0386 13.0437 11.4943 12.5651C11.95 12.0866 11.95 11.3095 11.4943 10.831L7.65157 6.79999L11.4906 2.76515Z" fill="#F86C1D"/>
</svg>
