<svg width="23" height="24" viewBox="0 0 30 31" fill="none"
    xmlns="http://www.w3.org/2000/svg">
    <path d="M27.6328 1.61694C26.3496 0.33374 24.2754 0.33374 22.9922 1.61694L21.2285 3.37476L26.9648 9.11108L28.7285 7.34741C30.0117 6.06421 30.0117 3.98999 28.7285 2.70679L27.6328 1.61694ZM10.1016 14.5076C9.74414 14.865 9.46875 15.3044 9.31055 15.7908L7.57617 20.9939C7.40625 21.4978 7.54102 22.0544 7.91602 22.4353C8.29102 22.8162 8.84766 22.9451 9.35742 22.7751L14.5605 21.0408C15.041 20.8767 15.4805 20.6072 15.8438 20.2498L25.6465 10.4412L19.9043 4.69897L10.1016 14.5076ZM5.625 4.09546C2.51953 4.09546 0 6.61499 0 9.72046V24.7205C0 27.8259 2.51953 30.3455 5.625 30.3455H20.625C23.7305 30.3455 26.25 27.8259 26.25 24.7205V19.0955C26.25 18.0583 25.4121 17.2205 24.375 17.2205C23.3379 17.2205 22.5 18.0583 22.5 19.0955V24.7205C22.5 25.7576 21.6621 26.5955 20.625 26.5955H5.625C4.58789 26.5955 3.75 25.7576 3.75 24.7205V9.72046C3.75 8.68335 4.58789 7.84546 5.625 7.84546H11.25C12.2871 7.84546 13.125 7.00757 13.125 5.97046C13.125 4.93335 12.2871 4.09546 11.25 4.09546H5.625Z" fill="#1F84BD"/>
</svg>
