<svg width="28" height="32" viewBox="0 0 22 26" fill="none"
    xmlns="http://www.w3.org/2000/svg">
    <path d="M11 13C9.33292 13 7.73413 12.3152 6.55533 11.0962C5.37653 9.87721 4.71429 8.22391 4.71429 6.5C4.71429 4.77609 5.37653 3.12279 6.55533 1.90381C7.73413 0.68482 9.33292 0 11 0C12.6671 0 14.2659 0.68482 15.4447 1.90381C16.6235 3.12279 17.2857 4.77609 17.2857 6.5C17.2857 8.22391 16.6235 9.87721 15.4447 11.0962C14.2659 12.3152 12.6671 13 11 13ZM10.2683 18.2406L9.35491 16.6664C9.04062 16.123 9.41875 15.4375 10.0277 15.4375H11H11.9674C12.5763 15.4375 12.9545 16.1281 12.6402 16.6664L11.7268 18.2406L13.367 24.5324L15.1348 17.0727C15.233 16.6613 15.6161 16.3922 16.0138 16.4988C19.4562 17.3926 22 20.6121 22 24.441C22 25.3043 21.3223 26 20.4924 26H14.0201C13.917 26 13.8237 25.9797 13.7353 25.9441L13.75 26H8.25L8.26473 25.9441C8.17634 25.9797 8.07812 26 7.97991 26H1.50759C0.677679 26 0 25.2992 0 24.441C0 20.607 2.54866 17.3875 5.98616 16.4988C6.38393 16.3973 6.76696 16.6664 6.86518 17.0727L8.63304 24.5324L10.2732 18.2406H10.2683Z" fill="#3C3C3C"/>
</svg>
