<svg width="26" height="23" viewBox="0 0 26 23" fill="none"
    xmlns="http://www.w3.org/2000/svg">
    <path d="M18.0556 11.1167V10.4464V9.05357C18.0556 8.67054 17.7306 8.35714 17.3333 8.35714H15.8889H15.1667H13.0677C10.7701 8.35714 8.82917 9.81529 8.17917 11.8219C8.03021 11.4127 7.94444 10.96 7.94444 10.4464C7.94444 7.75212 10.2059 5.57143 13 5.57143H15.1667H15.8889H17.3333C17.7306 5.57143 18.0556 5.25804 18.0556 4.875V3.48214V2.81183L22.8403 6.96429L18.0556 11.1167ZM15.1667 10.4464H15.8889V12.5357C15.8889 13.3061 16.5344 13.9286 17.3333 13.9286H17.5003C17.8569 13.9286 18.2 13.8023 18.4663 13.5717L24.7406 8.12645C25.0837 7.83047 25.2778 7.40826 25.2778 6.96429C25.2778 6.52031 25.0837 6.0981 24.7406 5.80212L18.5024 0.387388C18.2135 0.139286 17.8434 0 17.4552 0C16.5885 0 15.8889 0.674665 15.8889 1.51038V3.48214H15.1667H13.7222H13C9.00972 3.48214 5.77778 6.59866 5.77778 10.4464C5.77778 13.0754 7.33958 14.7599 8.66215 15.7088C8.92847 15.9003 9.18125 16.0614 9.41597 16.1963C9.61458 16.3138 9.79965 16.4096 9.95312 16.4836C10.1066 16.5576 10.233 16.6142 10.3233 16.6533C10.4226 16.6969 10.5309 16.7143 10.6438 16.7143H10.7566C11.199 16.7143 11.5601 16.3661 11.5601 15.9395C11.5601 15.6 11.3208 15.2997 11.0365 15.0907C11.0184 15.0777 11.0049 15.069 10.9868 15.0559C10.9101 15.008 10.8333 14.9471 10.7611 14.8775C10.725 14.8426 10.6844 14.8078 10.6483 14.7643C10.6122 14.7208 10.576 14.6816 10.5399 14.6381C10.4587 14.5292 10.3819 14.4074 10.3142 14.2681C10.1969 14.0069 10.1201 13.6892 10.1201 13.2931C10.1201 11.7218 11.4427 10.4421 13.0767 10.4421H13.7222H15.1667V10.4464ZM3.25 1.39286C1.45347 1.39286 0 2.79442 0 4.52679V19.1518C0 20.8842 1.45347 22.2857 3.25 22.2857H18.4167C20.2132 22.2857 21.6667 20.8842 21.6667 19.1518V16.3661C21.6667 15.7872 21.1837 15.3214 20.5833 15.3214C19.983 15.3214 19.5 15.7872 19.5 16.3661V19.1518C19.5 19.7307 19.017 20.1964 18.4167 20.1964H3.25C2.64965 20.1964 2.16667 19.7307 2.16667 19.1518V4.52679C2.16667 3.94788 2.64965 3.48214 3.25 3.48214H6.13889C6.73924 3.48214 7.22222 3.01641 7.22222 2.4375C7.22222 1.85859 6.73924 1.39286 6.13889 1.39286H3.25Z" fill="#565656"/>
</svg>
