<svg width="18" height="17" viewBox="0 0 18 17" fill="none"
    xmlns="http://www.w3.org/2000/svg">
    <path d="M0 1.89424C0 1.17624 0.574554 0.596161 1.28571 0.596161H16.7143C17.4254 0.596161 18 1.17624 18 1.89424C18 2.61224 17.4254 3.19232 16.7143 3.19232H1.28571C0.574554 3.19232 0 2.61224 0 1.89424ZM2.57143 8.38462C2.57143 7.66662 3.14598 7.08655 3.85714 7.08655H14.1429C14.854 7.08655 15.4286 7.66662 15.4286 8.38462C15.4286 9.10262 14.854 9.6827 14.1429 9.6827H3.85714C3.14598 9.6827 2.57143 9.10262 2.57143 8.38462ZM11.5714 14.875C11.5714 15.593 10.9969 16.1731 10.2857 16.1731H7.71429C7.00312 16.1731 6.42857 15.593 6.42857 14.875C6.42857 14.157 7.00312 13.5769 7.71429 13.5769H10.2857C10.9969 13.5769 11.5714 14.157 11.5714 14.875Z" fill="#3C3C3C"/>
</svg>
