<svg width="26" height="24" viewBox="0 0 26 24" fill="none"
    xmlns="http://www.w3.org/2000/svg">
    <path d="M1.625 0.625C2.52383 0.625 3.25 1.35117 3.25 2.25V19.3125C3.25 19.7594 3.61562 20.125 4.0625 20.125H24.375C25.2738 20.125 26 20.8512 26 21.75C26 22.6488 25.2738 23.375 24.375 23.375H4.0625C1.81797 23.375 0 21.557 0 19.3125V2.25C0 1.35117 0.726172 0.625 1.625 0.625ZM6.5 5.5C6.5 4.60117 7.22617 3.875 8.125 3.875H13C13.8988 3.875 14.625 4.60117 14.625 5.5C14.625 6.39883 13.8988 7.125 13 7.125H8.125C7.22617 7.125 6.5 6.39883 6.5 5.5ZM11.375 8.75H17.875C18.7738 8.75 19.5 9.47617 19.5 10.375C19.5 11.2738 18.7738 12 17.875 12H11.375C10.4762 12 9.75 11.2738 9.75 10.375C9.75 9.47617 10.4762 8.75 11.375 8.75ZM19.5 13.625H22.75C23.6488 13.625 24.375 14.3512 24.375 15.25C24.375 16.1488 23.6488 16.875 22.75 16.875H19.5C18.6012 16.875 17.875 16.1488 17.875 15.25C17.875 14.3512 18.6012 13.625 19.5 13.625Z" fill="#3C3C3C"/>
</svg>
