<svg width="30" height="22" viewBox="0 0 30 22" fill="none"
    xmlns="http://www.w3.org/2000/svg">
    <path d="M16.6359 4.60281C17.2828 5.33942 18.3469 5.57421 19.2562 5.17828C19.6734 4.99874 20.1328 4.89285 20.625 4.89285C22.4906 4.89285 24 6.37527 24 8.20758C24 8.39173 23.9859 8.57128 23.9578 8.74622C23.7938 9.74064 24.3375 10.7213 25.275 11.1264C26.7375 11.7479 27.75 13.1797 27.75 14.837C27.75 16.9916 26.0344 18.7595 23.8688 18.8792C23.8406 18.8792 23.8078 18.8838 23.7797 18.8884H23.625H6.75C4.26562 18.8884 2.25 16.9088 2.25 14.4687C2.25 12.549 3.49687 10.91 5.25 10.3023C6.15 9.98925 6.75 9.15596 6.75 8.21679V8.20758C6.75 5.15526 9.26719 2.68303 12.375 2.68303C14.0766 2.68303 15.6 3.42424 16.6359 4.60281ZM24 21.0982V21.089C27.3469 20.9002 30 18.1748 30 14.837C30 12.2727 28.4297 10.0629 26.1797 9.09611C26.2266 8.80607 26.25 8.50683 26.25 8.20758C26.25 5.15526 23.7328 2.68303 20.625 2.68303C19.8094 2.68303 19.0406 2.85337 18.3422 3.15722C16.8937 1.51366 14.7609 0.473206 12.375 0.473206C8.025 0.473206 4.5 3.93526 4.5 8.20758V8.21679C1.87969 9.12834 0 11.5822 0 14.4687C0 18.1288 3.02344 21.0982 6.75 21.0982H21.75H23.625H24ZM10.4531 10.7397C10.0125 11.1724 10.0125 11.8722 10.4531 12.3004C10.8938 12.7285 11.6062 12.7331 12.0422 12.3004L13.8703 10.5049V16.6786C13.8703 17.2909 14.3719 17.7835 14.9953 17.7835C15.6187 17.7835 16.1203 17.2909 16.1203 16.6786V10.5049L17.9484 12.3004C18.3891 12.7331 19.1016 12.7331 19.5375 12.3004C19.9734 11.8676 19.9781 11.1678 19.5375 10.7397L15.7875 7.05663C15.3469 6.62388 14.6344 6.62388 14.1984 7.05663L10.4484 10.7397H10.4531Z" fill="#565656"/>
</svg>
