<svg width="20" height="25" viewBox="0 0 27 32" fill="none"
    xmlns="http://www.w3.org/2000/svg">
    <path d="M13.5 3.42067C16.1638 3.42067 18.3214 5.59901 18.3214 8.28846V12.1827H8.67857V8.28846C8.67857 5.59901 10.8362 3.42067 13.5 3.42067ZM5.78571 8.28846V12.1827H3.85714C1.72969 12.1827 0 13.929 0 16.0769V27.7596C0 29.9075 1.72969 31.6538 3.85714 31.6538H23.1429C25.2703 31.6538 27 29.9075 27 27.7596V16.0769C27 13.929 25.2703 12.1827 23.1429 12.1827H21.2143V8.28846C21.2143 3.98655 17.7609 0.5 13.5 0.5C9.23906 0.5 5.78571 3.98655 5.78571 8.28846ZM3.85714 15.1034H23.1429C23.6732 15.1034 24.1071 15.5415 24.1071 16.0769V27.7596C24.1071 28.2951 23.6732 28.7332 23.1429 28.7332H3.85714C3.32679 28.7332 2.89286 28.2951 2.89286 27.7596V16.0769C2.89286 15.5415 3.32679 15.1034 3.85714 15.1034ZM14.9464 19.9712C14.9464 19.1619 14.3016 18.5108 13.5 18.5108C12.6984 18.5108 12.0536 19.1619 12.0536 19.9712V23.8654C12.0536 24.6747 12.6984 25.3257 13.5 25.3257C14.3016 25.3257 14.9464 24.6747 14.9464 23.8654V19.9712Z" fill="#FB6C6C"/>
</svg>
