<svg width="23" height="23" viewBox="0 0 23 23" fill="none"
    xmlns="http://www.w3.org/2000/svg">
    <g clip-path="url(#clip0_536_2454)">
        <path d="M18.6875 9.34375C18.6875 11.4057 18.0182 13.3104 16.8906 14.8557L22.5777 20.5473C23.1393 21.1088 23.1393 22.0207 22.5777 22.5822C22.0162 23.1438 21.1043 23.1438 20.5428 22.5822L14.8557 16.8906C13.3104 18.0227 11.4057 18.6875 9.34375 18.6875C4.18223 18.6875 0 14.5053 0 9.34375C0 4.18223 4.18223 0 9.34375 0C14.5053 0 18.6875 4.18223 18.6875 9.34375ZM9.34375 15.8125C12.915 15.8125 15.8125 12.915 15.8125 9.34375C15.8125 5.77246 12.915 2.875 9.34375 2.875C5.77246 2.875 2.875 5.77246 2.875 9.34375C2.875 12.915 5.77246 15.8125 9.34375 15.8125Z" fill="black" fill-opacity="0.35"/>
    </g>
    <defs>
        <clipPath id="clip0_536_2454">
            <path d="M0 0H23V13C23 18.5228 18.5228 23 13 23H0V0Z" fill="white"/>
        </clipPath>
    </defs>
</svg>
