<svg width="26" height="23" viewBox="0 0 26 23" fill="none"
    xmlns="http://www.w3.org/2000/svg">
    <path d="M7.7238 0.939851C8.22654 1.3918 8.26716 2.1586 7.81521 2.66134L4.15896 6.72384C3.93552 6.97266 3.62068 7.11993 3.28552 7.12501C2.95037 7.13009 2.63044 7.00313 2.39177 6.76954L0.355444 4.73829C-0.116821 4.26095 -0.116821 3.48907 0.355444 3.01173C0.82771 2.53438 1.60466 2.53438 2.07693 3.01173L3.19919 4.13399L5.99724 1.02618C6.44919 0.523445 7.21599 0.48282 7.71873 0.934773L7.7238 0.939851ZM7.7238 9.06485C8.22654 9.5168 8.26716 10.2836 7.81521 10.7863L4.15896 14.8488C3.93552 15.0977 3.62068 15.2449 3.28552 15.25C2.95037 15.2551 2.63044 15.1281 2.39177 14.8945L0.355444 12.8633C-0.121899 12.3859 -0.121899 11.6141 0.355444 11.1418C0.832788 10.6695 1.60466 10.6645 2.07693 11.1418L3.19919 12.2641L5.99724 9.15626C6.44919 8.65352 7.21599 8.6129 7.71873 9.06485H7.7238ZM11.375 3.87501C11.375 2.97618 12.1011 2.25001 13 2.25001H24.375C25.2738 2.25001 26 2.97618 26 3.87501C26 4.77384 25.2738 5.50001 24.375 5.50001H13C12.1011 5.50001 11.375 4.77384 11.375 3.87501ZM11.375 12C11.375 11.1012 12.1011 10.375 13 10.375H24.375C25.2738 10.375 26 11.1012 26 12C26 12.8988 25.2738 13.625 24.375 13.625H13C12.1011 13.625 11.375 12.8988 11.375 12ZM8.12498 20.125C8.12498 19.2262 8.85115 18.5 9.74998 18.5H24.375C25.2738 18.5 26 19.2262 26 20.125C26 21.0238 25.2738 21.75 24.375 21.75H9.74998C8.85115 21.75 8.12498 21.0238 8.12498 20.125ZM2.43748 17.6875C3.08394 17.6875 3.70393 17.9443 4.16105 18.4014C4.61817 18.8586 4.87498 19.4785 4.87498 20.125C4.87498 20.7715 4.61817 21.3915 4.16105 21.8486C3.70393 22.3057 3.08394 22.5625 2.43748 22.5625C1.79101 22.5625 1.17102 22.3057 0.713903 21.8486C0.256783 21.3915 -2.44286e-05 20.7715 -2.44286e-05 20.125C-2.44286e-05 19.4785 0.256783 18.8586 0.713903 18.4014C1.17102 17.9443 1.79101 17.6875 2.43748 17.6875Z" fill="#3C3C3C"/>
</svg>
