<svg width="20" height="25" viewBox="0 0 26 31" fill="none"
    xmlns="http://www.w3.org/2000/svg">
    <path d="M13.0922 3.56811C10.618 3.56811 8.61401 5.65491 8.61401 8.23135V11.9619H22.0487C24.0247 11.9619 25.6312 13.6349 25.6312 15.6925V26.8843C25.6312 28.942 24.0247 30.6149 22.0487 30.6149H4.1358C2.15978 30.6149 0.553223 28.942 0.553223 26.8843V15.6925C0.553223 13.6349 2.15978 11.9619 4.1358 11.9619H5.92708V8.23135C5.92708 4.11022 9.13461 0.770172 13.0922 0.770172C16.283 0.770172 18.9811 2.93858 19.9103 5.93471C20.1398 6.66917 19.7536 7.45609 19.0427 7.69508C18.3317 7.93407 17.5816 7.53187 17.3521 6.79158C16.7756 4.92045 15.085 3.56811 13.0922 3.56811ZM4.1358 14.7599C3.64319 14.7599 3.24015 15.1796 3.24015 15.6925V26.8843C3.24015 27.3973 3.64319 27.8169 4.1358 27.8169H22.0487C22.5413 27.8169 22.9443 27.3973 22.9443 26.8843V15.6925C22.9443 15.1796 22.5413 14.7599 22.0487 14.7599H4.1358ZM14.8835 22.6874H11.3009C10.5564 22.6874 9.95748 22.0637 9.95748 21.2884C9.95748 20.5132 10.5564 19.8894 11.3009 19.8894H14.8835C15.628 19.8894 16.227 20.5132 16.227 21.2884C16.227 22.0637 15.628 22.6874 14.8835 22.6874Z" fill="white"/>
</svg>
