<svg height="1em" viewBox="0 0 30 30" fill="none" xmlns="http://www.w3.org/2000/svg">
<circle cx="15" cy="15" r="15" fill="#FFF4EF"/>
<path d="M23.7063 15.7063C24.0969 15.3156 24.0969 14.6813 23.7063 14.2906L19.7063 10.2906C19.3156 9.9 18.6812 9.9 18.2906 10.2906C17.9 10.6813 17.9 11.3156 18.2906 11.7063L20.5844 14H14C13.4469 14 13 14.4469 13 15C13 15.5531 13.4469 16 14 16H20.5844L18.2906 18.2937C17.9 18.6844 17.9 19.3188 18.2906 19.7094C18.6812 20.1 19.3156 20.1 19.7063 19.7094L23.7063 15.7094V15.7063ZM13 10C13.5531 10 14 9.55313 14 9C14 8.44687 13.5531 8 13 8H11C9.34375 8 8 9.34375 8 11V19C8 20.6562 9.34375 22 11 22H13C13.5531 22 14 21.5531 14 21C14 20.4469 13.5531 20 13 20H11C10.4469 20 10 19.5531 10 19V11C10 10.4469 10.4469 10 11 10H13Z" fill="#F86C1D"/>
</svg>
