<svg height="1em" viewBox="0 0 30 30" fill="none" xmlns="http://www.w3.org/2000/svg">
<circle cx="15" cy="15" r="15" fill="#F5F5F5"/>
<path d="M15.0003 7C14.4472 7 14.0003 7.44687 14.0003 8V8.55938C11.7347 8.91875 10.0003 10.8812 10.0003 13.25V14.2937C10.0003 15.7125 9.5159 17.0906 8.63153 18.1969L8.1659 18.7812C7.98465 19.0063 7.95028 19.3156 8.07528 19.575C8.20028 19.8344 8.46278 20 8.75028 20H21.2503C21.5378 20 21.8003 19.8344 21.9253 19.575C22.0503 19.3156 22.0159 19.0063 21.8347 18.7812L21.369 18.2C20.4847 17.0906 20.0003 15.7125 20.0003 14.2937V13.25C20.0003 10.8812 18.2659 8.91875 16.0003 8.55938V8C16.0003 7.44687 15.5534 7 15.0003 7ZM15.0003 10H15.2503C17.044 10 18.5003 11.4563 18.5003 13.25V14.2937C18.5003 15.7906 18.9347 17.25 19.7409 18.5H10.2597C11.0659 17.25 11.5003 15.7906 11.5003 14.2937V13.25C11.5003 11.4563 12.9565 10 14.7503 10H15.0003ZM17.0003 21H15.0003H13.0003C13.0003 21.5312 13.2097 22.0406 13.5847 22.4156C13.9597 22.7906 14.469 23 15.0003 23C15.5315 23 16.0409 22.7906 16.4159 22.4156C16.7909 22.0406 17.0003 21.5312 17.0003 21Z" fill="#8E8E8E"/>
</svg>
