<svg height="1em" viewBox="0 0 35 35" fill="none" xmlns="http://www.w3.org/2000/svg">
<rect x="0.554443" y="0.322784" width="33.8912" height="34.17" rx="5" fill="#F5F5F5"/>
<path d="M24.2893 16.3758H24.5834C25.0435 16.3758 25.4137 16.0122 25.4137 15.5601V11.2098C25.4137 10.8801 25.213 10.5811 24.9017 10.4553C24.5903 10.3295 24.234 10.3975 23.9952 10.632L22.556 12.0459C19.5254 9.10602 14.6438 9.11622 11.6304 12.0799C8.60318 15.0537 8.60318 19.8731 11.6304 22.8469C14.6576 25.8208 19.5634 25.8208 22.5906 22.8469C23.0231 22.4221 23.0231 21.7321 22.5906 21.3073C22.1582 20.8825 21.4558 20.8825 21.0234 21.3073C18.8611 23.4315 15.3565 23.4315 13.1942 21.3073C11.0319 19.1831 11.0319 15.7403 13.1942 13.6161C15.3461 11.5021 18.823 11.4919 20.9888 13.5821L19.5669 14.9824C19.3281 15.2169 19.259 15.5669 19.387 15.8728C19.515 16.1787 19.8194 16.3758 20.155 16.3758H24.2893Z" fill="#515151"/>
</svg>
