<svg height="1em" viewBox="0 0 30 30" fill="none" xmlns="http://www.w3.org/2000/svg">
<circle cx="15" cy="15" r="15" fill="#F5F5F5"/>
<path d="M12.0316 7.03456C12.3205 6.9283 12.6426 7.01795 12.8484 7.24706L14.1566 8.68475C14.4322 8.64823 14.7145 8.62831 15 8.62831C15.2855 8.62831 15.5678 8.64823 15.8434 8.68475L17.1516 7.24706C17.3574 7.01795 17.6795 6.9283 17.9684 7.03456C18.3635 7.18065 18.742 7.35663 19.1072 7.55916L19.3762 7.71522C19.7414 7.93436 20.0867 8.18006 20.4121 8.44901C20.6512 8.64491 20.7309 8.9703 20.6379 9.26249L20.0502 11.1119C20.3922 11.5568 20.6777 12.0482 20.8936 12.5728L22.7895 12.9879C23.0916 13.0543 23.3307 13.2867 23.3805 13.5922C23.4568 14.0504 23.4967 14.5219 23.4967 15.0033C23.4967 15.4848 23.4568 15.9562 23.3805 16.4144C23.3307 16.7199 23.0916 16.9523 22.7895 17.0187L20.8936 17.4338C20.6777 17.9584 20.3922 18.4498 20.0502 18.8947L20.6412 20.7408C20.7342 21.033 20.6512 21.3584 20.4154 21.5543C20.09 21.8232 19.7447 22.0689 19.3795 22.2881L19.1105 22.4441C18.7453 22.6467 18.3668 22.8226 17.9717 22.9687C17.6828 23.075 17.3607 22.9853 17.1549 22.7562L15.8467 21.3185C15.5678 21.3551 15.2855 21.375 15 21.375C14.7145 21.375 14.4322 21.3551 14.1566 21.3185L12.8484 22.7562C12.6426 22.9853 12.3205 23.075 12.0316 22.9687C11.6365 22.8226 11.258 22.6467 10.8928 22.4441L10.6238 22.2881C10.2586 22.0689 9.91328 21.8232 9.58789 21.5543C9.34883 21.3584 9.26914 21.033 9.36211 20.7408L9.9498 18.8914C9.60781 18.4465 9.32227 17.9551 9.10645 17.4305L7.21055 17.0154C6.9084 16.949 6.66934 16.7166 6.61953 16.4111C6.53984 15.9529 6.5 15.4814 6.5 15C6.5 14.5185 6.53984 14.0471 6.61621 13.5889C6.66602 13.2834 6.90508 13.051 7.20723 12.9846L9.10313 12.5695C9.31895 12.0449 9.60449 11.5535 9.94648 11.1086L9.35879 9.25916C9.26582 8.96698 9.34883 8.64159 9.58457 8.44569C9.90996 8.17674 10.2553 7.93104 10.6205 7.7119L10.8895 7.55584C11.2547 7.3533 11.6332 7.17733 12.0283 7.03123L12.0316 7.03456ZM17.6562 15C17.6562 14.2955 17.3764 13.6199 16.8783 13.1217C16.3801 12.6236 15.7045 12.3437 15 12.3437C14.2955 12.3437 13.6199 12.6236 13.1217 13.1217C12.6236 13.6199 12.3438 14.2955 12.3438 15C12.3438 15.7045 12.6236 16.3801 13.1217 16.8782C13.6199 17.3764 14.2955 17.6562 15 17.6562C15.7045 17.6562 16.3801 17.3764 16.8783 16.8782C17.3764 16.3801 17.6562 15.7045 17.6562 15Z" fill="#8E8E8E"/>
</svg>
