<svg width="28" height="26" viewBox="0 0 36 26" fill="none" xmlns="http://www.w3.org/2000/svg">
<path d="M34.6725 9.91751L25.0075 6.44376L20.9675 1.37126C20.6162 0.94176 20.1737 0.595867 19.6721 0.358683C19.1705 0.1215 18.6224 -0.00102381 18.0675 6.44375e-06H8.0725C7.46121 -0.000198789 6.85915 0.149137 6.31882 0.434992C5.77848 0.720846 5.31628 1.13454 4.9725 1.64001L1.5825 6.61876C0.876443 7.65492 0.499193 8.8799 0.500001 10.1338V20C0.500001 20.3315 0.631697 20.6495 0.866118 20.8839C1.10054 21.1183 1.41848 21.25 1.75 21.25H4.4275C4.69942 22.3228 5.32129 23.2743 6.19472 23.954C7.06815 24.6336 8.14328 25.0027 9.25 25.0027C10.3567 25.0027 11.4318 24.6336 12.3053 23.954C13.1787 23.2743 13.8006 22.3228 14.0725 21.25H21.9275C22.1994 22.3228 22.8213 23.2743 23.6947 23.954C24.5682 24.6336 25.6433 25.0027 26.75 25.0027C27.8567 25.0027 28.9318 24.6336 29.8053 23.954C30.6787 23.2743 31.3006 22.3228 31.5725 21.25H34.25C34.5815 21.25 34.8995 21.1183 35.1339 20.8839C35.3683 20.6495 35.5 20.3315 35.5 20V11.0938C35.5 10.8364 35.4205 10.5852 35.2724 10.3747C35.1242 10.1642 34.9148 10.0045 34.6725 9.91751ZM9.25 22.5C8.75555 22.5 8.2722 22.3534 7.86108 22.0787C7.44995 21.804 7.12952 21.4135 6.9403 20.9567C6.75108 20.4999 6.70157 19.9972 6.79804 19.5123C6.8945 19.0273 7.1326 18.5819 7.48223 18.2322C7.83187 17.8826 8.27732 17.6445 8.76228 17.548C9.24723 17.4516 9.74989 17.5011 10.2067 17.6903C10.6635 17.8795 11.054 18.2 11.3287 18.6111C11.6034 19.0222 11.75 19.5056 11.75 20C11.749 20.6627 11.4853 21.2981 11.0167 21.7667C10.548 22.2353 9.91274 22.499 9.25 22.5ZM26.75 22.5C26.2555 22.5 25.7722 22.3534 25.3611 22.0787C24.95 21.804 24.6295 21.4135 24.4403 20.9567C24.2511 20.4999 24.2016 19.9972 24.298 19.5123C24.3945 19.0273 24.6326 18.5819 24.9822 18.2322C25.3319 17.8826 25.7773 17.6445 26.2623 17.548C26.7472 17.4516 27.2499 17.5011 27.7067 17.6903C28.1635 17.8795 28.554 18.2 28.8287 18.6111C29.1034 19.0222 29.25 19.5056 29.25 20C29.2493 20.6628 28.9857 21.2983 28.517 21.767C28.0483 22.2357 27.4128 22.4993 26.75 22.5ZM33 18.75H31.5725C31.3006 17.6772 30.6787 16.7257 29.8053 16.046C28.9318 15.3664 27.8567 14.9973 26.75 14.9973C25.6433 14.9973 24.5682 15.3664 23.6947 16.046C22.8213 16.7257 22.1994 17.6772 21.9275 18.75H14.0725C13.8006 17.6772 13.1787 16.7257 12.3053 16.046C11.4318 15.3664 10.3567 14.9973 9.25 14.9973C8.14328 14.9973 7.06815 15.3664 6.19472 16.046C5.32129 16.7257 4.69942 17.6772 4.4275 18.75H3V10.1338C2.99987 9.38111 3.22636 8.64586 3.65 8.02376L7.03875 3.04751C7.15334 2.87886 7.30744 2.7408 7.48763 2.64537C7.66781 2.54994 7.86861 2.50003 8.0725 2.50001H18.0675C18.2494 2.49929 18.4292 2.53855 18.5942 2.61502C18.7593 2.69149 18.9055 2.80329 19.0225 2.94251L23.2725 8.27876C23.417 8.46019 23.6092 8.59782 23.8275 8.67626L33 11.9725V18.75Z" fill="black" fill-opacity="0.87"/>
</svg>
