<svg width="24" height="34" viewBox="0 0 28 34" fill="none" xmlns="http://www.w3.org/2000/svg">
<path d="M16.8573 12.7099C16.858 13.468 16.5576 14.1954 16.022 14.732C15.4865 15.2686 14.7597 15.5705 14.0016 15.5713C13.2434 15.572 12.516 15.2716 11.9794 14.7361C11.4428 14.2005 11.1409 13.4737 11.1401 12.7156C11.1398 12.3402 11.2133 11.9684 11.3566 11.6214C11.5 11.2745 11.7102 10.9591 11.9754 10.6934C12.5109 10.1568 13.2377 9.8549 13.9959 9.85415C14.754 9.85339 15.4814 10.1538 16.018 10.6894C16.5546 11.2249 16.8565 11.9517 16.8573 12.7099ZM19.0001 18.1613V18.9327C19.0001 20.4827 16.8716 21.6427 14.0001 21.6427C11.1287 21.6427 9.00014 20.4813 9.00014 18.9341V18.1613C8.99958 18.0092 9.029 17.8585 9.08672 17.7178C9.14444 17.5771 9.22933 17.4492 9.33653 17.3413C9.44373 17.2334 9.57115 17.1478 9.71149 17.0892C9.85183 17.0306 10.0023 17.0002 10.1544 16.9999H17.8459C17.9979 17.0002 18.1484 17.0306 18.2888 17.0892C18.4291 17.1478 18.5565 17.2334 18.6637 17.3413C18.771 17.4492 18.8558 17.5771 18.9136 17.7178C18.9713 17.8585 19.0007 18.0092 19.0001 18.1613ZM5.07157 0.571289C3.84021 0.571289 2.65928 1.06045 1.78857 1.93115C0.917867 2.80186 0.428711 3.98278 0.428711 5.21415V28.7856C0.428711 30.0169 0.917867 31.1979 1.78857 32.0686C2.65928 32.9393 3.84021 33.4284 5.07157 33.4284H26.5001C26.7843 33.4284 27.0568 33.3156 27.2578 33.1146C27.4587 32.9137 27.5716 32.6412 27.5716 32.357C27.5716 32.0728 27.4587 31.8003 27.2578 31.5994C27.0568 31.3985 26.7843 31.2856 26.5001 31.2856H5.07157C4.47042 31.2856 3.8894 31.0689 3.43498 30.6754C2.98056 30.2818 2.68316 29.7377 2.59728 29.1427H26.5001C26.7843 29.1427 27.0568 29.0298 27.2578 28.8289C27.4587 28.628 27.5716 28.3554 27.5716 28.0713V5.21415C27.5716 3.98278 27.0824 2.80186 26.2117 1.93115C25.341 1.06045 24.1601 0.571289 22.9287 0.571289H5.07157ZM25.4287 5.21415V26.9999H2.57157V5.21415C2.57157 3.83415 3.69157 2.71415 5.07157 2.71415H22.9287C24.3087 2.71415 25.4287 3.83415 25.4287 5.21415Z" fill="black" fill-opacity="0.87"/>
</svg>
