<svg width="29" height="40" viewBox="0 0 40 40" fill="none" xmlns="http://www.w3.org/2000/svg">
<path d="M20 10L22.39 14.6287L27.5 15.3713L23.75 18.75L25 23.75L20 20.9375L15 23.75L16.25 18.75L12.5 15.3713L17.75 14.6287L20 10Z" fill="#F86C1D" fill-opacity="0.87"/>
<path d="M22.17 37.5L20 36.25L25 27.5H32.5C32.8284 27.5005 33.1538 27.4362 33.4573 27.3107C33.7608 27.1852 34.0366 27.0011 34.2689 26.7689C34.5011 26.5366 34.6852 26.2608 34.8107 25.9573C34.9362 25.6538 35.0005 25.3284 35 25V10C35.0005 9.67156 34.9362 9.34624 34.8107 9.04271C34.6852 8.73917 34.5011 8.46338 34.2689 8.23113C34.0366 7.99889 33.7608 7.81476 33.4573 7.6893C33.1538 7.56383 32.8284 7.49951 32.5 7.5H7.5C7.17156 7.49951 6.84624 7.56383 6.54271 7.6893C6.23917 7.81476 5.96338 7.99889 5.73113 8.23113C5.49889 8.46338 5.31476 8.73917 5.1893 9.04271C5.06383 9.34624 4.99951 9.67156 5 10V25C4.99951 25.3284 5.06383 25.6538 5.1893 25.9573C5.31476 26.2608 5.49889 26.5366 5.73113 26.7689C5.96338 27.0011 6.23917 27.1852 6.54271 27.3107C6.84624 27.4362 7.17156 27.5005 7.5 27.5H18.75V30H7.5C6.17392 30 4.90215 29.4732 3.96447 28.5355C3.02678 27.5979 2.5 26.3261 2.5 25V10C2.49984 9.34334 2.62905 8.69309 2.88027 8.08639C3.13148 7.47969 3.49977 6.92843 3.9641 6.4641C4.42843 5.99977 4.97969 5.63148 5.58639 5.38027C6.19309 5.12905 6.84334 4.99984 7.5 5H32.5C33.1567 4.99984 33.8069 5.12905 34.4136 5.38027C35.0203 5.63148 35.5716 5.99977 36.0359 6.4641C36.5002 6.92843 36.8685 7.47969 37.1197 8.08639C37.3709 8.69309 37.5002 9.34334 37.5 10V25C37.5 26.3261 36.9732 27.5979 36.0355 28.5355C35.0979 29.4732 33.8261 30 32.5 30H26.4563L22.17 37.5Z" fill="#F86C1D" fill-opacity="0.87"/>
</svg>
