<svg width="25" height="33" viewBox="0 0 32 33" fill="none" xmlns="http://www.w3.org/2000/svg">
<path d="M9.57143 5H5.28571C4.14907 5 3.05898 5.35119 2.25526 5.97631C1.45153 6.60143 1 7.44928 1 8.33333V28.3333C1 29.2174 1.45153 30.0652 2.25526 30.6904C3.05898 31.3155 4.14907 31.6667 5.28571 31.6667H26.7143C27.8509 31.6667 28.941 31.3155 29.7447 30.6904C30.5485 30.0652 31 29.2174 31 28.3333V8.33333C31 7.44928 30.5485 6.60143 29.7447 5.97631C28.941 5.35119 27.8509 5 26.7143 5H22.4286" stroke="#F86C1D" stroke-opacity="0.87" stroke-width="2" stroke-linecap="round" stroke-linejoin="round"/>
<path d="M10 24.3333V16M16.4286 24.3333V22.6667M22.8571 24.3333V19.3333M10 4.33333C10 3.44928 10.4515 2.60143 11.2553 1.97631C12.059 1.35119 13.1491 1 14.2857 1H18.5714C19.7081 1 20.7982 1.35119 21.6019 1.97631C22.4056 2.60143 22.8571 3.44928 22.8571 4.33333C22.8571 5.21739 22.4056 6.06524 21.6019 6.69036C20.7982 7.31548 19.7081 7.66667 18.5714 7.66667H14.2857C13.1491 7.66667 12.059 7.31548 11.2553 6.69036C10.4515 6.06524 10 5.21739 10 4.33333Z" stroke="#F86C1D" stroke-opacity="0.87" stroke-width="2" stroke-linecap="round" stroke-linejoin="round"/>
</svg>
