<svg width="25" height="32" viewBox="0 0 32 32" fill="none" xmlns="http://www.w3.org/2000/svg">
<path d="M9.57143 4.3335H5.28571C4.14907 4.3335 3.05898 4.68469 2.25526 5.30981C1.45153 5.93493 1 6.78277 1 7.66683V27.6668C1 28.5509 1.45153 29.3987 2.25526 30.0239C3.05898 30.649 4.14907 31.0002 5.28571 31.0002H26.7143C27.8509 31.0002 28.941 30.649 29.7447 30.0239C30.5485 29.3987 31 28.5509 31 27.6668V7.66683C31 6.78277 30.5485 5.93493 29.7447 5.30981C28.941 4.68469 27.8509 4.3335 26.7143 4.3335H22.4286" stroke="#F86C1D" stroke-opacity="0.87" stroke-width="2" stroke-linecap="round" stroke-linejoin="round"/>
<path d="M10 24.3333V16M16.4286 24.3333V22.6667M22.8571 24.3333V19.3333M10 4.33333C10 3.44928 10.4515 2.60143 11.2553 1.97631C12.059 1.35119 13.1491 1 14.2857 1H18.5714C19.7081 1 20.7982 1.35119 21.6019 1.97631C22.4056 2.60143 22.8571 3.44928 22.8571 4.33333C22.8571 5.21739 22.4056 6.06524 21.6019 6.69036C20.7982 7.31548 19.7081 7.66667 18.5714 7.66667H14.2857C13.1491 7.66667 12.059 7.31548 11.2553 6.69036C10.4515 6.06524 10 5.21739 10 4.33333Z" stroke="#F86C1D" stroke-opacity="0.87" stroke-width="2" stroke-linecap="round" stroke-linejoin="round"/>
</svg>
