<svg width="27" height="30" viewBox="0 0 36 30" fill="none" xmlns="http://www.w3.org/2000/svg">
<path d="M13.005 4.99988C13.005 3.67513 13.5313 2.40463 14.468 1.46788C15.4047 0.53114 16.6752 0.00488281 18 0.00488281C19.3248 0.00488281 20.5953 0.53114 21.532 1.46788C22.4687 2.40463 22.995 3.67513 22.995 4.99988C22.995 6.32464 22.4687 7.59514 21.532 8.53188C20.5953 9.46863 19.3248 9.99488 18 9.99488C16.6752 9.99488 15.4047 9.46863 14.468 8.53188C13.5313 7.59514 13.005 6.32464 13.005 4.99988ZM18 2.50488C17.6724 2.50488 17.3479 2.56942 17.0452 2.6948C16.7425 2.82019 16.4675 3.00397 16.2358 3.23565C16.0041 3.46733 15.8203 3.74238 15.6949 4.04509C15.5695 4.3478 15.505 4.67223 15.505 4.99988C15.505 5.32753 15.5695 5.65197 15.6949 5.95468C15.8203 6.25738 16.0041 6.53243 16.2358 6.76411C16.4675 6.9958 16.7425 7.17958 17.0452 7.30496C17.3479 7.43035 17.6724 7.49488 18 7.49488C18.6617 7.49488 19.2963 7.23202 19.7642 6.76411C20.2321 6.29621 20.495 5.6616 20.495 4.99988C20.495 4.33817 20.2321 3.70355 19.7642 3.23565C19.2963 2.76775 18.6617 2.50488 18 2.50488ZM25.5 6.24988C25.5 5.75743 25.597 5.26979 25.7855 4.81482C25.9739 4.35985 26.2501 3.94645 26.5983 3.59823C26.9466 3.25001 27.36 2.97379 27.8149 2.78533C28.2699 2.59688 28.7575 2.49988 29.25 2.49988C29.7425 2.49988 30.2301 2.59688 30.6851 2.78533C31.14 2.97379 31.5534 3.25001 31.9017 3.59823C32.2499 3.94645 32.5261 4.35985 32.7145 4.81482C32.903 5.26979 33 5.75743 33 6.24988C33 7.24444 32.6049 8.19827 31.9017 8.90153C31.1984 9.60479 30.2446 9.99988 29.25 9.99988C28.2554 9.99988 27.3016 9.60479 26.5983 8.90153C25.8951 8.19827 25.5 7.24444 25.5 6.24988ZM29.25 4.99988C28.9185 4.99988 28.6005 5.13158 28.3661 5.366C28.1317 5.60042 28 5.91836 28 6.24988C28 6.5814 28.1317 6.89935 28.3661 7.13377C28.6005 7.36819 28.9185 7.49988 29.25 7.49988C29.5815 7.49988 29.8995 7.36819 30.1339 7.13377C30.3683 6.89935 30.5 6.5814 30.5 6.24988C30.5 5.91836 30.3683 5.60042 30.1339 5.366C29.8995 5.13158 29.5815 4.99988 29.25 4.99988ZM6.75 2.49988C5.75544 2.49988 4.80161 2.89497 4.09835 3.59823C3.39509 4.30149 3 5.25532 3 6.24988C3 7.24444 3.39509 8.19827 4.09835 8.90153C4.80161 9.60479 5.75544 9.99988 6.75 9.99988C7.74456 9.99988 8.69839 9.60479 9.40165 8.90153C10.1049 8.19827 10.5 7.24444 10.5 6.24988C10.5 5.25532 10.1049 4.30149 9.40165 3.59823C8.69839 2.89497 7.74456 2.49988 6.75 2.49988ZM5.5 6.24988C5.5 5.91836 5.6317 5.60042 5.86612 5.366C6.10054 5.13158 6.41848 4.99988 6.75 4.99988C7.08152 4.99988 7.39946 5.13158 7.63388 5.366C7.8683 5.60042 8 5.91836 8 6.24988C8 6.5814 7.8683 6.89935 7.63388 7.13377C7.39946 7.36819 7.08152 7.49988 6.75 7.49988C6.41848 7.49988 6.10054 7.36819 5.86612 7.13377C5.6317 6.89935 5.5 6.5814 5.5 6.24988ZM8.67 12.4999C8.23001 13.2595 7.99886 14.122 8 14.9999H3V21.2499C2.9998 21.8717 3.15424 22.4839 3.44942 23.0312C3.7446 23.5785 4.17125 24.0438 4.69097 24.3853C5.21069 24.7267 5.80716 24.9335 6.42669 24.9871C7.04622 25.0408 7.66935 24.9395 8.24 24.6924C8.425 25.5199 8.715 26.3099 9.09 27.0474C8.14116 27.4305 7.11277 27.5748 6.09514 27.4676C5.07751 27.3603 4.10177 27.0049 3.25361 26.4325C2.40544 25.86 1.7108 25.0881 1.23068 24.1845C0.750565 23.2808 0.49966 22.2731 0.5 21.2499V14.9999C0.5 14.3368 0.763392 13.701 1.23223 13.2321C1.70107 12.7633 2.33696 12.4999 3 12.4999H8.67ZM26.91 27.0474C27.8588 27.4305 28.8872 27.5748 29.9049 27.4676C30.9225 27.3603 31.8982 27.0049 32.7464 26.4325C33.5946 25.86 34.2892 25.0881 34.7693 24.1845C35.2494 23.2808 35.5003 22.2731 35.5 21.2499V14.9999C35.5 14.3368 35.2366 13.701 34.7678 13.2321C34.2989 12.7633 33.663 12.4999 33 12.4999H27.33C27.755 13.2349 28 14.0874 28 14.9999H33V21.2499C33.0002 21.8717 32.8458 22.4839 32.5506 23.0312C32.2554 23.5785 31.8288 24.0438 31.309 24.3853C30.7893 24.7267 30.1928 24.9335 29.5733 24.9871C28.9538 25.0408 28.3306 24.9395 27.76 24.6924C27.5725 25.5199 27.285 26.3099 26.91 27.0474ZM13 12.4974C12.337 12.4974 11.7011 12.7608 11.2322 13.2296C10.7634 13.6985 10.5 14.3343 10.5 14.9974V22.4999C10.5 24.489 11.2902 26.3967 12.6967 27.8032C14.1032 29.2097 16.0109 29.9999 18 29.9999C19.9891 29.9999 21.8968 29.2097 23.3033 27.8032C24.7098 26.3967 25.5 24.489 25.5 22.4999V14.9999C25.5 14.3368 25.2366 13.701 24.7678 13.2321C24.2989 12.7633 23.663 12.4999 23 12.4999H13V12.4974ZM13 14.9974H23V22.4999C23 23.826 22.4732 25.0977 21.5355 26.0354C20.5979 26.9731 19.3261 27.4999 18 27.4999C16.6739 27.4999 15.4021 26.9731 14.4645 26.0354C13.5268 25.0977 13 23.826 13 22.4999V14.9999V14.9974Z" fill="black" fill-opacity="0.87"/>
</svg>
