<svg width="19" height="19" viewBox="0 0 19 19" fill="none"
    xmlns="http://www.w3.org/2000/svg">
    <path d="M7.125 0C6.46816 0 5.9375 0.530664 5.9375 1.1875V2.375C5.9375 2.37871 5.9375 2.37871 5.9375 2.38242C4.50508 2.46406 3.25449 3.39551 2.77578 4.76113L1.46953 8.49063C0.608594 8.84688 0 9.69668 0 10.6875V16.0312V17.8125C0 18.4693 0.530664 19 1.1875 19H2.375C3.03184 19 3.5625 18.4693 3.5625 17.8125V16.0312H15.4375V17.8125C15.4375 18.4693 15.9682 19 16.625 19H17.8125C18.4693 19 19 18.4693 19 17.8125V16.0312V10.6875C19 9.69668 18.3914 8.84688 17.5305 8.49063L16.2242 4.76113C15.7455 3.39551 14.4949 2.46035 13.0625 2.38242C13.0625 2.37871 13.0625 2.37871 13.0625 2.375V1.1875C13.0625 0.530664 12.5318 0 11.875 0H7.125ZM6.13789 4.75H12.8621C13.3668 4.75 13.8158 5.06914 13.9828 5.54414L14.9514 8.3125H4.04863L5.01719 5.54414C5.18418 5.06914 5.6332 4.75 6.13789 4.75ZM3.5625 10.6875C3.87744 10.6875 4.17949 10.8126 4.40219 11.0353C4.62489 11.258 4.75 11.5601 4.75 11.875C4.75 12.1899 4.62489 12.492 4.40219 12.7147C4.17949 12.9374 3.87744 13.0625 3.5625 13.0625C3.24756 13.0625 2.94551 12.9374 2.72281 12.7147C2.50011 12.492 2.375 12.1899 2.375 11.875C2.375 11.5601 2.50011 11.258 2.72281 11.0353C2.94551 10.8126 3.24756 10.6875 3.5625 10.6875ZM14.25 11.875C14.25 11.5601 14.3751 11.258 14.5978 11.0353C14.8205 10.8126 15.1226 10.6875 15.4375 10.6875C15.7524 10.6875 16.0545 10.8126 16.2772 11.0353C16.4999 11.258 16.625 11.5601 16.625 11.875C16.625 12.1899 16.4999 12.492 16.2772 12.7147C16.0545 12.9374 15.7524 13.0625 15.4375 13.0625C15.1226 13.0625 14.8205 12.9374 14.5978 12.7147C14.3751 12.492 14.25 12.1899 14.25 11.875Z" fill="#545454"/>
</svg>
