<svg width="30" height="24" viewBox="0 0 28 22" fill="none"
    xmlns="http://www.w3.org/2000/svg">
    <path d="M17.5 4.10156C18.057 4.10156 18.5911 3.8855 18.9849 3.5009C19.3787 3.11631 19.6 2.59468 19.6 2.05078C19.6 1.50688 19.3787 0.985256 18.9849 0.60066C18.5911 0.216064 18.057 0 17.5 0C16.943 0 16.4089 0.216064 16.0151 0.60066C15.6212 0.985256 15.4 1.50688 15.4 2.05078C15.4 2.59468 15.6212 3.11631 16.0151 3.5009C16.4089 3.8855 16.943 4.10156 17.5 4.10156ZM18.69 6.83594L15.9862 4.75098C15.2294 4.16992 14.1619 4.16138 13.4006 4.73816L9.765 7.48108C8.42188 8.49792 8.51812 10.506 9.95312 11.3947L12.6 13.0353V17.7734C12.6 18.5297 13.2256 19.1406 14 19.1406C14.7744 19.1406 15.4 18.5297 15.4 17.7734V12.3047C15.4 11.8475 15.1681 11.4203 14.7787 11.1682L12.9062 9.95056L15.5444 7.87842L17.325 9.27124C17.5744 9.4635 17.8806 9.57031 18.2 9.57031H21C21.7744 9.57031 22.4 8.95935 22.4 8.20312C22.4 7.4469 21.7744 6.83594 21 6.83594H18.69ZM2.45 16.4062C2.45 15.5904 2.78187 14.808 3.37261 14.2311C3.96335 13.6542 4.76457 13.3301 5.6 13.3301C6.43543 13.3301 7.23665 13.6542 7.82739 14.2311C8.41813 14.808 8.75 15.5904 8.75 16.4062C8.75 17.2221 8.41813 18.0045 7.82739 18.5814C7.23665 19.1583 6.43543 19.4824 5.6 19.4824C4.76457 19.4824 3.96335 19.1583 3.37261 18.5814C2.78187 18.0045 2.45 17.2221 2.45 16.4062ZM11.2 16.4062C11.2 14.9558 10.61 13.5648 9.5598 12.5393C8.50959 11.5137 7.08521 10.9375 5.6 10.9375C4.11479 10.9375 2.69041 11.5137 1.6402 12.5393C0.589998 13.5648 0 14.9558 0 16.4062C0 17.8567 0.589998 19.2477 1.6402 20.2732C2.69041 21.2988 4.11479 21.875 5.6 21.875C7.08521 21.875 8.50959 21.2988 9.5598 20.2732C10.61 19.2477 11.2 17.8567 11.2 16.4062ZM19.25 16.4062C19.25 15.5904 19.5819 14.808 20.1726 14.2311C20.7634 13.6542 21.5646 13.3301 22.4 13.3301C23.2354 13.3301 24.0366 13.6542 24.6274 14.2311C25.2181 14.808 25.55 15.5904 25.55 16.4062C25.55 17.2221 25.2181 18.0045 24.6274 18.5814C24.0366 19.1583 23.2354 19.4824 22.4 19.4824C21.5646 19.4824 20.7634 19.1583 20.1726 18.5814C19.5819 18.0045 19.25 17.2221 19.25 16.4062ZM28 16.4062C28 14.9558 27.41 13.5648 26.3598 12.5393C25.3096 11.5137 23.8852 10.9375 22.4 10.9375C20.9148 10.9375 19.4904 11.5137 18.4402 12.5393C17.39 13.5648 16.8 14.9558 16.8 16.4062C16.8 17.8567 17.39 19.2477 18.4402 20.2732C19.4904 21.2988 20.9148 21.875 22.4 21.875C23.8852 21.875 25.3096 21.2988 26.3598 20.2732C27.41 19.2477 28 17.8567 28 16.4062Z" fill="#3C3C3C"/>
</svg>
