<svg width="30" height="29" viewBox="0 0 27 26" fill="none"
    xmlns="http://www.w3.org/2000/svg">
    <path d="M0.216211 1.93984C0.0738281 1.73672 0 1.49297 0 1.24922C0 0.558594 0.580078 0 1.29727 0H7.06113C7.65176 0 8.20547 0.299609 8.50605 0.787109L12.1184 6.58125C9.57656 6.89102 7.30371 8.03359 5.61094 9.72461L0.216211 1.93984ZM26.7785 1.93984L21.3891 9.72461C19.6963 8.03359 17.4234 6.89102 14.8816 6.58125L18.4939 0.787109C18.7998 0.299609 19.3482 0 19.9389 0H25.7027C26.4199 0 27 0.558594 27 1.24922C27 1.49297 26.9262 1.73672 26.7838 1.93984H26.7785ZM4.21875 17.0625C4.21875 14.6921 5.19659 12.4188 6.93717 10.7427C8.67774 9.06663 11.0385 8.125 13.5 8.125C15.9615 8.125 18.3223 9.06663 20.0628 10.7427C21.8034 12.4188 22.7812 14.6921 22.7812 17.0625C22.7812 19.4329 21.8034 21.7062 20.0628 23.3823C18.3223 25.0584 15.9615 26 13.5 26C11.0385 26 8.67774 25.0584 6.93717 23.3823C5.19659 21.7062 4.21875 19.4329 4.21875 17.0625ZM13.943 12.2434C13.7637 11.8879 13.2416 11.8879 13.057 12.2434L11.8758 14.5488C11.802 14.691 11.6648 14.7875 11.5066 14.8078L8.85938 15.1785C8.45332 15.2344 8.29512 15.7117 8.58516 15.991L10.4994 17.7887C10.6154 17.9004 10.6682 18.0527 10.6418 18.2102L10.1883 20.7441C10.1197 21.1301 10.5416 21.4297 10.9055 21.2469L13.268 20.0484C13.4104 19.9773 13.5844 19.9773 13.7268 20.0484L16.0893 21.2469C16.4531 21.4297 16.875 21.1352 16.8064 20.7441L16.3529 18.2102C16.3266 18.0578 16.3793 17.9004 16.4953 17.7887L18.4096 15.991C18.7049 15.7168 18.5414 15.2395 18.1354 15.1785L15.4934 14.8078C15.3352 14.7875 15.1928 14.6859 15.1242 14.5488L13.943 12.2434Z" fill="#3C3C3C"/>
</svg>
