<svg width="30" height="26" viewBox="0 0 28 24" fill="none"
    xmlns="http://www.w3.org/2000/svg">
    <path d="M0 3.92309H28C28 2.14112 26.6049 0.692322 24.8889 0.692322H3.11111C1.39514 0.692322 0 2.14112 0 3.92309ZM0 5.53848V20.0769C0 21.8589 1.39514 23.3077 3.11111 23.3077H24.8889C26.6049 23.3077 28 21.8589 28 20.0769V5.53848H0ZM3.11111 19.5368C3.11111 18.0476 4.27292 16.8462 5.70208 16.8462H11.409C12.8431 16.8462 14 18.0527 14 19.5368C14 19.8346 13.7667 20.0769 13.4799 20.0769H3.63125C3.34444 20.0769 3.11111 19.8346 3.11111 19.5368ZM8.55556 8.76924C9.38067 8.76924 10.172 9.10963 10.7554 9.71551C11.3389 10.3214 11.6667 11.1432 11.6667 12C11.6667 12.8569 11.3389 13.6786 10.7554 14.2845C10.172 14.8904 9.38067 15.2308 8.55556 15.2308C7.73044 15.2308 6.93911 14.8904 6.35567 14.2845C5.77222 13.6786 5.44444 12.8569 5.44444 12C5.44444 11.1432 5.77222 10.3214 6.35567 9.71551C6.93911 9.10963 7.73044 8.76924 8.55556 8.76924ZM17.1111 9.57694C17.1111 9.13271 17.4611 8.76924 17.8889 8.76924H24.1111C24.5389 8.76924 24.8889 9.13271 24.8889 9.57694C24.8889 10.0212 24.5389 10.3846 24.1111 10.3846H17.8889C17.4611 10.3846 17.1111 10.0212 17.1111 9.57694ZM17.1111 12.8077C17.1111 12.3635 17.4611 12 17.8889 12H24.1111C24.5389 12 24.8889 12.3635 24.8889 12.8077C24.8889 13.2519 24.5389 13.6154 24.1111 13.6154H17.8889C17.4611 13.6154 17.1111 13.2519 17.1111 12.8077ZM17.1111 16.0385C17.1111 15.5942 17.4611 15.2308 17.8889 15.2308H24.1111C24.5389 15.2308 24.8889 15.5942 24.8889 16.0385C24.8889 16.4827 24.5389 16.8462 24.1111 16.8462H17.8889C17.4611 16.8462 17.1111 16.4827 17.1111 16.0385Z" fill="#3C3C3C"/>
</svg>
