<svg width="22" height="20" viewBox="0 0 22 20" fill="none" xmlns="http://www.w3.org/2000/svg">
    <g clip-path="url(#clip0_920_4573)">
        <path
            d="M11 1.25C7.9139 1.25 5.44271 2.6875 3.64376 4.39844C1.85626 6.09375 0.66077 8.125 0.0954925 9.51953C-0.0305491 9.82812 -0.0305491 10.1719 0.0954925 10.4805C0.66077 11.875 1.85626 13.9062 3.64376 15.6016C5.44271 17.3125 7.9139 18.75 11 18.75C14.0861 18.75 16.5573 17.3125 18.3563 15.6016C20.1438 13.9023 21.3392 11.875 21.9083 10.4805C22.0344 10.1719 22.0344 9.82812 21.9083 9.51953C21.3392 8.125 20.1438 6.09375 18.3563 4.39844C16.5573 2.6875 14.0861 1.25 11 1.25ZM5.50001 10C5.50001 8.50816 6.07947 7.07742 7.11092 6.02252C8.14237 4.96763 9.54132 4.375 11 4.375C12.4587 4.375 13.8576 4.96763 14.8891 6.02252C15.9205 7.07742 16.5 8.50816 16.5 10C16.5 11.4918 15.9205 12.9226 14.8891 13.9775C13.8576 15.0324 12.4587 15.625 11 15.625C9.54132 15.625 8.14237 15.0324 7.11092 13.9775C6.07947 12.9226 5.50001 11.4918 5.50001 10ZM11 7.5C11 8.87891 9.90383 10 8.55556 10C8.28438 10 8.02466 9.95312 7.78021 9.87109C7.57015 9.80078 7.3257 9.93359 7.33334 10.1602C7.3448 10.4297 7.38299 10.6992 7.45556 10.9688C7.97883 12.9688 9.99167 14.1562 11.9472 13.6211C13.9028 13.0859 15.0639 11.0273 14.5406 9.02734C14.1167 7.40625 12.7149 6.31641 11.1566 6.25C10.9351 6.24219 10.8052 6.48828 10.874 6.70703C10.9542 6.95703 11 7.22266 11 7.5Z"
            fill="#797979" />
    </g>
    <defs>
        <clipPath id="clip0_920_4573">
            <rect width="22" height="20" fill="white" />
        </clipPath>
    </defs>
</svg>