<svg width="153" height="95" viewBox="0 0 153 95" fill="none" xmlns="http://www.w3.org/2000/svg">
    <path
        d="M73.27 88.09C72.48 88.09 71.75 87.96 71.08 87.7C70.41 87.43 69.83 87.055 69.34 86.575C68.85 86.095 68.465 85.53 68.185 84.88C67.915 84.23 67.78 83.52 67.78 82.75C67.78 81.98 67.915 81.27 68.185 80.62C68.465 79.97 68.85 79.405 69.34 78.925C69.84 78.445 70.425 78.075 71.095 77.815C71.765 77.545 72.495 77.41 73.285 77.41C74.045 77.41 74.76 77.54 75.43 77.8C76.1 78.05 76.665 78.43 77.125 78.94L76.42 79.645C75.99 79.205 75.515 78.89 74.995 78.7C74.475 78.5 73.915 78.4 73.315 78.4C72.685 78.4 72.1 78.51 71.56 78.73C71.02 78.94 70.55 79.245 70.15 79.645C69.75 80.035 69.435 80.495 69.205 81.025C68.985 81.545 68.875 82.12 68.875 82.75C68.875 83.38 68.985 83.96 69.205 84.49C69.435 85.01 69.75 85.47 70.15 85.87C70.55 86.26 71.02 86.565 71.56 86.785C72.1 86.995 72.685 87.1 73.315 87.1C73.915 87.1 74.475 87 74.995 86.8C75.515 86.6 75.99 86.28 76.42 85.84L77.125 86.545C76.665 87.055 76.1 87.44 75.43 87.7C74.76 87.96 74.04 88.09 73.27 88.09ZM84.0841 88V86.26L84.0391 85.975V83.065C84.0391 82.395 83.8491 81.88 83.4691 81.52C83.0991 81.16 82.5441 80.98 81.8041 80.98C81.2941 80.98 80.8091 81.065 80.3491 81.235C79.8891 81.405 79.4991 81.63 79.1791 81.91L78.6991 81.115C79.0991 80.775 79.5791 80.515 80.1391 80.335C80.6991 80.145 81.2891 80.05 81.9091 80.05C82.9291 80.05 83.7141 80.305 84.2641 80.815C84.8241 81.315 85.1041 82.08 85.1041 83.11V88H84.0841ZM81.3691 88.075C80.7791 88.075 80.2641 87.98 79.8241 87.79C79.3941 87.59 79.0641 87.32 78.8341 86.98C78.6041 86.63 78.4891 86.23 78.4891 85.78C78.4891 85.37 78.5841 85 78.7741 84.67C78.9741 84.33 79.2941 84.06 79.7341 83.86C80.1841 83.65 80.7841 83.545 81.5341 83.545H84.2491V84.34H81.5641C80.8041 84.34 80.2741 84.475 79.9741 84.745C79.6841 85.015 79.5391 85.35 79.5391 85.75C79.5391 86.2 79.7141 86.56 80.0641 86.83C80.4141 87.1 80.9041 87.235 81.5341 87.235C82.1341 87.235 82.6491 87.1 83.0791 86.83C83.5191 86.55 83.8391 86.15 84.0391 85.63L84.2791 86.365C84.0791 86.885 83.7291 87.3 83.2291 87.61C82.7391 87.92 82.1191 88.075 81.3691 88.075ZM87.9967 88V76.87H89.0617V88H87.9967ZM92.025 88V76.87H93.09V88H92.025ZM104.764 88.09C103.974 88.09 103.244 87.96 102.574 87.7C101.904 87.43 101.324 87.055 100.834 86.575C100.344 86.095 99.9591 85.53 99.6791 84.88C99.4091 84.23 99.2741 83.52 99.2741 82.75C99.2741 81.98 99.4091 81.27 99.6791 80.62C99.9591 79.97 100.344 79.405 100.834 78.925C101.334 78.445 101.919 78.075 102.589 77.815C103.259 77.545 103.989 77.41 104.779 77.41C105.539 77.41 106.254 77.54 106.924 77.8C107.594 78.05 108.159 78.43 108.619 78.94L107.914 79.645C107.484 79.205 107.009 78.89 106.489 78.7C105.969 78.5 105.409 78.4 104.809 78.4C104.179 78.4 103.594 78.51 103.054 78.73C102.514 78.94 102.044 79.245 101.644 79.645C101.244 80.035 100.929 80.495 100.699 81.025C100.479 81.545 100.369 82.12 100.369 82.75C100.369 83.38 100.479 83.96 100.699 84.49C100.929 85.01 101.244 85.47 101.644 85.87C102.044 86.26 102.514 86.565 103.054 86.785C103.594 86.995 104.179 87.1 104.809 87.1C105.409 87.1 105.969 87 106.489 86.8C107.009 86.6 107.484 86.28 107.914 85.84L108.619 86.545C108.159 87.055 107.594 87.44 106.924 87.7C106.254 87.96 105.534 88.09 104.764 88.09ZM113.754 88.075C112.934 88.075 112.214 87.905 111.594 87.565C110.974 87.215 110.489 86.74 110.139 86.14C109.789 85.53 109.614 84.835 109.614 84.055C109.614 83.275 109.779 82.585 110.109 81.985C110.449 81.385 110.909 80.915 111.489 80.575C112.079 80.225 112.739 80.05 113.469 80.05C114.209 80.05 114.864 80.22 115.434 80.56C116.014 80.89 116.469 81.36 116.799 81.97C117.129 82.57 117.294 83.265 117.294 84.055C117.294 84.105 117.289 84.16 117.279 84.22C117.279 84.27 117.279 84.325 117.279 84.385H110.424V83.59H116.709L116.289 83.905C116.289 83.335 116.164 82.83 115.914 82.39C115.674 81.94 115.344 81.59 114.924 81.34C114.504 81.09 114.019 80.965 113.469 80.965C112.929 80.965 112.444 81.09 112.014 81.34C111.584 81.59 111.249 81.94 111.009 82.39C110.769 82.84 110.649 83.355 110.649 83.935V84.1C110.649 84.7 110.779 85.23 111.039 85.69C111.309 86.14 111.679 86.495 112.149 86.755C112.629 87.005 113.174 87.13 113.784 87.13C114.264 87.13 114.709 87.045 115.119 86.875C115.539 86.705 115.899 86.445 116.199 86.095L116.799 86.785C116.449 87.205 116.009 87.525 115.479 87.745C114.959 87.965 114.384 88.075 113.754 88.075ZM123.482 80.05C124.122 80.05 124.682 80.175 125.162 80.425C125.652 80.665 126.032 81.035 126.302 81.535C126.582 82.035 126.722 82.665 126.722 83.425V88H125.657V83.53C125.657 82.7 125.447 82.075 125.027 81.655C124.617 81.225 124.037 81.01 123.287 81.01C122.727 81.01 122.237 81.125 121.817 81.355C121.407 81.575 121.087 81.9 120.857 82.33C120.637 82.75 120.527 83.26 120.527 83.86V88H119.462V80.125H120.482V82.285L120.317 81.88C120.567 81.31 120.967 80.865 121.517 80.545C122.067 80.215 122.722 80.05 123.482 80.05ZM132.088 88.075C131.348 88.075 130.778 87.875 130.378 87.475C129.978 87.075 129.778 86.51 129.778 85.78V78.385H130.843V85.72C130.843 86.18 130.958 86.535 131.188 86.785C131.428 87.035 131.768 87.16 132.208 87.16C132.678 87.16 133.068 87.025 133.378 86.755L133.753 87.52C133.543 87.71 133.288 87.85 132.988 87.94C132.698 88.03 132.398 88.075 132.088 88.075ZM128.368 81.01V80.125H133.243V81.01H128.368ZM138.759 88.075C137.939 88.075 137.219 87.905 136.599 87.565C135.979 87.215 135.494 86.74 135.144 86.14C134.794 85.53 134.619 84.835 134.619 84.055C134.619 83.275 134.784 82.585 135.114 81.985C135.454 81.385 135.914 80.915 136.494 80.575C137.084 80.225 137.744 80.05 138.474 80.05C139.214 80.05 139.869 80.22 140.439 80.56C141.019 80.89 141.474 81.36 141.804 81.97C142.134 82.57 142.299 83.265 142.299 84.055C142.299 84.105 142.294 84.16 142.284 84.22C142.284 84.27 142.284 84.325 142.284 84.385H135.429V83.59H141.714L141.294 83.905C141.294 83.335 141.169 82.83 140.919 82.39C140.679 81.94 140.349 81.59 139.929 81.34C139.509 81.09 139.024 80.965 138.474 80.965C137.934 80.965 137.449 81.09 137.019 81.34C136.589 81.59 136.254 81.94 136.014 82.39C135.774 82.84 135.654 83.355 135.654 83.935V84.1C135.654 84.7 135.784 85.23 136.044 85.69C136.314 86.14 136.684 86.495 137.154 86.755C137.634 87.005 138.179 87.13 138.789 87.13C139.269 87.13 139.714 87.045 140.124 86.875C140.544 86.705 140.904 86.445 141.204 86.095L141.804 86.785C141.454 87.205 141.014 87.525 140.484 87.745C139.964 87.965 139.389 88.075 138.759 88.075ZM144.466 88V80.125H145.486V82.27L145.381 81.895C145.601 81.295 145.971 80.84 146.491 80.53C147.011 80.21 147.656 80.05 148.426 80.05V81.085C148.386 81.085 148.346 81.085 148.306 81.085C148.266 81.075 148.226 81.07 148.186 81.07C147.356 81.07 146.706 81.325 146.236 81.835C145.766 82.335 145.531 83.05 145.531 83.98V88H144.466Z"
        fill="#F86C1D" />
    <path fill-rule="evenodd" clip-rule="evenodd"
        d="M0 41H8.55789C11.3193 41 13.5579 43.2386 13.5579 46V62.5194C16.8923 53.0479 25.9185 46.2591 36.5303 46.2591H44.8C44.8 51.7429 42.9871 56.8032 39.928 60.8735C38.2245 59.7617 36.185 59.1148 33.993 59.1148C28.0244 59.1148 23.186 63.9112 23.186 69.8278C23.186 75.7445 28.0244 80.5409 33.993 80.5409C39.9615 80.5409 44.8 75.7445 44.8 69.8278C44.8 69.2308 44.7507 68.6452 44.656 68.0748H52.986C54.6506 68.0748 56 69.4242 56 71.0888C56 82.9787 46.1729 92.6174 34.283 92.6174C24.8526 92.6174 16.6973 86.6591 13.5579 78.3018V82.76C13.5579 89.3874 8.18531 94.76 1.55789 94.76H0V41ZM41.4596 68.2696V68.5942C41.4596 72.7179 38.1167 76.0609 33.993 76.0609C29.8693 76.0609 26.5263 72.7179 26.5263 68.5942V68.2696H41.4596Z"
        fill="#F86C1D" />
    <path
        d="M71.472 64.16L71.256 59.672L79.296 51.2H83.616L76.368 59L74.208 61.304L71.472 64.16ZM67.992 68V51.2H71.856V68H67.992ZM79.488 68L73.512 60.68L76.056 57.92L84.024 68H79.488ZM93.1324 68V65.48L92.8924 64.928V60.416C92.8924 59.616 92.6444 58.992 92.1484 58.544C91.6684 58.096 90.9244 57.872 89.9164 57.872C89.2284 57.872 88.5484 57.984 87.8764 58.208C87.2204 58.416 86.6604 58.704 86.1964 59.072L84.8524 56.456C85.5564 55.96 86.4044 55.576 87.3964 55.304C88.3884 55.032 89.3964 54.896 90.4204 54.896C92.3884 54.896 93.9164 55.36 95.0044 56.288C96.0924 57.216 96.6364 58.664 96.6364 60.632V68H93.1324ZM89.1964 68.192C88.1884 68.192 87.3244 68.024 86.6044 67.688C85.8844 67.336 85.3324 66.864 84.9484 66.272C84.5644 65.68 84.3724 65.016 84.3724 64.28C84.3724 63.512 84.5564 62.84 84.9244 62.264C85.3084 61.688 85.9084 61.24 86.7244 60.92C87.5404 60.584 88.6044 60.416 89.9164 60.416H93.3484V62.6H90.3244C89.4444 62.6 88.8364 62.744 88.5004 63.032C88.1804 63.32 88.0204 63.68 88.0204 64.112C88.0204 64.592 88.2044 64.976 88.5724 65.264C88.9564 65.536 89.4764 65.672 90.1324 65.672C90.7564 65.672 91.3164 65.528 91.8124 65.24C92.3084 64.936 92.6684 64.496 92.8924 63.92L93.4684 65.648C93.1964 66.48 92.7004 67.112 91.9804 67.544C91.2604 67.976 90.3324 68.192 89.1964 68.192ZM107.657 68.192C106.521 68.192 105.545 67.952 104.729 67.472C103.913 66.992 103.289 66.264 102.857 65.288C102.425 64.296 102.209 63.048 102.209 61.544C102.209 60.024 102.433 58.776 102.881 57.8C103.345 56.824 103.985 56.096 104.801 55.616C105.617 55.136 106.569 54.896 107.657 54.896C108.873 54.896 109.961 55.168 110.921 55.712C111.897 56.256 112.665 57.024 113.225 58.016C113.801 59.008 114.089 60.184 114.089 61.544C114.089 62.888 113.801 64.056 113.225 65.048C112.665 66.04 111.897 66.816 110.921 67.376C109.961 67.92 108.873 68.192 107.657 68.192ZM100.025 68V50.192H103.769V57.704L103.529 61.52L103.601 65.36V68H100.025ZM107.009 65.12C107.633 65.12 108.185 64.976 108.665 64.688C109.161 64.4 109.553 63.992 109.841 63.464C110.145 62.92 110.297 62.28 110.297 61.544C110.297 60.792 110.145 60.152 109.841 59.624C109.553 59.096 109.161 58.688 108.665 58.4C108.185 58.112 107.633 57.968 107.009 57.968C106.385 57.968 105.825 58.112 105.329 58.4C104.833 58.688 104.441 59.096 104.153 59.624C103.865 60.152 103.721 60.792 103.721 61.544C103.721 62.28 103.865 62.92 104.153 63.464C104.441 63.992 104.833 64.4 105.329 64.688C105.825 64.976 106.385 65.12 107.009 65.12ZM124.971 68.288C123.643 68.288 122.419 68.08 121.299 67.664C120.195 67.232 119.227 66.624 118.395 65.84C117.579 65.056 116.939 64.136 116.475 63.08C116.027 62.024 115.803 60.864 115.803 59.6C115.803 58.336 116.027 57.176 116.475 56.12C116.939 55.064 117.587 54.144 118.419 53.36C119.251 52.576 120.227 51.976 121.347 51.56C122.467 51.128 123.699 50.912 125.043 50.912C126.531 50.912 127.867 51.16 129.051 51.656C130.251 52.152 131.259 52.872 132.075 53.816L129.579 56.12C128.971 55.48 128.307 55.008 127.587 54.704C126.867 54.384 126.083 54.224 125.235 54.224C124.419 54.224 123.675 54.352 123.003 54.608C122.331 54.864 121.747 55.232 121.251 55.712C120.771 56.192 120.395 56.76 120.123 57.416C119.867 58.072 119.739 58.8 119.739 59.6C119.739 60.384 119.867 61.104 120.123 61.76C120.395 62.416 120.771 62.992 121.251 63.488C121.747 63.968 122.323 64.336 122.979 64.592C123.651 64.848 124.387 64.976 125.187 64.976C125.955 64.976 126.699 64.856 127.419 64.616C128.155 64.36 128.867 63.936 129.555 63.344L131.763 66.152C130.851 66.84 129.787 67.368 128.571 67.736C127.371 68.104 126.171 68.288 124.971 68.288ZM128.211 65.648V59.336H131.763V66.152L128.211 65.648ZM141.255 68.192C139.879 68.192 138.655 67.904 137.583 67.328C136.527 66.752 135.687 65.968 135.063 64.976C134.455 63.968 134.151 62.824 134.151 61.544C134.151 60.248 134.455 59.104 135.063 58.112C135.687 57.104 136.527 56.32 137.583 55.76C138.655 55.184 139.879 54.896 141.255 54.896C142.615 54.896 143.831 55.184 144.903 55.76C145.975 56.32 146.815 57.096 147.423 58.088C148.031 59.08 148.335 60.232 148.335 61.544C148.335 62.824 148.031 63.968 147.423 64.976C146.815 65.968 145.975 66.752 144.903 67.328C143.831 67.904 142.615 68.192 141.255 68.192ZM141.255 65.12C141.879 65.12 142.439 64.976 142.935 64.688C143.431 64.4 143.823 63.992 144.111 63.464C144.399 62.92 144.543 62.28 144.543 61.544C144.543 60.792 144.399 60.152 144.111 59.624C143.823 59.096 143.431 58.688 142.935 58.4C142.439 58.112 141.879 57.968 141.255 57.968C140.631 57.968 140.071 58.112 139.575 58.4C139.079 58.688 138.679 59.096 138.375 59.624C138.087 60.152 137.943 60.792 137.943 61.544C137.943 62.28 138.087 62.92 138.375 63.464C138.679 63.992 139.079 64.4 139.575 64.688C140.071 64.976 140.631 65.12 141.255 65.12Z"
        fill="#F86C1D" />
    <path
        d="M1.68 23V6.2H9.36C10.896 6.2 12.216 6.448 13.32 6.944C14.44 7.44 15.304 8.16 15.912 9.104C16.52 10.032 16.824 11.136 16.824 12.416C16.824 13.68 16.52 14.776 15.912 15.704C15.304 16.632 14.44 17.352 13.32 17.864C12.216 18.36 10.896 18.608 9.36 18.608H4.32L6.432 16.544V23H1.68ZM6.432 17.048L4.32 14.864H9.072C10.064 14.864 10.8 14.648 11.28 14.216C11.776 13.784 12.024 13.184 12.024 12.416C12.024 11.632 11.776 11.024 11.28 10.592C10.8 10.16 10.064 9.944 9.072 9.944H4.32L6.432 7.76V17.048ZM25.4295 23.216C24.0055 23.216 22.7415 22.928 21.6375 22.352C20.5335 21.776 19.6615 20.984 19.0215 19.976C18.3975 18.952 18.0855 17.784 18.0855 16.472C18.0855 15.16 18.3975 14 19.0215 12.992C19.6615 11.984 20.5335 11.2 21.6375 10.64C22.7415 10.064 24.0055 9.776 25.4295 9.776C26.8535 9.776 28.1175 10.064 29.2215 10.64C30.3415 11.2 31.2135 11.984 31.8375 12.992C32.4615 14 32.7735 15.16 32.7735 16.472C32.7735 17.784 32.4615 18.952 31.8375 19.976C31.2135 20.984 30.3415 21.776 29.2215 22.352C28.1175 22.928 26.8535 23.216 25.4295 23.216ZM25.4295 19.592C25.9575 19.592 26.4215 19.472 26.8215 19.232C27.2375 18.992 27.5655 18.64 27.8055 18.176C28.0455 17.696 28.1655 17.128 28.1655 16.472C28.1655 15.816 28.0455 15.264 27.8055 14.816C27.5655 14.352 27.2375 14 26.8215 13.76C26.4215 13.52 25.9575 13.4 25.4295 13.4C24.9175 13.4 24.4535 13.52 24.0375 13.76C23.6375 14 23.3095 14.352 23.0535 14.816C22.8135 15.264 22.6935 15.816 22.6935 16.472C22.6935 17.128 22.8135 17.696 23.0535 18.176C23.3095 18.64 23.6375 18.992 24.0375 19.232C24.4535 19.472 24.9175 19.592 25.4295 19.592ZM37.6303 23L32.9983 9.992H37.3183L40.9903 20.864H38.9263L42.7423 9.992H46.6303L50.3023 20.864H48.2863L52.0783 9.992H56.0863L51.4543 23H47.0383L43.9183 14H45.2623L42.0463 23H37.6303ZM63.9441 23.216C62.4081 23.216 61.0641 22.928 59.9121 22.352C58.7761 21.76 57.8881 20.96 57.2481 19.952C56.6241 18.928 56.3121 17.768 56.3121 16.472C56.3121 15.176 56.6161 14.024 57.2241 13.016C57.8481 11.992 58.7041 11.2 59.7921 10.64C60.8801 10.064 62.1041 9.776 63.4641 9.776C64.7441 9.776 65.9121 10.04 66.9681 10.568C68.0241 11.08 68.8641 11.84 69.4881 12.848C70.1121 13.856 70.4241 15.08 70.4241 16.52C70.4241 16.68 70.4161 16.864 70.4001 17.072C70.3841 17.28 70.3681 17.472 70.3521 17.648H60.0561V15.248H67.9281L66.2001 15.92C66.2161 15.328 66.1041 14.816 65.8641 14.384C65.6401 13.952 65.3201 13.616 64.9041 13.376C64.5041 13.136 64.0321 13.016 63.4881 13.016C62.9441 13.016 62.4641 13.136 62.0481 13.376C61.6481 13.616 61.3361 13.96 61.1121 14.408C60.8881 14.84 60.7761 15.352 60.7761 15.944V16.64C60.7761 17.28 60.9041 17.832 61.1601 18.296C61.4321 18.76 61.8161 19.12 62.3121 19.376C62.8081 19.616 63.4001 19.736 64.0881 19.736C64.7281 19.736 65.2721 19.648 65.7201 19.472C66.1841 19.28 66.6401 18.992 67.0881 18.608L69.4881 21.104C68.8641 21.792 68.0961 22.32 67.1841 22.688C66.2721 23.04 65.1921 23.216 63.9441 23.216ZM72.5265 23V9.992H76.8705V13.784L76.2225 12.704C76.6065 11.728 77.2305 11 78.0945 10.52C78.9585 10.024 80.0065 9.776 81.2385 9.776V13.88C81.0305 13.848 80.8465 13.832 80.6865 13.832C80.5425 13.816 80.3825 13.808 80.2065 13.808C79.2785 13.808 78.5265 14.064 77.9505 14.576C77.3745 15.072 77.0865 15.888 77.0865 17.024V23H72.5265ZM89.8191 23.216C88.2831 23.216 86.9391 22.928 85.7871 22.352C84.6511 21.76 83.7631 20.96 83.1231 19.952C82.4991 18.928 82.1871 17.768 82.1871 16.472C82.1871 15.176 82.4911 14.024 83.0991 13.016C83.7231 11.992 84.5791 11.2 85.6671 10.64C86.7551 10.064 87.9791 9.776 89.3391 9.776C90.6191 9.776 91.7871 10.04 92.8431 10.568C93.8991 11.08 94.7391 11.84 95.3631 12.848C95.9871 13.856 96.2991 15.08 96.2991 16.52C96.2991 16.68 96.2911 16.864 96.2751 17.072C96.2591 17.28 96.2431 17.472 96.2271 17.648H85.9311V15.248H93.8031L92.0751 15.92C92.0911 15.328 91.9791 14.816 91.7391 14.384C91.5151 13.952 91.1951 13.616 90.7791 13.376C90.3791 13.136 89.9071 13.016 89.3631 13.016C88.8191 13.016 88.3391 13.136 87.9231 13.376C87.5231 13.616 87.2111 13.96 86.9871 14.408C86.7631 14.84 86.6511 15.352 86.6511 15.944V16.64C86.6511 17.28 86.7791 17.832 87.0351 18.296C87.3071 18.76 87.6911 19.12 88.1871 19.376C88.6831 19.616 89.2751 19.736 89.9631 19.736C90.6031 19.736 91.1471 19.648 91.5951 19.472C92.0591 19.28 92.5151 18.992 92.9631 18.608L95.3631 21.104C94.7391 21.792 93.9711 22.32 93.0591 22.688C92.1471 23.04 91.0671 23.216 89.8191 23.216ZM104.066 23.216C102.882 23.216 101.802 22.944 100.826 22.4C99.8655 21.84 99.0975 21.064 98.5215 20.072C97.9455 19.064 97.6575 17.864 97.6575 16.472C97.6575 15.096 97.9455 13.912 98.5215 12.92C99.0975 11.912 99.8655 11.136 100.826 10.592C101.802 10.048 102.882 9.776 104.066 9.776C105.186 9.776 106.13 10.016 106.898 10.496C107.682 10.976 108.274 11.712 108.674 12.704C109.074 13.696 109.273 14.952 109.273 16.472C109.273 18.024 109.082 19.296 108.698 20.288C108.314 21.28 107.738 22.016 106.97 22.496C106.202 22.976 105.234 23.216 104.066 23.216ZM105.026 19.592C105.538 19.592 105.994 19.472 106.394 19.232C106.81 18.992 107.138 18.64 107.378 18.176C107.618 17.696 107.738 17.128 107.738 16.472C107.738 15.816 107.618 15.264 107.378 14.816C107.138 14.352 106.81 14 106.394 13.76C105.994 13.52 105.538 13.4 105.026 13.4C104.498 13.4 104.026 13.52 103.61 13.76C103.21 14 102.89 14.352 102.65 14.816C102.41 15.264 102.29 15.816 102.29 16.472C102.29 17.128 102.41 17.696 102.65 18.176C102.89 18.64 103.21 18.992 103.61 19.232C104.026 19.472 104.498 19.592 105.026 19.592ZM107.882 23V20.768L107.906 16.472L107.666 12.176V5.192H112.226V23H107.882ZM130.328 23.216C129.16 23.216 128.184 22.976 127.4 22.496C126.632 22.016 126.056 21.28 125.672 20.288C125.288 19.296 125.096 18.024 125.096 16.472C125.096 14.952 125.296 13.696 125.696 12.704C126.112 11.712 126.712 10.976 127.496 10.496C128.28 10.016 129.224 9.776 130.328 9.776C131.512 9.776 132.584 10.048 133.544 10.592C134.52 11.136 135.288 11.912 135.848 12.92C136.424 13.912 136.712 15.096 136.712 16.472C136.712 17.864 136.424 19.064 135.848 20.072C135.288 21.064 134.52 21.84 133.544 22.4C132.584 22.944 131.512 23.216 130.328 23.216ZM122.144 23V5.192H126.704V12.176L126.464 16.472L126.488 20.768V23H122.144ZM129.368 19.592C129.88 19.592 130.336 19.472 130.736 19.232C131.152 18.992 131.48 18.64 131.72 18.176C131.976 17.696 132.104 17.128 132.104 16.472C132.104 15.816 131.976 15.264 131.72 14.816C131.48 14.352 131.152 14 130.736 13.76C130.336 13.52 129.88 13.4 129.368 13.4C128.856 13.4 128.392 13.52 127.976 13.76C127.576 14 127.248 14.352 126.992 14.816C126.752 15.264 126.632 15.816 126.632 16.472C126.632 17.128 126.752 17.696 126.992 18.176C127.248 18.64 127.576 18.992 127.976 19.232C128.392 19.472 128.856 19.592 129.368 19.592ZM140.712 27.872C140.024 27.872 139.328 27.76 138.624 27.536C137.936 27.328 137.376 27.048 136.944 26.696L138.528 23.504C138.8 23.744 139.112 23.928 139.464 24.056C139.832 24.2 140.192 24.272 140.544 24.272C141.04 24.272 141.432 24.16 141.72 23.936C142.008 23.712 142.256 23.36 142.464 22.88L143.064 21.368L143.424 20.912L147.84 9.992H152.184L146.568 23.528C146.12 24.648 145.6 25.52 145.008 26.144C144.432 26.784 143.784 27.232 143.064 27.488C142.36 27.744 141.576 27.872 140.712 27.872ZM142.488 23.552L136.752 9.992H141.432L145.656 20.504L142.488 23.552Z"
        fill="#F86C1D" />
</svg>