<svg width="180" height="95" viewBox="0 0 180 95" fill="none" xmlns="http://www.w3.org/2000/svg">
    <path
        d="M67.03 88L71.83 77.5H72.925L77.725 88H76.555L72.145 78.145H72.595L68.185 88H67.03ZM68.92 85.195L69.25 84.295H75.355L75.685 85.195H68.92ZM82.2987 88.075C81.5487 88.075 80.8737 87.905 80.2737 87.565C79.6837 87.225 79.2187 86.755 78.8787 86.155C78.5387 85.545 78.3687 84.845 78.3687 84.055C78.3687 83.255 78.5387 82.555 78.8787 81.955C79.2187 81.355 79.6837 80.89 80.2737 80.56C80.8737 80.22 81.5487 80.05 82.2987 80.05C82.9887 80.05 83.6037 80.205 84.1437 80.515C84.6937 80.825 85.1287 81.28 85.4487 81.88C85.7787 82.47 85.9437 83.195 85.9437 84.055C85.9437 84.905 85.7837 85.63 85.4637 86.23C85.1437 86.83 84.7087 87.29 84.1587 87.61C83.6187 87.92 82.9987 88.075 82.2987 88.075ZM82.3737 87.13C82.9337 87.13 83.4337 87.005 83.8737 86.755C84.3237 86.495 84.6737 86.135 84.9237 85.675C85.1837 85.205 85.3137 84.665 85.3137 84.055C85.3137 83.435 85.1837 82.895 84.9237 82.435C84.6737 81.975 84.3237 81.62 83.8737 81.37C83.4337 81.11 82.9337 80.98 82.3737 80.98C81.8237 80.98 81.3287 81.11 80.8887 81.37C80.4487 81.62 80.0987 81.975 79.8387 82.435C79.5787 82.895 79.4487 83.435 79.4487 84.055C79.4487 84.665 79.5787 85.205 79.8387 85.675C80.0987 86.135 80.4487 86.495 80.8887 86.755C81.3287 87.005 81.8237 87.13 82.3737 87.13ZM85.3437 88V85.63L85.4487 84.04L85.2987 82.45V76.87H86.3637V88H85.3437ZM99.1697 80.05C99.8097 80.05 100.365 80.175 100.835 80.425C101.315 80.665 101.685 81.035 101.945 81.535C102.215 82.035 102.35 82.665 102.35 83.425V88H101.285V83.53C101.285 82.7 101.085 82.075 100.685 81.655C100.295 81.225 99.7397 81.01 99.0197 81.01C98.4797 81.01 98.0097 81.125 97.6097 81.355C97.2197 81.575 96.9147 81.9 96.6947 82.33C96.4847 82.75 96.3797 83.26 96.3797 83.86V88H95.3147V83.53C95.3147 82.7 95.1147 82.075 94.7147 81.655C94.3147 81.225 93.7547 81.01 93.0347 81.01C92.5047 81.01 92.0397 81.125 91.6397 81.355C91.2397 81.575 90.9297 81.9 90.7097 82.33C90.4997 82.75 90.3947 83.26 90.3947 83.86V88H89.3297V80.125H90.3497V82.255L90.1847 81.88C90.4247 81.31 90.8097 80.865 91.3397 80.545C91.8797 80.215 92.5147 80.05 93.2447 80.05C94.0147 80.05 94.6697 80.245 95.2097 80.635C95.7497 81.015 96.0997 81.59 96.2597 82.36L95.8397 82.195C96.0697 81.555 96.4747 81.04 97.0547 80.65C97.6447 80.25 98.3497 80.05 99.1697 80.05ZM105.238 88V80.125H106.303V88H105.238ZM105.778 78.385C105.558 78.385 105.373 78.31 105.223 78.16C105.073 78.01 104.998 77.83 104.998 77.62C104.998 77.41 105.073 77.235 105.223 77.095C105.373 76.945 105.558 76.87 105.778 76.87C105.998 76.87 106.183 76.94 106.333 77.08C106.483 77.22 106.558 77.395 106.558 77.605C106.558 77.825 106.483 78.01 106.333 78.16C106.193 78.31 106.008 78.385 105.778 78.385ZM113.286 80.05C113.926 80.05 114.486 80.175 114.966 80.425C115.456 80.665 115.836 81.035 116.106 81.535C116.386 82.035 116.526 82.665 116.526 83.425V88H115.461V83.53C115.461 82.7 115.251 82.075 114.831 81.655C114.421 81.225 113.841 81.01 113.091 81.01C112.531 81.01 112.041 81.125 111.621 81.355C111.211 81.575 110.891 81.9 110.661 82.33C110.441 82.75 110.331 83.26 110.331 83.86V88H109.266V80.125H110.286V82.285L110.121 81.88C110.371 81.31 110.771 80.865 111.321 80.545C111.871 80.215 112.526 80.05 113.286 80.05ZM119.403 88V80.125H120.468V88H119.403ZM119.943 78.385C119.723 78.385 119.538 78.31 119.388 78.16C119.238 78.01 119.163 77.83 119.163 77.62C119.163 77.41 119.238 77.235 119.388 77.095C119.538 76.945 119.723 76.87 119.943 76.87C120.163 76.87 120.348 76.94 120.498 77.08C120.648 77.22 120.723 77.395 120.723 77.605C120.723 77.825 120.648 78.01 120.498 78.16C120.358 78.31 120.173 78.385 119.943 78.385ZM125.546 88.075C124.896 88.075 124.281 87.985 123.701 87.805C123.121 87.615 122.666 87.38 122.336 87.1L122.816 86.26C123.136 86.5 123.546 86.71 124.046 86.89C124.546 87.06 125.071 87.145 125.621 87.145C126.371 87.145 126.911 87.03 127.241 86.8C127.571 86.56 127.736 86.245 127.736 85.855C127.736 85.565 127.641 85.34 127.451 85.18C127.271 85.01 127.031 84.885 126.731 84.805C126.431 84.715 126.096 84.64 125.726 84.58C125.356 84.52 124.986 84.45 124.616 84.37C124.256 84.29 123.926 84.175 123.626 84.025C123.326 83.865 123.081 83.65 122.891 83.38C122.711 83.11 122.621 82.75 122.621 82.3C122.621 81.87 122.741 81.485 122.981 81.145C123.221 80.805 123.571 80.54 124.031 80.35C124.501 80.15 125.071 80.05 125.741 80.05C126.251 80.05 126.761 80.12 127.271 80.26C127.781 80.39 128.201 80.565 128.531 80.785L128.066 81.64C127.716 81.4 127.341 81.23 126.941 81.13C126.541 81.02 126.141 80.965 125.741 80.965C125.031 80.965 124.506 81.09 124.166 81.34C123.836 81.58 123.671 81.89 123.671 82.27C123.671 82.57 123.761 82.805 123.941 82.975C124.131 83.145 124.376 83.28 124.676 83.38C124.986 83.47 125.321 83.545 125.681 83.605C126.051 83.665 126.416 83.74 126.776 83.83C127.146 83.91 127.481 84.025 127.781 84.175C128.091 84.315 128.336 84.52 128.516 84.79C128.706 85.05 128.801 85.395 128.801 85.825C128.801 86.285 128.671 86.685 128.411 87.025C128.161 87.355 127.791 87.615 127.301 87.805C126.821 87.985 126.236 88.075 125.546 88.075ZM133.246 88.075C132.506 88.075 131.936 87.875 131.536 87.475C131.136 87.075 130.936 86.51 130.936 85.78V78.385H132.001V85.72C132.001 86.18 132.116 86.535 132.346 86.785C132.586 87.035 132.926 87.16 133.366 87.16C133.836 87.16 134.226 87.025 134.536 86.755L134.911 87.52C134.701 87.71 134.446 87.85 134.146 87.94C133.856 88.03 133.556 88.075 133.246 88.075ZM129.526 81.01V80.125H134.401V81.01H129.526ZM136.849 88V80.125H137.869V82.27L137.764 81.895C137.984 81.295 138.354 80.84 138.874 80.53C139.394 80.21 140.039 80.05 140.809 80.05V81.085C140.769 81.085 140.729 81.085 140.689 81.085C140.649 81.075 140.609 81.07 140.569 81.07C139.739 81.07 139.089 81.325 138.619 81.835C138.149 82.335 137.914 83.05 137.914 83.98V88H136.849ZM147.102 88V86.26L147.057 85.975V83.065C147.057 82.395 146.867 81.88 146.487 81.52C146.117 81.16 145.562 80.98 144.822 80.98C144.312 80.98 143.827 81.065 143.367 81.235C142.907 81.405 142.517 81.63 142.197 81.91L141.717 81.115C142.117 80.775 142.597 80.515 143.157 80.335C143.717 80.145 144.307 80.05 144.927 80.05C145.947 80.05 146.732 80.305 147.282 80.815C147.842 81.315 148.122 82.08 148.122 83.11V88H147.102ZM144.387 88.075C143.797 88.075 143.282 87.98 142.842 87.79C142.412 87.59 142.082 87.32 141.852 86.98C141.622 86.63 141.507 86.23 141.507 85.78C141.507 85.37 141.602 85 141.792 84.67C141.992 84.33 142.312 84.06 142.752 83.86C143.202 83.65 143.802 83.545 144.552 83.545H147.267V84.34H144.582C143.822 84.34 143.292 84.475 142.992 84.745C142.702 85.015 142.557 85.35 142.557 85.75C142.557 86.2 142.732 86.56 143.082 86.83C143.432 87.1 143.922 87.235 144.552 87.235C145.152 87.235 145.667 87.1 146.097 86.83C146.537 86.55 146.857 86.15 147.057 85.63L147.297 86.365C147.097 86.885 146.747 87.3 146.247 87.61C145.757 87.92 145.137 88.075 144.387 88.075ZM153.504 88.075C152.764 88.075 152.194 87.875 151.794 87.475C151.394 87.075 151.194 86.51 151.194 85.78V78.385H152.259V85.72C152.259 86.18 152.374 86.535 152.604 86.785C152.844 87.035 153.184 87.16 153.624 87.16C154.094 87.16 154.484 87.025 154.794 86.755L155.169 87.52C154.959 87.71 154.704 87.85 154.404 87.94C154.114 88.03 153.814 88.075 153.504 88.075ZM149.784 81.01V80.125H154.659V81.01H149.784ZM157.108 88V80.125H158.173V88H157.108ZM157.648 78.385C157.428 78.385 157.243 78.31 157.093 78.16C156.943 78.01 156.868 77.83 156.868 77.62C156.868 77.41 156.943 77.235 157.093 77.095C157.243 76.945 157.428 76.87 157.648 76.87C157.868 76.87 158.053 76.94 158.203 77.08C158.353 77.22 158.428 77.395 158.428 77.605C158.428 77.825 158.353 78.01 158.203 78.16C158.063 78.31 157.878 78.385 157.648 78.385ZM163.161 88L159.666 80.125H160.776L163.986 87.43H163.461L166.716 80.125H167.766L164.256 88H163.161ZM172.392 88.075C171.572 88.075 170.852 87.905 170.232 87.565C169.612 87.215 169.127 86.74 168.777 86.14C168.427 85.53 168.252 84.835 168.252 84.055C168.252 83.275 168.417 82.585 168.747 81.985C169.087 81.385 169.547 80.915 170.127 80.575C170.717 80.225 171.377 80.05 172.107 80.05C172.847 80.05 173.502 80.22 174.072 80.56C174.652 80.89 175.107 81.36 175.437 81.97C175.767 82.57 175.932 83.265 175.932 84.055C175.932 84.105 175.927 84.16 175.917 84.22C175.917 84.27 175.917 84.325 175.917 84.385H169.062V83.59H175.347L174.927 83.905C174.927 83.335 174.802 82.83 174.552 82.39C174.312 81.94 173.982 81.59 173.562 81.34C173.142 81.09 172.657 80.965 172.107 80.965C171.567 80.965 171.082 81.09 170.652 81.34C170.222 81.59 169.887 81.94 169.647 82.39C169.407 82.84 169.287 83.355 169.287 83.935V84.1C169.287 84.7 169.417 85.23 169.677 85.69C169.947 86.14 170.317 86.495 170.787 86.755C171.267 87.005 171.812 87.13 172.422 87.13C172.902 87.13 173.347 87.045 173.757 86.875C174.177 86.705 174.537 86.445 174.837 86.095L175.437 86.785C175.087 87.205 174.647 87.525 174.117 87.745C173.597 87.965 173.022 88.075 172.392 88.075Z"
        fill="#F86C1D" />
    <path fill-rule="evenodd" clip-rule="evenodd"
        d="M0 41H8.55789C11.3193 41 13.5579 43.2386 13.5579 46V62.5194C16.8923 53.0479 25.9185 46.2591 36.5303 46.2591H44.8C44.8 51.7429 42.9871 56.8032 39.928 60.8735C38.2245 59.7617 36.185 59.1148 33.993 59.1148C28.0244 59.1148 23.186 63.9112 23.186 69.8278C23.186 75.7445 28.0244 80.5409 33.993 80.5409C39.9615 80.5409 44.8 75.7445 44.8 69.8278C44.8 69.2308 44.7507 68.6452 44.656 68.0748H52.986C54.6506 68.0748 56 69.4242 56 71.0888C56 82.9787 46.1729 92.6174 34.283 92.6174C24.8526 92.6174 16.6973 86.6591 13.5579 78.3018V82.76C13.5579 89.3874 8.18531 94.76 1.55789 94.76H0V41ZM41.4596 68.2696V68.5942C41.4596 72.7179 38.1167 76.0609 33.993 76.0609C29.8693 76.0609 26.5263 72.7179 26.5263 68.5942V68.2696H41.4596Z"
        fill="#F86C1D" />
    <path
        d="M71.472 64.16L71.256 59.672L79.296 51.2H83.616L76.368 59L74.208 61.304L71.472 64.16ZM67.992 68V51.2H71.856V68H67.992ZM79.488 68L73.512 60.68L76.056 57.92L84.024 68H79.488ZM93.1324 68V65.48L92.8924 64.928V60.416C92.8924 59.616 92.6444 58.992 92.1484 58.544C91.6684 58.096 90.9244 57.872 89.9164 57.872C89.2284 57.872 88.5484 57.984 87.8764 58.208C87.2204 58.416 86.6604 58.704 86.1964 59.072L84.8524 56.456C85.5564 55.96 86.4044 55.576 87.3964 55.304C88.3884 55.032 89.3964 54.896 90.4204 54.896C92.3884 54.896 93.9164 55.36 95.0044 56.288C96.0924 57.216 96.6364 58.664 96.6364 60.632V68H93.1324ZM89.1964 68.192C88.1884 68.192 87.3244 68.024 86.6044 67.688C85.8844 67.336 85.3324 66.864 84.9484 66.272C84.5644 65.68 84.3724 65.016 84.3724 64.28C84.3724 63.512 84.5564 62.84 84.9244 62.264C85.3084 61.688 85.9084 61.24 86.7244 60.92C87.5404 60.584 88.6044 60.416 89.9164 60.416H93.3484V62.6H90.3244C89.4444 62.6 88.8364 62.744 88.5004 63.032C88.1804 63.32 88.0204 63.68 88.0204 64.112C88.0204 64.592 88.2044 64.976 88.5724 65.264C88.9564 65.536 89.4764 65.672 90.1324 65.672C90.7564 65.672 91.3164 65.528 91.8124 65.24C92.3084 64.936 92.6684 64.496 92.8924 63.92L93.4684 65.648C93.1964 66.48 92.7004 67.112 91.9804 67.544C91.2604 67.976 90.3324 68.192 89.1964 68.192ZM107.657 68.192C106.521 68.192 105.545 67.952 104.729 67.472C103.913 66.992 103.289 66.264 102.857 65.288C102.425 64.296 102.209 63.048 102.209 61.544C102.209 60.024 102.433 58.776 102.881 57.8C103.345 56.824 103.985 56.096 104.801 55.616C105.617 55.136 106.569 54.896 107.657 54.896C108.873 54.896 109.961 55.168 110.921 55.712C111.897 56.256 112.665 57.024 113.225 58.016C113.801 59.008 114.089 60.184 114.089 61.544C114.089 62.888 113.801 64.056 113.225 65.048C112.665 66.04 111.897 66.816 110.921 67.376C109.961 67.92 108.873 68.192 107.657 68.192ZM100.025 68V50.192H103.769V57.704L103.529 61.52L103.601 65.36V68H100.025ZM107.009 65.12C107.633 65.12 108.185 64.976 108.665 64.688C109.161 64.4 109.553 63.992 109.841 63.464C110.145 62.92 110.297 62.28 110.297 61.544C110.297 60.792 110.145 60.152 109.841 59.624C109.553 59.096 109.161 58.688 108.665 58.4C108.185 58.112 107.633 57.968 107.009 57.968C106.385 57.968 105.825 58.112 105.329 58.4C104.833 58.688 104.441 59.096 104.153 59.624C103.865 60.152 103.721 60.792 103.721 61.544C103.721 62.28 103.865 62.92 104.153 63.464C104.441 63.992 104.833 64.4 105.329 64.688C105.825 64.976 106.385 65.12 107.009 65.12ZM124.971 68.288C123.643 68.288 122.419 68.08 121.299 67.664C120.195 67.232 119.227 66.624 118.395 65.84C117.579 65.056 116.939 64.136 116.475 63.08C116.027 62.024 115.803 60.864 115.803 59.6C115.803 58.336 116.027 57.176 116.475 56.12C116.939 55.064 117.587 54.144 118.419 53.36C119.251 52.576 120.227 51.976 121.347 51.56C122.467 51.128 123.699 50.912 125.043 50.912C126.531 50.912 127.867 51.16 129.051 51.656C130.251 52.152 131.259 52.872 132.075 53.816L129.579 56.12C128.971 55.48 128.307 55.008 127.587 54.704C126.867 54.384 126.083 54.224 125.235 54.224C124.419 54.224 123.675 54.352 123.003 54.608C122.331 54.864 121.747 55.232 121.251 55.712C120.771 56.192 120.395 56.76 120.123 57.416C119.867 58.072 119.739 58.8 119.739 59.6C119.739 60.384 119.867 61.104 120.123 61.76C120.395 62.416 120.771 62.992 121.251 63.488C121.747 63.968 122.323 64.336 122.979 64.592C123.651 64.848 124.387 64.976 125.187 64.976C125.955 64.976 126.699 64.856 127.419 64.616C128.155 64.36 128.867 63.936 129.555 63.344L131.763 66.152C130.851 66.84 129.787 67.368 128.571 67.736C127.371 68.104 126.171 68.288 124.971 68.288ZM128.211 65.648V59.336H131.763V66.152L128.211 65.648ZM141.255 68.192C139.879 68.192 138.655 67.904 137.583 67.328C136.527 66.752 135.687 65.968 135.063 64.976C134.455 63.968 134.151 62.824 134.151 61.544C134.151 60.248 134.455 59.104 135.063 58.112C135.687 57.104 136.527 56.32 137.583 55.76C138.655 55.184 139.879 54.896 141.255 54.896C142.615 54.896 143.831 55.184 144.903 55.76C145.975 56.32 146.815 57.096 147.423 58.088C148.031 59.08 148.335 60.232 148.335 61.544C148.335 62.824 148.031 63.968 147.423 64.976C146.815 65.968 145.975 66.752 144.903 67.328C143.831 67.904 142.615 68.192 141.255 68.192ZM141.255 65.12C141.879 65.12 142.439 64.976 142.935 64.688C143.431 64.4 143.823 63.992 144.111 63.464C144.399 62.92 144.543 62.28 144.543 61.544C144.543 60.792 144.399 60.152 144.111 59.624C143.823 59.096 143.431 58.688 142.935 58.4C142.439 58.112 141.879 57.968 141.255 57.968C140.631 57.968 140.071 58.112 139.575 58.4C139.079 58.688 138.679 59.096 138.375 59.624C138.087 60.152 137.943 60.792 137.943 61.544C137.943 62.28 138.087 62.92 138.375 63.464C138.679 63.992 139.079 64.4 139.575 64.688C140.071 64.976 140.631 65.12 141.255 65.12Z"
        fill="#F86C1D" />
    <path
        d="M1.68 23V6.2H9.36C10.896 6.2 12.216 6.448 13.32 6.944C14.44 7.44 15.304 8.16 15.912 9.104C16.52 10.032 16.824 11.136 16.824 12.416C16.824 13.68 16.52 14.776 15.912 15.704C15.304 16.632 14.44 17.352 13.32 17.864C12.216 18.36 10.896 18.608 9.36 18.608H4.32L6.432 16.544V23H1.68ZM6.432 17.048L4.32 14.864H9.072C10.064 14.864 10.8 14.648 11.28 14.216C11.776 13.784 12.024 13.184 12.024 12.416C12.024 11.632 11.776 11.024 11.28 10.592C10.8 10.16 10.064 9.944 9.072 9.944H4.32L6.432 7.76V17.048ZM25.4295 23.216C24.0055 23.216 22.7415 22.928 21.6375 22.352C20.5335 21.776 19.6615 20.984 19.0215 19.976C18.3975 18.952 18.0855 17.784 18.0855 16.472C18.0855 15.16 18.3975 14 19.0215 12.992C19.6615 11.984 20.5335 11.2 21.6375 10.64C22.7415 10.064 24.0055 9.776 25.4295 9.776C26.8535 9.776 28.1175 10.064 29.2215 10.64C30.3415 11.2 31.2135 11.984 31.8375 12.992C32.4615 14 32.7735 15.16 32.7735 16.472C32.7735 17.784 32.4615 18.952 31.8375 19.976C31.2135 20.984 30.3415 21.776 29.2215 22.352C28.1175 22.928 26.8535 23.216 25.4295 23.216ZM25.4295 19.592C25.9575 19.592 26.4215 19.472 26.8215 19.232C27.2375 18.992 27.5655 18.64 27.8055 18.176C28.0455 17.696 28.1655 17.128 28.1655 16.472C28.1655 15.816 28.0455 15.264 27.8055 14.816C27.5655 14.352 27.2375 14 26.8215 13.76C26.4215 13.52 25.9575 13.4 25.4295 13.4C24.9175 13.4 24.4535 13.52 24.0375 13.76C23.6375 14 23.3095 14.352 23.0535 14.816C22.8135 15.264 22.6935 15.816 22.6935 16.472C22.6935 17.128 22.8135 17.696 23.0535 18.176C23.3095 18.64 23.6375 18.992 24.0375 19.232C24.4535 19.472 24.9175 19.592 25.4295 19.592ZM37.6303 23L32.9983 9.992H37.3183L40.9903 20.864H38.9263L42.7423 9.992H46.6303L50.3023 20.864H48.2863L52.0783 9.992H56.0863L51.4543 23H47.0383L43.9183 14H45.2623L42.0463 23H37.6303ZM63.9441 23.216C62.4081 23.216 61.0641 22.928 59.9121 22.352C58.7761 21.76 57.8881 20.96 57.2481 19.952C56.6241 18.928 56.3121 17.768 56.3121 16.472C56.3121 15.176 56.6161 14.024 57.2241 13.016C57.8481 11.992 58.7041 11.2 59.7921 10.64C60.8801 10.064 62.1041 9.776 63.4641 9.776C64.7441 9.776 65.9121 10.04 66.9681 10.568C68.0241 11.08 68.8641 11.84 69.4881 12.848C70.1121 13.856 70.4241 15.08 70.4241 16.52C70.4241 16.68 70.4161 16.864 70.4001 17.072C70.3841 17.28 70.3681 17.472 70.3521 17.648H60.0561V15.248H67.9281L66.2001 15.92C66.2161 15.328 66.1041 14.816 65.8641 14.384C65.6401 13.952 65.3201 13.616 64.9041 13.376C64.5041 13.136 64.0321 13.016 63.4881 13.016C62.9441 13.016 62.4641 13.136 62.0481 13.376C61.6481 13.616 61.3361 13.96 61.1121 14.408C60.8881 14.84 60.7761 15.352 60.7761 15.944V16.64C60.7761 17.28 60.9041 17.832 61.1601 18.296C61.4321 18.76 61.8161 19.12 62.3121 19.376C62.8081 19.616 63.4001 19.736 64.0881 19.736C64.7281 19.736 65.2721 19.648 65.7201 19.472C66.1841 19.28 66.6401 18.992 67.0881 18.608L69.4881 21.104C68.8641 21.792 68.0961 22.32 67.1841 22.688C66.2721 23.04 65.1921 23.216 63.9441 23.216ZM72.5265 23V9.992H76.8705V13.784L76.2225 12.704C76.6065 11.728 77.2305 11 78.0945 10.52C78.9585 10.024 80.0065 9.776 81.2385 9.776V13.88C81.0305 13.848 80.8465 13.832 80.6865 13.832C80.5425 13.816 80.3825 13.808 80.2065 13.808C79.2785 13.808 78.5265 14.064 77.9505 14.576C77.3745 15.072 77.0865 15.888 77.0865 17.024V23H72.5265ZM89.8191 23.216C88.2831 23.216 86.9391 22.928 85.7871 22.352C84.6511 21.76 83.7631 20.96 83.1231 19.952C82.4991 18.928 82.1871 17.768 82.1871 16.472C82.1871 15.176 82.4911 14.024 83.0991 13.016C83.7231 11.992 84.5791 11.2 85.6671 10.64C86.7551 10.064 87.9791 9.776 89.3391 9.776C90.6191 9.776 91.7871 10.04 92.8431 10.568C93.8991 11.08 94.7391 11.84 95.3631 12.848C95.9871 13.856 96.2991 15.08 96.2991 16.52C96.2991 16.68 96.2911 16.864 96.2751 17.072C96.2591 17.28 96.2431 17.472 96.2271 17.648H85.9311V15.248H93.8031L92.0751 15.92C92.0911 15.328 91.9791 14.816 91.7391 14.384C91.5151 13.952 91.1951 13.616 90.7791 13.376C90.3791 13.136 89.9071 13.016 89.3631 13.016C88.8191 13.016 88.3391 13.136 87.9231 13.376C87.5231 13.616 87.2111 13.96 86.9871 14.408C86.7631 14.84 86.6511 15.352 86.6511 15.944V16.64C86.6511 17.28 86.7791 17.832 87.0351 18.296C87.3071 18.76 87.6911 19.12 88.1871 19.376C88.6831 19.616 89.2751 19.736 89.9631 19.736C90.6031 19.736 91.1471 19.648 91.5951 19.472C92.0591 19.28 92.5151 18.992 92.9631 18.608L95.3631 21.104C94.7391 21.792 93.9711 22.32 93.0591 22.688C92.1471 23.04 91.0671 23.216 89.8191 23.216ZM104.066 23.216C102.882 23.216 101.802 22.944 100.826 22.4C99.8655 21.84 99.0975 21.064 98.5215 20.072C97.9455 19.064 97.6575 17.864 97.6575 16.472C97.6575 15.096 97.9455 13.912 98.5215 12.92C99.0975 11.912 99.8655 11.136 100.826 10.592C101.802 10.048 102.882 9.776 104.066 9.776C105.186 9.776 106.13 10.016 106.898 10.496C107.682 10.976 108.274 11.712 108.674 12.704C109.074 13.696 109.273 14.952 109.273 16.472C109.273 18.024 109.082 19.296 108.698 20.288C108.314 21.28 107.738 22.016 106.97 22.496C106.202 22.976 105.234 23.216 104.066 23.216ZM105.026 19.592C105.538 19.592 105.994 19.472 106.394 19.232C106.81 18.992 107.138 18.64 107.378 18.176C107.618 17.696 107.738 17.128 107.738 16.472C107.738 15.816 107.618 15.264 107.378 14.816C107.138 14.352 106.81 14 106.394 13.76C105.994 13.52 105.538 13.4 105.026 13.4C104.498 13.4 104.026 13.52 103.61 13.76C103.21 14 102.89 14.352 102.65 14.816C102.41 15.264 102.29 15.816 102.29 16.472C102.29 17.128 102.41 17.696 102.65 18.176C102.89 18.64 103.21 18.992 103.61 19.232C104.026 19.472 104.498 19.592 105.026 19.592ZM107.882 23V20.768L107.906 16.472L107.666 12.176V5.192H112.226V23H107.882ZM130.328 23.216C129.16 23.216 128.184 22.976 127.4 22.496C126.632 22.016 126.056 21.28 125.672 20.288C125.288 19.296 125.096 18.024 125.096 16.472C125.096 14.952 125.296 13.696 125.696 12.704C126.112 11.712 126.712 10.976 127.496 10.496C128.28 10.016 129.224 9.776 130.328 9.776C131.512 9.776 132.584 10.048 133.544 10.592C134.52 11.136 135.288 11.912 135.848 12.92C136.424 13.912 136.712 15.096 136.712 16.472C136.712 17.864 136.424 19.064 135.848 20.072C135.288 21.064 134.52 21.84 133.544 22.4C132.584 22.944 131.512 23.216 130.328 23.216ZM122.144 23V5.192H126.704V12.176L126.464 16.472L126.488 20.768V23H122.144ZM129.368 19.592C129.88 19.592 130.336 19.472 130.736 19.232C131.152 18.992 131.48 18.64 131.72 18.176C131.976 17.696 132.104 17.128 132.104 16.472C132.104 15.816 131.976 15.264 131.72 14.816C131.48 14.352 131.152 14 130.736 13.76C130.336 13.52 129.88 13.4 129.368 13.4C128.856 13.4 128.392 13.52 127.976 13.76C127.576 14 127.248 14.352 126.992 14.816C126.752 15.264 126.632 15.816 126.632 16.472C126.632 17.128 126.752 17.696 126.992 18.176C127.248 18.64 127.576 18.992 127.976 19.232C128.392 19.472 128.856 19.592 129.368 19.592ZM140.712 27.872C140.024 27.872 139.328 27.76 138.624 27.536C137.936 27.328 137.376 27.048 136.944 26.696L138.528 23.504C138.8 23.744 139.112 23.928 139.464 24.056C139.832 24.2 140.192 24.272 140.544 24.272C141.04 24.272 141.432 24.16 141.72 23.936C142.008 23.712 142.256 23.36 142.464 22.88L143.064 21.368L143.424 20.912L147.84 9.992H152.184L146.568 23.528C146.12 24.648 145.6 25.52 145.008 26.144C144.432 26.784 143.784 27.232 143.064 27.488C142.36 27.744 141.576 27.872 140.712 27.872ZM142.488 23.552L136.752 9.992H141.432L145.656 20.504L142.488 23.552Z"
        fill="#F86C1D" />
</svg>