<svg width="16" height="15" viewBox="0 0 16 15" fill="none"
    xmlns="http://www.w3.org/2000/svg">
    <g clip-path="url(#clip0_496_2209)">
        <path d="M3.11111 0C3.35556 0 3.55556 0.2 3.55556 0.444444V1.77778H8.88889V0.444444C8.88889 0.2 9.08889 0 9.33333 0C9.57778 0 9.77778 0.2 9.77778 0.444444V1.77778H10.6667C11.6472 1.77778 12.4444 2.575 12.4444 3.55556V4.44444V5.33333V5.35278C12.2972 5.33889 12.15 5.33333 12 5.33333C11.85 5.33333 11.7028 5.33889 11.5556 5.35278V5.33333H0.888889V12.4444C0.888889 12.9361 1.28611 13.3333 1.77778 13.3333H8.22778C8.50556 13.6694 8.83055 13.9694 9.18889 14.2222H1.77778C0.797222 14.2222 0 13.425 0 12.4444V5.33333V4.44444V3.55556C0 2.575 0.797222 1.77778 1.77778 1.77778H2.66667V0.444444C2.66667 0.2 2.86667 0 3.11111 0ZM10.6667 2.66667H1.77778C1.28611 2.66667 0.888889 3.06389 0.888889 3.55556V4.44444H11.5556V3.55556C11.5556 3.06389 11.1583 2.66667 10.6667 2.66667ZM12 13.3333C12.8251 13.3333 13.6164 13.0056 14.1999 12.4221C14.7833 11.8387 15.1111 11.0473 15.1111 10.2222C15.1111 9.3971 14.7833 8.60578 14.1999 8.02234C13.6164 7.43889 12.8251 7.11111 12 7.11111C11.1749 7.11111 10.3836 7.43889 9.80011 8.02234C9.21667 8.60578 8.88889 9.3971 8.88889 10.2222C8.88889 11.0473 9.21667 11.8387 9.80011 12.4221C10.3836 13.0056 11.1749 13.3333 12 13.3333ZM12 6.22222C13.0609 6.22222 14.0783 6.64365 14.8284 7.3938C15.5786 8.14394 16 9.16136 16 10.2222C16 11.2831 15.5786 12.3005 14.8284 13.0506C14.0783 13.8008 13.0609 14.2222 12 14.2222C10.9391 14.2222 9.92172 13.8008 9.17157 13.0506C8.42143 12.3005 8 11.2831 8 10.2222C8 9.16136 8.42143 8.14394 9.17157 7.3938C9.92172 6.64365 10.9391 6.22222 12 6.22222ZM12 8C12.2444 8 12.4444 8.2 12.4444 8.44444V9.77778H13.3333C13.5778 9.77778 13.7778 9.97778 13.7778 10.2222C13.7778 10.4667 13.5778 10.6667 13.3333 10.6667H12C11.7556 10.6667 11.5556 10.4667 11.5556 10.2222V8.44444C11.5556 8.2 11.7556 8 12 8Z" fill="#5A5A5A"/>
    </g>
    <defs>
        <clipPath id="clip0_496_2209">
            <rect width="16" height="14.2222" fill="white"/>
        </clipPath>
    </defs>
</svg>
