<svg width="46" height="46" viewBox="0 0 46 46" fill="none"
    xmlns="http://www.w3.org/2000/svg">
    <path d="M32.9906 37.0605L8.93945 13.0094C6.92695 15.8215 5.75 19.2715 5.75 23C5.75 32.5234 13.4766 40.25 23 40.25C26.7285 40.25 30.1785 39.073 32.9906 37.0605ZM37.0605 32.9906C39.073 30.1785 40.25 26.7285 40.25 23C40.25 13.4766 32.5234 5.75 23 5.75C19.2715 5.75 15.8215 6.92695 13.0094 8.93945L37.0605 32.9906ZM0 23C0 16.9 2.42321 11.0499 6.73654 6.73654C11.0499 2.42321 16.9 0 23 0C29.1 0 34.9501 2.42321 39.2635 6.73654C43.5768 11.0499 46 16.9 46 23C46 29.1 43.5768 34.9501 39.2635 39.2635C34.9501 43.5768 29.1 46 23 46C16.9 46 11.0499 43.5768 6.73654 39.2635C2.42321 34.9501 0 29.1 0 23Z" fill="white"/>
</svg>
