<svg width="56" height="45" viewBox="0 0 56 45" fill="none"
    xmlns="http://www.w3.org/2000/svg">
    <path d="M35 8.4375C36.1139 8.4375 37.1822 7.99303 37.9698 7.20186C38.7575 6.41069 39.2 5.33763 39.2 4.21875C39.2 3.09987 38.7575 2.02681 37.9698 1.23564C37.1822 0.444474 36.1139 0 35 0C33.8861 0 32.8178 0.444474 32.0302 1.23564C31.2425 2.02681 30.8 3.09987 30.8 4.21875C30.8 5.33763 31.2425 6.41069 32.0302 7.20186C32.8178 7.99303 33.8861 8.4375 35 8.4375ZM37.38 14.0625L31.9725 9.77344C30.4587 8.57812 28.3237 8.56055 26.8012 9.74707L19.53 15.3896C16.8438 17.4814 17.0362 21.6123 19.9062 23.4404L25.2 26.8154V36.5625C25.2 38.1182 26.4513 39.375 28 39.375C29.5487 39.375 30.8 38.1182 30.8 36.5625V25.3125C30.8 24.3721 30.3362 23.4932 29.5575 22.9746L25.8125 20.4697L31.0887 16.207L34.65 19.0723C35.1488 19.4678 35.7612 19.6875 36.4 19.6875H42C43.5487 19.6875 44.8 18.4307 44.8 16.875C44.8 15.3193 43.5487 14.0625 42 14.0625H37.38ZM4.9 33.75C4.9 32.0717 5.56375 30.4621 6.74523 29.2753C7.92671 28.0886 9.52914 27.4219 11.2 27.4219C12.8709 27.4219 14.4733 28.0886 15.6548 29.2753C16.8363 30.4621 17.5 32.0717 17.5 33.75C17.5 35.4283 16.8363 37.0379 15.6548 38.2247C14.4733 39.4114 12.8709 40.0781 11.2 40.0781C9.52914 40.0781 7.92671 39.4114 6.74523 38.2247C5.56375 37.0379 4.9 35.4283 4.9 33.75ZM22.4 33.75C22.4 30.7663 21.22 27.9048 19.1196 25.795C17.0192 23.6853 14.1704 22.5 11.2 22.5C8.22958 22.5 5.38081 23.6853 3.2804 25.795C1.18 27.9048 0 30.7663 0 33.75C0 36.7337 1.18 39.5952 3.2804 41.705C5.38081 43.8147 8.22958 45 11.2 45C14.1704 45 17.0192 43.8147 19.1196 41.705C21.22 39.5952 22.4 36.7337 22.4 33.75ZM38.5 33.75C38.5 32.0717 39.1637 30.4621 40.3452 29.2753C41.5267 28.0886 43.1291 27.4219 44.8 27.4219C46.4709 27.4219 48.0733 28.0886 49.2548 29.2753C50.4362 30.4621 51.1 32.0717 51.1 33.75C51.1 35.4283 50.4362 37.0379 49.2548 38.2247C48.0733 39.4114 46.4709 40.0781 44.8 40.0781C43.1291 40.0781 41.5267 39.4114 40.3452 38.2247C39.1637 37.0379 38.5 35.4283 38.5 33.75ZM56 33.75C56 30.7663 54.82 27.9048 52.7196 25.795C50.6192 23.6853 47.7704 22.5 44.8 22.5C41.8296 22.5 38.9808 23.6853 36.8804 25.795C34.78 27.9048 33.6 30.7663 33.6 33.75C33.6 36.7337 34.78 39.5952 36.8804 41.705C38.9808 43.8147 41.8296 45 44.8 45C47.7704 45 50.6192 43.8147 52.7196 41.705C54.82 39.5952 56 36.7337 56 33.75Z" fill="white"/>
</svg>
