<svg width="97" height="16" viewBox="0 0 97 16" fill="none"
    xmlns="http://www.w3.org/2000/svg">
    <path d="M31.5773 12H28.8841V3.27273H31.6966C32.5432 3.27273 33.2677 3.44744 33.8699 3.79688C34.4722 4.14347 34.9339 4.64205 35.2549 5.29261C35.5759 5.94034 35.7364 6.71591 35.7364 7.61932C35.7364 8.52841 35.5745 9.31108 35.2506 9.96733C34.9268 10.6207 34.4552 11.1236 33.8359 11.4759C33.2165 11.8253 32.4637 12 31.5773 12ZM29.941 11.0625H31.5091C32.2307 11.0625 32.8288 10.9233 33.3032 10.6449C33.7776 10.3665 34.1313 9.97017 34.3643 9.45597C34.5972 8.94176 34.7137 8.32955 34.7137 7.61932C34.7137 6.91477 34.5986 6.30824 34.3685 5.79972C34.1384 5.28835 33.7947 4.89631 33.3373 4.62358C32.8799 4.34801 32.3103 4.21023 31.6285 4.21023H29.941V11.0625ZM40.0319 12.1364C39.441 12.1364 38.9225 11.9957 38.4765 11.7145C38.0333 11.4332 37.6867 11.0398 37.4367 10.5341C37.1895 10.0284 37.066 9.4375 37.066 8.76136C37.066 8.07955 37.1895 7.48437 37.4367 6.97585C37.6867 6.46733 38.0333 6.07244 38.4765 5.79119C38.9225 5.50994 39.441 5.36932 40.0319 5.36932C40.6228 5.36932 41.1398 5.50994 41.583 5.79119C42.029 6.07244 42.3756 6.46733 42.6228 6.97585C42.8728 7.48437 42.9978 8.07955 42.9978 8.76136C42.9978 9.4375 42.8728 10.0284 42.6228 10.5341C42.3756 11.0398 42.029 11.4332 41.583 11.7145C41.1398 11.9957 40.6228 12.1364 40.0319 12.1364ZM40.0319 11.233C40.4807 11.233 40.8501 11.1179 41.1398 10.8878C41.4296 10.6577 41.6441 10.3551 41.7833 9.98011C41.9225 9.60511 41.9921 9.19886 41.9921 8.76136C41.9921 8.32386 41.9225 7.91619 41.7833 7.53835C41.6441 7.16051 41.4296 6.85511 41.1398 6.62216C40.8501 6.3892 40.4807 6.27273 40.0319 6.27273C39.583 6.27273 39.2137 6.3892 38.9239 6.62216C38.6341 6.85511 38.4197 7.16051 38.2805 7.53835C38.1413 7.91619 38.0716 8.32386 38.0716 8.76136C38.0716 9.19886 38.1413 9.60511 38.2805 9.98011C38.4197 10.3551 38.6341 10.6577 38.9239 10.8878C39.2137 11.1179 39.583 11.233 40.0319 11.233ZM46.4591 12.1534C46.0443 12.1534 45.6679 12.0753 45.3298 11.919C44.9917 11.7599 44.7233 11.5312 44.5244 11.233C44.3256 10.9318 44.2261 10.5682 44.2261 10.142C44.2261 9.76705 44.3 9.46307 44.4477 9.23011C44.5954 8.99432 44.7929 8.80966 45.04 8.67614C45.2872 8.54261 45.5599 8.44318 45.8582 8.37784C46.1594 8.30966 46.4619 8.25568 46.7659 8.21591C47.1636 8.16477 47.4861 8.12642 47.7332 8.10085C47.9832 8.07244 48.165 8.02557 48.2787 7.96023C48.3952 7.89489 48.4534 7.78125 48.4534 7.61932V7.58523C48.4534 7.16477 48.3383 6.83807 48.1082 6.60511C47.881 6.37216 47.5358 6.25568 47.0727 6.25568C46.5926 6.25568 46.2162 6.3608 45.9435 6.57102C45.6707 6.78125 45.479 7.00568 45.3682 7.24432L44.4136 6.90341C44.5841 6.50568 44.8114 6.19602 45.0954 5.97443C45.3824 5.75 45.6949 5.59375 46.0329 5.50568C46.3739 5.41477 46.7091 5.36932 47.0386 5.36932C47.2489 5.36932 47.4903 5.39489 47.7631 5.44602C48.0386 5.49432 48.3042 5.59517 48.5599 5.74858C48.8185 5.90199 49.0329 6.13352 49.2034 6.44318C49.3739 6.75284 49.4591 7.16761 49.4591 7.6875V12H48.4534V11.1136H48.4023C48.3341 11.2557 48.2204 11.4077 48.0614 11.5696C47.9023 11.7315 47.6906 11.8693 47.4264 11.983C47.1622 12.0966 46.8398 12.1534 46.4591 12.1534ZM46.6125 11.25C47.0102 11.25 47.3454 11.1719 47.6182 11.0156C47.8937 10.8594 48.1011 10.6577 48.2403 10.4105C48.3824 10.1634 48.4534 9.90341 48.4534 9.63068V8.71023C48.4108 8.76136 48.317 8.80824 48.1721 8.85085C48.0301 8.89062 47.8653 8.92614 47.6778 8.95739C47.4932 8.9858 47.3128 9.01136 47.1366 9.03409C46.9633 9.05398 46.8227 9.07102 46.7148 9.08523C46.4534 9.11932 46.2091 9.17472 45.9818 9.25142C45.7574 9.32528 45.5756 9.4375 45.4364 9.58807C45.3 9.7358 45.2318 9.9375 45.2318 10.1932C45.2318 10.5426 45.3611 10.8068 45.6196 10.9858C45.881 11.1619 46.2119 11.25 46.6125 11.25ZM52.3003 8.0625V12H51.2947V5.45455H52.2663V6.47727H52.3515C52.5049 6.14489 52.7378 5.87784 53.0503 5.67614C53.3628 5.47159 53.7663 5.36932 54.2606 5.36932C54.7038 5.36932 55.0915 5.46023 55.4239 5.64205C55.7563 5.82102 56.0148 6.09375 56.1995 6.46023C56.3841 6.82386 56.4765 7.28409 56.4765 7.84091V12H55.4708V7.90909C55.4708 7.39489 55.3373 6.99432 55.0702 6.70739C54.8032 6.41761 54.4367 6.27273 53.9708 6.27273C53.6498 6.27273 53.3628 6.34233 53.11 6.48153C52.86 6.62074 52.6626 6.82386 52.5177 7.09091C52.3728 7.35795 52.3003 7.68182 52.3003 8.0625ZM59.3199 8.0625V12H58.3142V3.27273H59.3199V6.47727H59.4051C59.5585 6.1392 59.7886 5.87074 60.0954 5.67188C60.4051 5.47017 60.817 5.36932 61.3312 5.36932C61.7773 5.36932 62.1679 5.45881 62.5031 5.63778C62.8383 5.81392 63.0983 6.08523 63.2829 6.4517C63.4704 6.81534 63.5642 7.27841 63.5642 7.84091V12H62.5585V7.90909C62.5585 7.3892 62.4236 6.98722 62.1537 6.70312C61.8866 6.41619 61.5159 6.27273 61.0415 6.27273C60.7119 6.27273 60.4165 6.34233 60.1551 6.48153C59.8966 6.62074 59.692 6.82386 59.5415 7.09091C59.3937 7.35795 59.3199 7.68182 59.3199 8.0625ZM71.6256 5.45455V6.30682H68.2336V5.45455H71.6256ZM69.2222 3.88636H70.2279V10.125C70.2279 10.4091 70.2691 10.6222 70.3515 10.7642C70.4367 10.9034 70.5447 10.9972 70.6753 11.0455C70.8089 11.0909 70.9495 11.1136 71.0972 11.1136C71.208 11.1136 71.2989 11.108 71.3699 11.0966C71.441 11.0824 71.4978 11.071 71.5404 11.0625L71.7449 11.9659C71.6768 11.9915 71.5816 12.017 71.4594 12.0426C71.3373 12.071 71.1824 12.0852 70.9949 12.0852C70.7109 12.0852 70.4324 12.0241 70.1597 11.902C69.8898 11.7798 69.6654 11.5938 69.4864 11.3438C69.3103 11.0938 69.2222 10.7784 69.2222 10.3977V3.88636ZM74.2847 8.0625V12H73.279V3.27273H74.2847V6.47727H74.3699C74.5234 6.1392 74.7535 5.87074 75.0603 5.67188C75.3699 5.47017 75.7819 5.36932 76.2961 5.36932C76.7421 5.36932 77.1327 5.45881 77.468 5.63778C77.8032 5.81392 78.0631 6.08523 78.2478 6.4517C78.4353 6.81534 78.529 7.27841 78.529 7.84091V12H77.5234V7.90909C77.5234 7.3892 77.3884 6.98722 77.1185 6.70312C76.8515 6.41619 76.4807 6.27273 76.0063 6.27273C75.6768 6.27273 75.3813 6.34233 75.1199 6.48153C74.8614 6.62074 74.6569 6.82386 74.5063 7.09091C74.3586 7.35795 74.2847 7.68182 74.2847 8.0625ZM84.4939 9.32386V5.45455H85.4996V12H84.4939V10.892H84.4257C84.2723 11.2244 84.0337 11.5071 83.7098 11.7401C83.3859 11.9702 82.9768 12.0852 82.4825 12.0852C82.0734 12.0852 81.7098 11.9957 81.3916 11.8168C81.0734 11.6349 80.8234 11.3622 80.6416 10.9986C80.4598 10.6321 80.3689 10.1705 80.3689 9.61364V5.45455H81.3746V9.54545C81.3746 10.0227 81.5081 10.4034 81.7751 10.6875C82.045 10.9716 82.3888 11.1136 82.8064 11.1136C83.0564 11.1136 83.3106 11.0497 83.5692 10.9219C83.8305 10.794 84.0493 10.598 84.2254 10.3338C84.4044 10.0696 84.4939 9.73295 84.4939 9.32386Z" fill="#4F4F4F"/>
    <rect x="0.0408325" y="3.73215" width="19.2619" height="7.32141" fill="#F86C1D"/>
</svg>