<svg width="44" height="44" viewBox="0 0 44 44" fill="none"
    xmlns="http://www.w3.org/2000/svg">
    <path d="M42.8055 0.481243C43.6734 1.08281 44.1289 2.12265 43.9656 3.16249L38.4656 38.9125C38.3367 39.7461 37.8297 40.4766 37.0906 40.8891C36.3516 41.3016 35.4664 41.3531 34.6844 41.0266L24.4063 36.7555L18.5195 43.1234C17.7547 43.957 16.5516 44.232 15.4945 43.8195C14.4375 43.407 13.75 42.3844 13.75 41.25V34.0656C13.75 33.7219 13.8789 33.3953 14.1109 33.1461L28.5141 17.4281C29.0125 16.8867 28.9953 16.0531 28.4797 15.5375C27.9641 15.0219 27.1305 14.9875 26.5891 15.4773L9.10938 31.0062L1.5211 27.2078C0.610166 26.7523 0.0257913 25.8414 1.00762e-05 24.8273C-0.0257712 23.8133 0.507041 22.868 1.3836 22.3609L39.8836 0.36093C40.8031 -0.163288 41.9375 -0.111726 42.8055 0.481243Z" fill="white"/>
</svg>
